<svg width="61" height="46" viewBox="0 0 61 46" xmlns="http://www.w3.org/2000/svg"><title>Artboard 1</title><path d="M25.714 36.04h.241v.603h-.24v-.603zm0 1.807h.241v-.602h-.24v.602zm0-2.409h.241v-.602h-.24v.602zm0-2.409h.241v-.602h-.24v.602zm0 6.023h.241v-.603h-.24v.603zm0-4.818h.241v-.602h-.24v.602zm0-18.068h.241v-.602h-.24v.602zm0 8.432h.241v-.602h-.24v.602zm0 15.658h.241v-.602h-.24v.602zm0 3.614h.241v-.603h-.24v.603zm0-1.205h.241v-.602h-.24v.602zm0-1.204h.241v-.603h-.24v.603zm0-34.93h.241v-.603h-.24v.602zm0-3.614h.241v-.602h-.24v.602zm0 2.409h.241v-.602h-.24v.602zm0-3.614h.241v-.164h.672L25.821 0l-.724 1.548h.617v.164zm0 21.681h.241v-.602h-.24v.602zm0-19.272h.241V3.52h-.24v.602zm.156 26.538c-5.978 0-10.842-4.862-10.845-10.839v-.005c0-.079.001-.157.003-.236.126-5.872 4.94-10.61 10.842-10.61 5.11 0 9.404 3.555 10.544 8.322h1.754c-1.163-5.696-6.183-9.987-12.213-10.027v-.131h-.24v.132c-6.783.082-12.27 5.543-12.394 12.314H9.308a.661.661 0 1 0 .006.241h4.004c.003 6.93 5.621 12.547 12.552 12.547 6.12 0 11.214-4.382 12.324-10.178H36.45c-1.086 4.841-5.415 8.47-10.58 8.47zm0-20.495c4.093 0 7.596 2.563 8.996 6.168h.73c-1.432-3.989-5.251-6.85-9.726-6.85-5.619 0-10.204 4.508-10.33 10.097a10.51 10.51 0 0 0-.003.236v.005c.003 5.643 4.553 10.242 10.177 10.325l.156.002.085-.001c4.494-.037 8.311-2.957 9.692-6.998h-.722c-1.36 3.683-4.905 6.317-9.055 6.317-5.32 0-9.647-4.326-9.65-9.645v-.005c0-.079.001-.157.003-.236.126-5.213 4.405-9.415 9.647-9.415zm.085 34.376v-.068h-.24v.064a.66.66 0 1 0 .24.004zm27.124-24.822a.661.661 0 0 1-1.314.102H46.63a1392.619 1392.619 0 0 1-3.894 3.838h2.733c.349.005.725.123 1.16.333.429.211.898.523 1.34.944a5.247 5.247 0 0 1 1.655 3.865c.005 1.704-.669 2.997-1.652 3.816-.981.822-2.235 1.187-3.421 1.189h-5.068a.482.482 0 0 1 0-.964h5.068c.99.001 2.031-.313 2.802-.963.768-.652 1.301-1.62 1.307-3.078.005-2.139-1.415-3.428-2.457-3.944-.337-.17-.641-.239-.734-.234a1784.379 1784.379 0 0 0-3.912 0 .48.48 0 0 1-.337-.826 2254.166 2254.166 0 0 0 4.04-3.976H28.426a2.604 2.604 0 0 1-5.21 0H20.83a5.046 5.046 0 0 0 5.04 5.035 5.044 5.044 0 0 0 4.444-2.666h4.378c-1.04 3.864-4.557 6.723-8.737 6.761l-.085.002c-.052 0-.104 0-.156-.002-4.965-.083-8.98-4.146-8.982-9.13v-.005c0-.079.001-.157.003-.236.126-4.93 4.175-8.902 9.135-8.902 4.162 0 7.681 2.8 8.78 6.614h-4.424a5.04 5.04 0 0 0-4.271-2.515v.186h-.24v-.184a5.045 5.045 0 0 0-4.88 4.801h2.393a2.604 2.604 0 0 1 2.486-2.366v-.444h.241v.445a2.604 2.604 0 0 1 2.46 2.365h17.087a129.14 129.14 0 0 0 1.69-1.688c.155-.164.183-.289.182-.334-.004-.04-.005-.037-.024-.057-.02-.018-.081-.054-.216-.054-.718 0-7.687-.035-7.688-.035a.483.483 0 0 1 .004-.963c.008 0 6.974.034 7.684.034.313 0 .612.09.841.284.23.192.366.492.362.791-.001.36-.168.702-.444.996-.136.143-.516.524-1.021 1.026h4.9a.661.661 0 0 1 1.307.139zm-27.733-7.034l.009.12c.112-.008.225-.013.34-.016v.54l1.04-.6-1.04-.601v.54a7.263 7.263 0 0 0-.349.017zm-.723.09l.021.119c.117-.021.235-.039.354-.054l-.014-.12a7.035 7.035 0 0 0-.36.055zm-.71.163l.034.116a6.98 6.98 0 0 1 .346-.09l-.027-.116a7.11 7.11 0 0 0-.352.09zm-.689.236l.045.111c.11-.044.223-.085.336-.124l-.039-.114c-.115.04-.23.082-.342.127zm-.66.304l.056.106c.105-.055.212-.108.32-.157l-.05-.11c-.11.05-.219.104-.326.16zm-.627.37l.067.1c.1-.066.2-.129.303-.19l-.061-.103a7.125 7.125 0 0 0-.309.192zm-.586.431l.077.093a6.98 6.98 0 0 1 .282-.22l-.071-.096a7.278 7.278 0 0 0-.288.223zm-.54.489l.086.085c.084-.085.17-.167.26-.247l-.082-.09c-.09.082-.178.166-.263.252zm-.487.54l.093.077c.076-.093.153-.184.233-.272l-.089-.08c-.081.09-.16.182-.237.276zm-.431.589l.1.066c.066-.1.134-.198.205-.295l-.097-.07a7.138 7.138 0 0 0-.208.299zm-.37.628l.107.056a6.92 6.92 0 0 1 .174-.314l-.104-.06c-.061.104-.12.21-.176.318zm-.303.664l.112.044c.045-.111.091-.221.141-.33l-.11-.05c-.05.11-.098.222-.143.336zm-.233.69l.116.033c.032-.115.068-.23.106-.342l-.114-.039c-.04.115-.075.231-.108.348zm-.161.71l.118.021c.02-.118.044-.235.07-.35l-.117-.028c-.027.119-.05.238-.071.358zm-.088.724l.12.008c.008-.12.02-.238.034-.356l-.12-.015c-.014.12-.026.241-.034.363zm13.58 3.299l.11.048c.049-.111.095-.224.137-.338l-.112-.043a6.96 6.96 0 0 1-.135.333zm-.32.641l.106.06c.06-.106.116-.214.17-.323l-.107-.053c-.054.107-.11.212-.168.316zm-.382.606l.099.07c.07-.1.137-.2.202-.304l-.102-.064c-.064.101-.13.2-.199.298zm-.442.564l.09.079a7.11 7.11 0 0 0 .233-.281l-.095-.074c-.074.094-.15.186-.228.276zm-.497.516l.083.088a7.19 7.19 0 0 0 .259-.256l-.087-.084c-.083.086-.168.17-.255.252zm-.546.463l.073.096c.097-.074.192-.15.284-.229l-.078-.092a7.055 7.055 0 0 1-.279.225zm-.59.406l.063.102c.104-.063.206-.13.306-.198l-.069-.1a7.096 7.096 0 0 1-.3.196zm-.628.343l.053.109c.11-.053.217-.109.324-.167l-.058-.106c-.105.058-.21.112-.319.164zm-.659.278l.041.113a7.01 7.01 0 0 0 .34-.133l-.048-.11c-.11.045-.22.089-.333.13zm-.684.208l.03.117c.117-.03.234-.062.35-.097l-.035-.115a7.008 7.008 0 0 1-.345.095zm-.702.137l.017.12c.12-.018.24-.038.359-.061l-.023-.118a7.03 7.03 0 0 1-.353.06zm-.714.065l.005.12c.122-.004.243-.012.364-.023l-.011-.12a7.12 7.12 0 0 1-.358.023zm-.723.113c.094.006.188.01.283.011v-.12a7.163 7.163 0 0 1-.276-.011l-.007.12zm-.724-.081c.12.02.24.036.361.05l.014-.12a7.003 7.003 0 0 1-.355-.049l-.02.119zm-.711-.155c.116.032.234.06.353.087l.026-.118a6.99 6.99 0 0 1-.348-.085l-.031.116zm-.693-.227c.113.044.228.085.344.123l.037-.115a6.869 6.869 0 0 1-.338-.12l-.043.112zm-.667-.297c.109.055.218.107.33.157l.049-.11c-.11-.05-.217-.1-.324-.155l-.055.108zm-.632-.364c.103.066.206.13.312.19l.06-.105a6.966 6.966 0 0 1-.306-.186l-.066.101zm-.591-.426c.095.076.192.15.29.22l.07-.097a7.11 7.11 0 0 1-.285-.217l-.075.094zm-.545-.483c.086.085.175.168.266.249l.08-.09a7.01 7.01 0 0 1-.262-.245l-.084.086zm-2.085-4.152l.12-.016a7.05 7.05 0 0 1-.039-.356l-.12.01c.01.121.023.242.04.362zm.133.716l.118-.028a6.97 6.97 0 0 1-.075-.35l-.118.021a7.1 7.1 0 0 0 .075.357zm.32.658a6.944 6.944 0 0 1-.11-.34l-.116.034c.035.116.072.232.112.346l.114-.04zm.271.661a6.913 6.913 0 0 1-.144-.327l-.111.046c.046.112.095.223.146.333l.11-.052zm.338.63a6.993 6.993 0 0 1-.177-.31l-.106.057c.057.107.117.212.18.316l.103-.062zm.4.594a7.133 7.133 0 0 1-.208-.292l-.1.068c.068.1.138.2.211.296l.096-.072zm.458.55a6.998 6.998 0 0 1-.236-.27l-.093.078c.078.093.158.185.24.274l.089-.082zM18.84 19.82h-.12c0 .074 0 .147.003.22l.12-.004a7.458 7.458 0 0 1-.003-.216z" fill="#1A1918" fill-rule="evenodd"/></svg>