<svg width="356" height="354" viewBox="0 0 356 354" xmlns="http://www.w3.org/2000/svg"><title>Imported Layers</title><g fill="none" fill-rule="evenodd"><path d="M355.395 313.288c0 22-18 40-40 40H40.513c-22 0-40-18-40-40V40.276c0-22 18-40 40-40h274.882c22 0 40 18 40 40v273.012" fill="#2E337D"/><path d="M139.017 305.853a74.45 74.45 0 0 0 3.468 1.485c-4.062.31-8.247.483-12.507.483-32.125 0-60.116-9.299-62.209-20.666-2.092-11.361-5.522-41.444-7.615-66.84-1.096-13.324-1.609-27.996-1.56-40.651 6.742 23.712 21.793 42.96 41.11 52.965-.477 2.799.898 5.64 3.627 6.767 8.538 3.517 17.503 5.3 26.647 5.3 9.12 0 18.072-1.783 26.61-5.3 2.724-1.127 4.099-3.956 3.628-6.742 19.342-10.005 34.417-29.278 41.159-53.009.056 12.661-.464 27.34-1.56 40.67a1285.298 1285.298 0 0 1-4.129 41.45c-5.474 1.566-11.894 2.681-16.215 2.681-.384 0-.743-.012-1.09-.031a20.224 20.224 0 0 0-.873-.019c-6.414 0-17.787 3.368-26.449 7.838-8.098 4.186-17.632 11.98-19.347 18.171-1.634 5.882 1.641 12.816 7.305 15.448zm-79.86-139.315c4.217 28.313 20.264 51.827 41.927 63.095 1.703-1.944 4.464-2.731 6.978-1.703a57.366 57.366 0 0 0 43.796 0c2.52-1.022 5.288-.229 6.99 1.721 21.675-11.268 37.735-34.788 41.958-63.107-13.41 8.482-42.212 12.885-70.828 12.885-28.615 0-57.417-4.403-70.821-12.891zm145.982-10.915v-3.838c0-1.294-.495-2.557-1.349-3.783l-.037.062-.192.241c-.991 15.441-37.531 23.354-73.626 23.354-36.596 0-73.638-8.13-73.657-23.657-.018-.031-.03-.056-.049-.087-.898 1.251-1.399 2.545-1.399 3.87v3.838c0 11.237 33.643 20.332 75.148 20.332 41.512 0 75.161-9.095 75.161-20.332zm-145.784-8.971c-3.021-4.006-4.841-8.878-4.841-14.206 0-13.323 11.163-24.13 24.963-24.21 3.894-12.055 14.562-20.784 27.272-20.784 8.111 0 15.441 3.578 20.691 9.293 4.872-5.647 11.967-9.293 19.96-9.293 9.776 0 18.215 5.389 22.834 13.314 3.745-2.625 8.06-4.219 12.729-4.219 13.819 0 25.012 13.165 25.012 29.42 0 7.767-2.612 14.779-6.798 20.048-.891.538-.891 1.151-.891 1.981 0 11.255-31.501 20.368-70.351 20.368-38.868 0-70.363-9.113-70.363-20.368.198-.83.198-.83-.217-1.344zm1.74-14.206c0 3.653 1.214 7.198 3.51 10.244 1.585 1.956 1.815 3.826 1.617 5.491 1.678 3.864 22.882 13.603 63.713 13.603 41.493 0 62.717-10.067 63.782-13.893-.006-2.744.928-4.966 2.779-6.576 3.165-4.275 4.898-9.692 4.898-15.348 0-12.596-8.265-22.842-18.431-22.842-3.071 0-6.086 1.019-8.953 3.03l-5.857 4.105-3.603-6.182c-3.665-6.29-10.079-10.048-17.15-10.048-5.67 0-11.131 2.557-14.982 7.015l-4.823 5.593-5.003-5.442c-4.24-4.621-9.868-7.166-15.843-7.166-9.435 0-17.874 6.523-21.013 16.227l-1.461 4.529-4.761.028c-10.16.058-18.419 7.971-18.419 17.632zm11.256 10.578c-.266 1.486.724 2.935 2.229 3.189a2.772 2.772 0 0 0 3.194-2.217c.254-1.504-.736-2.935-2.241-3.188-1.486-.279-2.91.712-3.182 2.216zm-.186-14.463c1.498.27 2.91-.73 3.188-2.228a2.752 2.752 0 0 0-2.216-3.18 2.747 2.747 0 1 0-.972 5.408zm105.894 19.695c-.26 1.485.731 2.91 2.241 3.188 1.486.26 2.91-.73 3.176-2.216.267-1.505-.724-2.935-2.21-3.189-1.504-.278-2.928.731-3.207 2.217zm-73.687-33.482c-.273 1.486.73 2.922 2.228 3.188a2.76 2.76 0 0 0 3.189-2.229 2.754 2.754 0 0 0-2.223-3.188 2.76 2.76 0 0 0-3.194 2.229zm4.129-46.775a2.76 2.76 0 0 0 3.201-2.229 2.747 2.747 0 0 0-2.229-3.191 2.77 2.77 0 0 0-3.194 2.238 2.769 2.769 0 0 0 2.222 3.182zm-52.644 49.963a2.762 2.762 0 0 0 3.195-2.229c.118-.662-.043-1.294-.353-1.836-.39-.677-1.034-1.204-1.869-1.352a2.769 2.769 0 0 0-3.201 2.229c-.248 1.383.631 2.684 1.95 3.077.099.031.179.092.278.111zM66.5 107.375c1.505.257 2.929-.734 3.189-2.228a2.732 2.732 0 0 0-2.217-3.193 2.76 2.76 0 0 0-3.194 2.239c-.267 1.477.737 2.913 2.222 3.182zm19.533 28.359a4.096 4.096 0 0 0 4.755-3.309c.396-2.238-1.09-4.368-3.306-4.765-2.241-.396-4.383 1.1-4.78 3.319a4.096 4.096 0 0 0 3.331 4.755zm2.198-47.775a4.087 4.087 0 0 0 4.755-3.318c.396-2.229-1.09-4.371-3.306-4.755a4.103 4.103 0 0 0-4.773 3.328 4.095 4.095 0 0 0 3.324 4.745zm19.558 63.863a4.122 4.122 0 0 0 3.325 4.773c2.241.378 4.359-1.09 4.755-3.324a4.086 4.086 0 0 0-3.306-4.755c-2.241-.396-4.372 1.09-4.774 3.306zm-4.65-12.562c2.229.396 4.372-1.09 4.768-3.306a4.116 4.116 0 0 0-3.331-4.777 4.1 4.1 0 0 0-4.755 3.328 4.107 4.107 0 0 0 3.318 4.755zm36.287 16.388c2.241.396 4.371-1.09 4.767-3.313.396-2.234-1.083-4.376-3.318-4.773a4.108 4.108 0 0 0-4.768 3.331c-.383 2.217 1.09 4.359 3.319 4.755zm27.377-16.388a4.104 4.104 0 0 0 4.755-3.328 4.096 4.096 0 0 0-3.324-4.755 4.104 4.104 0 0 0-1.431 8.083zm-40.812-51.678c2.223.405 4.359-1.09 4.755-3.309a4.097 4.097 0 0 0-3.318-4.765c-2.229-.405-4.365 1.09-4.762 3.328a4.097 4.097 0 0 0 3.325 4.746zm-22.387 18.366a4.101 4.101 0 0 0 4.755-3.309c.396-2.238-1.077-4.377-3.318-4.774a4.116 4.116 0 0 0-4.762 3.328 4.11 4.11 0 0 0 3.325 4.755zM71.93 95.16a4.108 4.108 0 0 0 4.755-3.319 4.1 4.1 0 0 0-3.319-4.763c-2.229-.397-4.371 1.098-4.754 3.327-.409 2.22 1.077 4.349 3.318 4.755zm16.184 53.157c-.236 1.325.656 2.576 1.981 2.83a2.432 2.432 0 0 0 2.823-1.981 2.44 2.44 0 0 0-4.804-.849zm76.294 3.882a2.439 2.439 0 0 0 2.835-1.962c.236-1.325-.644-2.613-1.981-2.836a2.44 2.44 0 0 0-2.836 1.981 2.439 2.439 0 0 0 1.982 2.817zm-17.652-24.854a2.745 2.745 0 0 0 2.068 3.278 2.748 2.748 0 0 0 3.294-2.071 2.757 2.757 0 0 0-2.074-3.287 2.741 2.741 0 0 0-3.288 2.08zm-40.279-43.496a2.756 2.756 0 0 0 3.293-2.072c.322-1.485-.607-2.962-2.08-3.299a2.77 2.77 0 0 0-3.294 2.08 2.752 2.752 0 0 0 2.081 3.291zm40.955 23.495a2.73 2.73 0 0 0 3.275-2.08 2.752 2.752 0 0 0-2.068-3.287 2.744 2.744 0 0 0-3.288 2.089 2.734 2.734 0 0 0 2.081 3.278zm-1.35-33.868a2.744 2.744 0 0 0 3.287-2.081 2.74 2.74 0 0 0-2.08-3.287 2.745 2.745 0 0 0-3.287 2.08 2.752 2.752 0 0 0 2.08 3.288zm-17.93 56.296a4.12 4.12 0 0 0 4.916-3.102 4.133 4.133 0 0 0-3.115-4.904 4.1 4.1 0 0 0-4.903 3.102 4.097 4.097 0 0 0 3.102 4.904zm61.726 4.318a4.102 4.102 0 0 0 4.903-3.111c.496-2.198-.891-4.386-3.114-4.894a4.088 4.088 0 0 0-4.891 3.102 4.095 4.095 0 0 0 3.102 4.903zm-13.069-11.55a2.45 2.45 0 0 0 2.916-1.854 2.438 2.438 0 0 0-1.845-2.909 2.455 2.455 0 0 0-2.929 1.832c-.279 1.315.533 2.634 1.858 2.931zm-7.387-31.482a2.441 2.441 0 0 0 2.923-1.851 2.435 2.435 0 0 0-1.851-2.913 2.452 2.452 0 0 0-2.917 1.842 2.455 2.455 0 0 0 1.845 2.922zm21.93 25.202a2.432 2.432 0 0 0 2.916-1.852 2.422 2.422 0 0 0-1.845-2.903 2.425 2.425 0 0 0-2.91 1.833c-.297 1.318.533 2.634 1.839 2.922zm-2.96-28.124a2.455 2.455 0 0 0 1.851 2.922 2.434 2.434 0 0 0 2.91-1.851 2.43 2.43 0 0 0-1.839-2.913 2.457 2.457 0 0 0-2.922 1.842zm34.727 92.215c.247.6.563 1.151.842 1.727 1.232-2.024 2.6-3.869 4.073-5.355 5.375-5.424 15.726-9.671 23.577-9.665h.241c.638.007 1.319.087 1.981.142-4.049-9.454-12.11-16.041-19.712-16.041-1.629 0-3.195.31-4.65.91-8.507 3.535-11.355 16.221-6.352 28.282zm-12.408-60.742l12.798 30.776c1.257-1.052 2.631-1.968 4.179-2.612 1.498-.625 3.095-.941 4.724-1.102L185.157 33.038c-2.857.699-5.916 2.355-8.534 4.573l34.088 81.998zm91.11 114.19c-1.511-10.587-6.655-25.359-11.435-32.825-4.78-7.467-12.519-17.478-17.193-22.252-4.668-4.767-14.289-8.742-21.372-8.822h-.21c-7.058 0-16.716 3.937-21.558 8.822-4.897 4.941-8.878 14.562-8.841 21.385.031 6.817-3.789 17.694-8.495 24.158-4.699 6.464-6.432 16.76-3.85 22.87 2.581 6.111-.948 13.261-7.838 15.887-6.414 2.451-15.745 4.266-21.558 4.266-.434 0-.848-.013-1.238-.031a13.017 13.017 0 0 0-.725-.019c-5.875 0-16.914 3.275-25.142 7.522-8.575 4.433-16.642 11.813-17.918 16.407-1.275 4.594 1.325 10.042 5.771 12.11 4.445 2.062 13.367 5.287 19.824 7.157 4.569 1.325 11.255 2.093 17.125 2.093 2.427 0 4.717-.13 6.662-.409a7210.37 7210.37 0 0 1 27.253-3.826c3.64-.502 8.724-.743 14.228-.743 7.138 0 14.97.408 21.279 1.201 1.479.186 3.015.273 4.581.273 10.252 0 21.805-3.833 27.359-9.411 6.395-6.439 14.865-19.546 18.827-29.124 3.963-9.584 5.969-26.096 4.464-36.689z" fill="#FFF"/></g></svg>