<svg width="355" height="354" viewBox="0 0 355 354" xmlns="http://www.w3.org/2000/svg"><title>Imported Layers</title><g fill="none" fill-rule="evenodd"><path d="M354.915 313.268c0 22-18 40-40 40H40.033c-22 0-40-18-40-40V40.256c0-22 18-40 40-40h274.882c22 0 40 18 40 40v273.012" fill="#2E337D"/><path d="M278.678 214.681v-81.176l-54.488-28.039-118.447-36.992-81.107 45.044v102.36l124.27 69.173h55.643l125.764-51.696-51.635-18.674zm-246.582-4.955v-35.813l22.333 11.996v35.996l-22.333-12.179zm62.905-38.411l-30.082-14.447v-20.831l30.082 13.516v21.762zm-30.082-.351v-7.615l30.082 14.769v7.989l-30.082-15.143zm30.082 21.947v7.987l-30.082-15.837v-7.614l30.082 15.464zM54.429 151.83l-22.333-10.725v-19.372l22.333 9.591v20.506zm0 6.368v7.486l-22.333-11.242v-7.208l22.333 10.964zm0 13.855v7.485l-22.333-11.757v-7.208l22.333 11.48zm10.49 55.575v-36.083l30.082 16.158v36.337l-30.082-16.412zm80.972 44.169l-40.027-21.832v-36.427l40.027 21.501v-7.349l-40.027-21.073v-8.122l40.027 20.576v-7.348l-40.027-20.149v-8.123l40.027 19.651v-7.347l-40.027-19.223v-22.467l40.027 18.352v99.38zM27.766 114.867l77.293-42.581 114.726 36.778-70.879 57.833-121.14-52.03zm214.491 133.308l-15.867 6.267v-37.429l-4.398 1.554v37.612l1.995-.787-20.949 8.275v-38.41l39.219-13.847v36.765zm-97.324-87.819L37.826 114.353l67.613-37.249 102.557 32.876-63.063 50.376z" fill="#FFF"/></g></svg>