<svg width="356" height="354" viewBox="0 0 356 354" xmlns="http://www.w3.org/2000/svg"><title>Imported Layers</title><g fill="none" fill-rule="evenodd"><path d="M355.735 313.268c0 22-18 40-40 40H40.853c-22 0-40-18-40-40V40.256c0-22 18-40 40-40h274.882c22 0 40 18 40 40v273.012" fill="#2E337D"/><path d="M42.26 125.733l218.584 112.934v11.987L42.26 136.04v-10.307zm0 32.446l218.584 114.626v-11.982L42.26 147.882v10.297zm0 22.145L260.844 294.96v-12.012L42.26 170.02v10.304zm263.441-27.368s7.312 99.678-44.857 142.004c0 0 56.938-22.207 53.318-123.768-.961-27.325-8.461-18.236-8.461-18.236zM42.26 113.885l218.584 114.633v-12.009L42.26 103.584v10.301zm260.278 27.764c-7.658 17.853 6.859 21.068-6.197 34.927-13.065 13.878 4.68 19.584-16.613 26.934-16.043 5.532-1.392 9.764-18.884 12.999L42.26 103.584l243.816-29.02s16.966 9.445 9.373 27.348c-7.605 17.917 15.277 20.566 7.089 39.737zm-28.372-30.067c-34.012-9.126-44.513 17.82-46.75 25.36 1.829-7.578 6.302-36.248-27.785-45.386 0 0-10.401 31.564 19.544 44.564-.07.003-.129.007-.199.009-5.15.175-12.621.099-21.895-1.066-19.534-2.426-47.014-9.518-77.448-28.54l-1.806 2.896c30.891 19.299 58.891 26.552 78.826 29.034 1.838.228 3.586.406 5.283.559-17.999 6.579-22.281 27.098-22.281 27.098 33.746 9.038 44.342-17.382 46.69-25.152-1.858 7.902-5.914 36.084 27.822 45.135 0 0 12.106-36.6-27.138-47.196l.021-.002c39.27 10.418 47.116-27.313 47.116-27.313z" fill="#FFF"/></g></svg>