<svg width="356" height="354" viewBox="0 0 356 354" xmlns="http://www.w3.org/2000/svg"><title>Imported Layers</title><g fill="none" fill-rule="evenodd"><path d="M355.455 313.268c0 22-18 40-40 40H40.573c-22 0-40-18-40-40V40.256c0-22 18-40 40-40h274.882c22 0 40 18 40 40v273.012" fill="#2E337D"/><path d="M270.853 169.897l7.664 2.167v13.008l-7.664-2.633v-12.542zm0-17.489l7.664 2.172v-13.008l-7.664-1.702v12.538zm0-30.028l7.664 1.71v-13.005l-7.664-1.252v12.547zm42.541 111.463v5.107h-30.583l-17.776-9.302V75.085l-38.896 4.17.593.606 26.389 27.031-.04-.039c1.348 1.265 2.031 2.652 2.031 4.133v131.733c14.134.081 25.517 3.183 25.517 7.003 0 3.871-11.683 7.011-26.077 7.011h-28.529c-7.598 0-14.753-1.204-20.161-3.394-5.753-2.328-8.927-5.593-8.927-9.204V110.986c0-1.481.684-2.868 2.032-4.133l-.04.039 26.385-27.031.568-.578-68.118 7.303.032.033 29.329 30.037-.045-.04c1.501 1.398 2.259 2.943 2.259 4.591V267.575c15.708.09 28.347 3.536 28.347 7.778 0 4.3-12.974 7.785-28.974 7.785h-31.702c-8.435 0-16.395-1.335-22.396-3.764-6.397-2.585-9.921-6.221-9.921-10.225V121.207c0-1.648.763-3.193 2.263-4.591l-.048.04 29.177-29.889-75.592 8.104 31.516 32.284-.054-.045c1.669 1.555 2.513 3.269 2.513 5.098v162.635c17.456.1 31.497 3.931 31.497 8.642 0 4.78-14.412 8.655-32.192 8.655H78.553c-9.383 0-18.224-1.487-24.885-4.185-7.115-2.877-11.034-6.912-11.034-11.363V132.208c0-1.829.845-3.543 2.517-5.098l-.05.045 31.057-31.819-3.828.41-12.596-5.125V45.698h205.301v-4.314h39.434v188.93l8.925 3.529zM69.934 52.227l-7.809-1.136v35.661l7.809 3.17V52.227zm-2.401 101.879a89.548 89.548 0 0 1-5.043-.689 67.628 67.628 0 0 1-2.888-.539 59.905 59.905 0 0 1-5.037-1.268 43.64 43.64 0 0 1-2.896-.97c-1.892-.711-3.594-1.518-5.035-2.415v145.06c0 1.97 1.83 4.021 5.035 5.834.87.495 1.831.963 2.896 1.415 1.5.638 3.19 1.219 5.037 1.742.924.263 1.893.51 2.888.73 1.591.358 3.274.672 5.043.924V154.106zm8.867.563a100.719 100.719 0 0 1-5.035-.226v149.93c1.618.142 3.303.248 5.035.295V154.669zm2.153-58.062L46.64 129.302c-1.079.994-1.616 1.974-1.616 2.912 0 4.863 13.771 10.286 33.529 10.286 19.758 0 33.521-5.423 33.521-10.286 0-.932-.539-1.909-1.643-2.947l-31.878-32.66zm68.539 43.467a86.72 86.72 0 0 1-4.534-.614 74.186 74.186 0 0 1-2.598-.494 55.68 55.68 0 0 1-4.538-1.136 42.256 42.256 0 0 1-2.605-.876c-1.701-.642-3.23-1.368-4.534-2.175v131.395c0 1.77 1.65 3.619 4.534 5.254a27.1 27.1 0 0 0 2.605 1.269 39.11 39.11 0 0 0 4.538 1.568 46.03 46.03 0 0 0 2.598.653 57.36 57.36 0 0 0 4.534.833V140.074zm7.989.504a89.427 89.427 0 0 1-4.54-.202v135.776c1.469.129 2.983.22 4.54.262V140.578zm1.927-51.419l-28.718 29.427c-.96.9-1.448 1.78-1.448 2.621 0 4.378 12.396 9.26 30.166 9.26 17.791 0 30.18-4.882 30.18-9.26 0-.838-.485-1.72-1.483-2.648l-28.697-29.4zm60.09 37.805a72.069 72.069 0 0 1-4.083-.557 56.751 56.751 0 0 1-2.338-.439 48.984 48.984 0 0 1-4.087-1.021 37.796 37.796 0 0 1-2.338-.791c-1.533-.58-2.91-1.229-4.079-1.959v119.259c0 1.595 1.483 3.259 4.079 4.728.701.399 1.483.782 2.338 1.146 1.219.516 2.583.99 4.087 1.412.749.21 1.529.412 2.338.591 1.288.291 2.652.545 4.083.747V126.964zm7.184.456a75.299 75.299 0 0 1-4.083-.184v123.203c1.321.119 2.683.204 4.083.238V127.42zm1.741-45.271l-25.85 26.484c-.867.809-1.302 1.602-1.302 2.353 0 3.943 11.147 8.336 27.152 8.336 16.006 0 27.162-4.393 27.162-8.336 0-.751-.445-1.544-1.339-2.382l-25.823-26.455zm55.365-35.657l-13.593-.794 9.277.549v27.547l-9.28.995-.018 151.8 13.614 7.18V46.492zM78.553 141.164c1.5 0 2.981-.037 4.433-.1l-4.433-42.35-2.124 42.429c.706.013 1.411.021 2.124.021zm22.657-2.941c.314-.1.62-.196.924-.296a32.078 32.078 0 0 0 2.758-1.048L78.553 98.714l22.657 39.509zm-4.913 1.254L78.553 98.714l9.414 42.009a78.277 78.277 0 0 0 8.33-1.246zm60.711-10.21a90.55 90.55 0 0 0 3.999-.092l-3.999-38.119-1.902 38.186c.633.016 1.265.025 1.902.025zm20.394-2.652c.283-.084.569-.171.842-.264.913-.31 1.733-.618 2.471-.941l-23.707-34.354 20.394 35.559zm-4.424 1.131l-15.97-36.69 8.474 37.809a69.708 69.708 0 0 0 7.496-1.119zm53.045-9.507c1.217 0 2.415-.028 3.595-.077l-3.595-34.308-1.718 34.366c.574.016 1.14.019 1.718.019zm18.352-2.378c.255-.083.511-.162.753-.245a26.517 26.517 0 0 0 2.229-.845l-21.334-30.917 18.352 32.007zm-3.977 1.011l-14.375-33.018 7.627 34.023a60.838 60.838 0 0 0 6.748-1.005zm72.996 195.268v-55.854L193.896 312.14h119.498z" fill="#FFF"/></g></svg>