<svg width="61" height="46" viewBox="0 0 61 46" xmlns="http://www.w3.org/2000/svg"><title>Imported Layers</title><path d="M40.496 19.236l-16.139 6.712-.006.006a12.367 12.367 0 0 0-.427-.686c-.034-.045-.068-.09-.101-.14a11.983 11.983 0 0 0-.512-.681c-.033-.045-.062-.089-.101-.129a11.445 11.445 0 0 0-.601-.68c-.057-.056-.107-.113-.163-.174a13.46 13.46 0 0 0-.647-.613c-.056-.051-.118-.101-.18-.152-.23-.202-.466-.393-.708-.573-.039-.034-.084-.062-.124-.09a19.793 19.793 0 0 0-.719-.489c-.051-.028-.09-.056-.141-.085-.264-.163-.539-.32-.821-.461-.056-.033-.118-.061-.174-.089a14.972 14.972 0 0 0-.871-.4c-.045-.016-.096-.033-.141-.056a13.266 13.266 0 0 0-2.006-.612c-.017 0-.029-.006-.045-.012-.006 0-.012 0-.017-.005-.006 0-.017 0-.023-.006-.005 0-.011-.006-.022-.006-.006 0-.011 0-.017-.005l.601-4.452c.006.005.006.005.012.005.005.006.005.006.011.006.005.006.011.006.017.006a7.922 7.922 0 0 0 3.395.753c3.98 0 7.28-2.895 7.937-6.69l13.019 3.564a9.96 9.96 0 0 0-.657 3.553c0 .933.135 1.827.371 2.681zM13.94 13.57c0 .006 0 .006.006.006 0 .005.006.005.006.005v.006h.005c0 .006.006.006.006.006v.005h.005c0 .006.006.006.006.006v.005h.006v.006h.005v.006h.006v.005h.006c0 .006.005.006.005.006v.006h.006v.005c0 .006 0 .006.006.006 0 .005 0 .005.005.005 0 .006 0 .006.006.006 0 .006 0 .006.005.006 0 .005 0 .005.006.005 0 .006 0 .006.006.006 0 .006 0 .006.005.006 0 .005.006.005.006.005 0 .006.005.006.005.006 0 .005.006.005.006.005v.006h.006v.006l.005.005h.006v.006h.006v.005h.005v.006h.006v.006h.005v.005l-2.968 5.936h-.005s0 .006-.006.006h-.034c-.005.006-.005.006-.011.006h-.022l-.006.005h-.017c-.005.006-.011.006-.017.006h-.028l-.005.006h-.023s0 .005-.006.005h-.028s0 .006-.005.006h-.028s0 .005-.006.005h-.017c-.005.006-.011.006-.017.006h-.022c-.006.006-.006.006-.011.006h-.023l-.005.005h-.017c-.006.006-.012.006-.017.006h-.017s-.006.011-.011.006h-.028s0 .005-.006.005h-.023c-.005.006-.011.006-.016.006h-.017l-.006.005c-.006.006-.006.006-.011 0h-.017l-.006.006h-.028l-.005.006h-.029l-.005.005h-.011c-.006.012-.012.017-.028.023l.011-.023c-.135.028-.27.068-.405.102l-.219.05c-.27.073-.54.146-.804.231-.023.005-.039.016-.062.022C3.783 21.907 0 26.825 0 32.632 0 39.867 5.863 45.73 13.097 45.73a13.034 13.034 0 0 0 9.466-4.064c.197-.208.388-.416.568-.636.085-.101.169-.196.248-.303.095-.113.18-.236.27-.354.089-.118.174-.242.258-.366.079-.107.152-.219.219-.326.146-.219.281-.449.411-.68.045-.084.095-.18.14-.27a7.74 7.74 0 0 0 .27-.539c.045-.09.084-.18.124-.27.118-.264.23-.534.331-.81.028-.073.051-.146.073-.213.045-.13.09-.253.13-.383.056-.185.112-.376.157-.567.006-.012.011-.028.017-.045.27-1.046.41-2.142.41-3.272v-.011c0-.287-.017-.579-.039-.86l.006-.006 15.526-9.832a10.06 10.06 0 0 0 8.533 4.722c3.496 0 6.571-1.782 8.381-4.48.006-.006.006-.011.006-.011a10.032 10.032 0 0 0 1.698-5.599c0-5.571-4.514-10.09-10.085-10.09-.045 0-.096.005-.141.005a11.5 11.5 0 0 0-.77.04c-.135.011-.264.033-.393.05-.169.023-.338.045-.501.073-.146.028-.297.057-.444.09-.14.034-.281.073-.421.113-.146.039-.298.078-.444.123-.012.006-.023.006-.028.012-1.81.59-3.39 1.681-4.588 3.103L27.853 7.448a8 8 0 0 0-2.4-5.154A8.014 8.014 0 0 0 19.05.04l-.157.016c-.197.023-.382.057-.568.09a3.918 3.918 0 0 0-.236.045c-.169.04-.332.085-.495.13-.073.022-.152.039-.225.061l-.056.023a8.059 8.059 0 0 0-3.446 13.087v.005h.006l.006.006c0 .005.005.005.005.005 0 .006.006.006.006.006 0 .006.005.006.005.006v.005h.006v.006h.006v.005h.005v.006c0 .006.006.006.006.006h.006v.005c0 .006 0 .006.005.006 0 .005 0 .005.006.005l.005.006zm26.196 19.388h-.006a2.24 2.24 0 0 0-2.237 2.254c0 1.276 1.001 2.266 2.237 2.266 1.243 0 2.226-.99 2.226-2.266 0-1.253-.983-2.254-2.22-2.254zm0 4.171c-1.001 0-1.816-.843-1.816-1.917 0-1.051.815-1.905 1.81-1.905h.006c1.006 0 1.804.854 1.804 1.917 0 1.062-.798 1.916-1.804 1.905zm.405-1.832v-.023c.269-.079.489-.281.489-.613 0-.241-.079-.41-.231-.522-.152-.107-.399-.191-.781-.191-.304 0-.5.033-.714.061v2.519h.399v-1.085h.287c.32 0 .478.123.539.444.051.332.107.562.169.641h.421c-.039-.079-.101-.231-.162-.624-.045-.371-.197-.568-.416-.607zm-.546-.163h-.292v-.855c.073-.005.163-.017.292-.017.45 0 .613.22.613.439 0 .309-.281.433-.613.433z" fill="#9B6F16" fill-rule="evenodd"/></svg>