<svg width="61" height="46" viewBox="0 0 61 46" xmlns="http://www.w3.org/2000/svg"><title>Artboard 1</title><path d="M30.478 0c-7.21 0-13.7 2.94-18.184 7.61C8.384 11.68 6 17.064 6 22.962 6 35.02 15.96 44.92 28.567 45.84c.63.048 1.267.078 1.911.078 13.498 0 24.48-10.294 24.48-22.955C54.958 10.302 43.976 0 30.478 0zm8.3 28.95c-6.771-4.82-6.288-9.073-8.345-15.71-1.013-3.27-3.185-6.62-5.127-9.18a56.74 56.74 0 0 0-1.355.148c1.769 2.154 3.775 4.881 5.153 7.614 3.206 6.353 1.02 12.376 9.19 18.547a54.786 54.786 0 0 0 9.38 5.702c-.36.414-.735.815-1.127 1.202l-.148.142a135.498 135.498 0 0 1-5.004-2.862c-3.81-2.273-6.074-4.475-7.518-6.677a5.98 5.98 0 0 0-.586.336c1.459 2.621 4.026 5.388 9.131 8.666.98.628 1.875 1.186 2.695 1.683-.357.295-.724.579-1.1.852l-.057.04-.03.02a21.541 21.541 0 0 1-2.612-1.62c-5.27-3.868-7.352-6.553-8.514-9.296a4.646 4.646 0 0 0-.555.57c.907 2.97 2.78 5.861 9.37 10.708l.835.613c-.475.287-.962.557-1.46.81-.575-.422-1.188-.874-1.852-1.366-4.972-3.683-6.1-6.687-7.24-10.342-.768.962-1.875 2.44-3.351 3.753.399 1.309.91 2.608 1.698 3.964 1.266 2.177 3.447 4.207 5.615 5.862a23.46 23.46 0 0 1-4.412.602c-.324.012-.647.024-.974.024-12.226 0-22.17-9.324-22.17-20.792 0-5.323 2.145-10.182 5.665-13.864 2.916 2.14 6.338 5.194 8.884 9.115 2.246 3.457 3.351 6.279 4.076 8.783a13.192 13.192 0 0 1 4.248-.321c-.657-2.81-2.074-6.648-5.1-11.053-2.595-3.778-6.268-6.805-9.388-8.932.432-.323.879-.63 1.336-.923 3.465 2.664 7.792 6.754 10.652 12.18 2.005 3.802 2.5 6.457 2.984 8.779.175.022.343.046.504.072-.805-2.6-1.236-5.473-3.065-9.59-2.316-5.214-6.45-9.43-9.773-12.213.407-.223.821-.435 1.244-.633 2.617 2.428 5.84 5.933 8.166 10.182 2.608 4.762 2.315 8.465 4.058 12.373.287.062.545.128.77.192-2.138-3.664-2.211-7.347-3.557-11.374-1.35-4.04-4.697-8.293-7.472-11.338a32.16 32.16 0 0 0-.96.159l-.013-.014v-.016c.238-.13.49-.253.75-.372a67.617 67.617 0 0 0-.36-.389c.41-.161.826-.311 1.249-.45l.302.358c.388-.14.79-.269 1.2-.387-.09-.115-.18-.227-.268-.337a23.424 23.424 0 0 1 6.038-.787c12.225 0 22.173 9.331 22.173 20.8 0 4.361-1.44 8.41-3.895 11.755-2.692-1.268-6.393-3.215-9.977-5.768zm-20.205.721c.358 1.932-.09 3.252-.646 4.103a15.64 15.64 0 0 0-.476-2.487c-.18-.647-.474-1.307-.812-1.934-1.016-1.889-2.443-3.486-2.443-3.486s.171.356.41.867c-.264-.344-.44-.52-.44-.52s.348.597.882 1.81c.13.299.264.595.397.904.404.946.807 2 1.163 3.526.31 1.322.232 2.124.141 2.523a3.294 3.294 0 0 1-.118.071s-3.843-1.616-4.65-4.99c-.047-.197-.091-.39-.13-.579-.017-.074-.03-.147-.045-.22a24.003 24.003 0 0 1-.068-.338l-.048-.26-.046-.27-.046-.285c-.01-.075-.023-.148-.033-.222-.016-.102-.028-.202-.042-.301-.008-.06-.016-.119-.022-.177a18.613 18.613 0 0 1-.038-.32c-.004-.043-.01-.085-.015-.128a21.2 21.2 0 0 1-.04-.418c-.01-.12-.021-.24-.029-.354l-.001-.012v-.016c-.064-.868-.07-1.565-.076-2.06-.004-.21-.006-.386-.014-.52-.067-1.194-.67-2.054-.67-2.054s5.196 1.028 7.264 5.912c.083.196.157.387.226.573l.045.129c.051.148.103.293.146.435.011.035.02.07.031.103.045.154.088.305.124.453.006.018.008.036.014.053a9.755 9.755 0 0 1 .105.49zm15.185-2.013s-1.025.369-1.823 1.302c-.088.105-.202.247-.334.415-.313.398-.751.96-1.343 1.633a.112.112 0 0 1-.011.012l-.007.009c-.078.09-.161.18-.244.271-.02.02-.038.042-.057.062-.076.084-.155.17-.237.257-.03.03-.06.064-.09.097l-.23.238a26.58 26.58 0 0 1-.352.352c-.051.055-.107.108-.163.163l-.214.206a36.45 36.45 0 0 0-.206.194c-.068.062-.134.124-.2.187l-.265.235a35.753 35.753 0 0 1-.64.554c-2.753 2.298-6.88 1.507-6.88 1.507s-.021-.043-.048-.116a.013.013 0 0 1-.003-.007c.174-.373.609-1.065 1.683-1.971a22.175 22.175 0 0 1 3.138-2.226c.3-.179.591-.348.884-.518 1.19-.694 1.844-.988 1.844-.988s-.254.047-.683.181c.513-.284.873-.479.873-.479s-2.153.516-4.153 1.494c-.664.326-1.314.7-1.86 1.127-.77.597-1.417 1.21-1.937 1.76.079-.996.537-2.314 2.03-3.687v-.002c.122-.112.252-.224.388-.337l.045-.037c.121-.1.248-.199.381-.298.032-.022.06-.044.09-.068.125-.09.255-.18.39-.273.04-.027.074-.054.115-.08.173-.113.351-.228.54-.342 4.72-2.835 9.58-.827 9.58-.827zM28.775 3.421c-2.108 0-4.15.267-6.092.759a22.753 22.753 0 0 1 7.613-1.301c11.532 0 20.95 8.5 21.52 19.185-1.654-10.546-11.339-18.643-23.04-18.643zM49.49 21.623c0 .96-.089 1.902-.25 2.82.091-.689.143-1.389.143-2.1 0-6.09-3.453-11.431-8.646-14.439l.171-.8c5.153 3.027 8.582 8.396 8.582 14.52zM38.066 5.743c.43.164.852.344 1.267.537l-.328.738a20.572 20.572 0 0 0-.991-.41l.052-.865zm-2.916-.845c.404.083.804.183 1.2.29l-.228.808c-.43-.116-.864-.22-1.306-.307l.334-.791z" fill="#000" fill-rule="evenodd"/></svg>