<svg width="356" height="354" viewBox="0 0 356 354" xmlns="http://www.w3.org/2000/svg"><title>Imported Layers</title><g fill="none" fill-rule="evenodd"><path d="M355.455 313.309c0 22-18 40-40 40H40.573c-22 0-40-18-40-40V40.297c0-22 18-40 40-40h274.882c22 0 40 18 40 40v273.012" fill="#2E337D"/><path d="M73.717 203.631c-14.717 0-26.693 11.975-26.693 26.693 0 14.722 11.976 26.696 26.693 26.696 14.72 0 26.695-11.974 26.695-26.696 0-14.718-11.975-26.693-26.695-26.693zm.002 44.196c-9.653 0-17.504-7.852-17.504-17.505 0-9.65 7.851-17.498 17.504-17.498 9.65 0 17.5 7.848 17.5 17.498 0 9.653-7.85 17.505-17.5 17.505zm0-30.448c-7.141 0-12.949 5.806-12.949 12.945s5.808 12.946 12.949 12.946c7.139 0 12.945-5.807 12.945-12.946 0-7.139-5.806-12.945-12.945-12.945zm0 21.336c-4.63 0-8.395-3.763-8.395-8.391 0-4.627 3.765-8.391 8.395-8.391 4.627 0 8.39 3.764 8.39 8.391 0 4.628-3.763 8.391-8.39 8.391zm180.4-35.084c-14.719 0-26.692 11.975-26.692 26.693 0 14.722 11.973 26.696 26.692 26.696s26.694-11.974 26.694-26.696c0-14.718-11.975-26.693-26.694-26.693zm.002 44.196c-9.654 0-17.504-7.852-17.504-17.505 0-9.65 7.85-17.498 17.504-17.498 9.649 0 17.501 7.848 17.501 17.498 0 9.653-7.852 17.505-17.501 17.505zm.001-30.448c-7.141 0-12.951 5.806-12.951 12.945s5.81 12.946 12.951 12.946c7.138 0 12.945-5.807 12.945-12.946 0-7.139-5.807-12.945-12.945-12.945zm.001 21.336c-4.63 0-8.397-3.763-8.397-8.391 0-4.627 3.767-8.391 8.397-8.391 4.624 0 8.388 3.764 8.388 8.391 0 4.628-3.764 8.391-8.388 8.391zm65.148-142.128h-89.755c-25.204 0-46.286 29.941-46.286 29.941-13.345.688-39.909-.094-52.192 6.694 0 0-22.248 14.428-38.145 41.527-11.893 2.758-69.524 10.329-69.524 29.482v27.071c0 6.28 5.109 11.389 11.388 11.389h10.167a31.215 31.215 0 0 1-1.563-4.553 31.366 31.366 0 0 1-.984-7.811c0-17.281 14.059-31.341 31.339-31.341 17.283 0 31.343 14.06 31.343 31.341 0 2.694-.343 5.311-.988 7.811a30.86 30.86 0 0 1-1.562 4.553h122.818a31.215 31.215 0 0 1-1.563-4.553 31.366 31.366 0 0 1-.984-7.811c0-17.281 14.06-31.341 31.339-31.341 17.281 0 31.341 14.06 31.341 31.341 0 2.496-.302 4.918-.856 7.246a31.063 31.063 0 0 1-1.5 4.662c18.327-1.113 47.554-4.94 47.554-17.998V107.976c0-6.277-5.108-11.389-11.387-11.389zM39.359 214.076a4.098 4.098 0 0 1-4.098 4.098H27.91v-11.815h7.351a4.097 4.097 0 0 1 4.098 4.098v3.619zm143.871-44.518c-31.279 13.84-84.469 13.181-84.469 13.181l1.986-3.371c13.614-23.211 32.758-36.79 34.997-38.332 8.243-4.301 27.526-4.809 39.078-5.111l.195-.004c2.97-.081 5.769-.155 8.213-.273v33.91zm79.803 16.887V160.65h-25.795v-22.992h25.795v-25.795h22.992v25.795h25.795v22.992h-25.795v25.795h-22.992zm60.162 31.729h-5.907a4.097 4.097 0 0 1-4.097-4.098v-3.619a4.097 4.097 0 0 1 4.097-4.098h5.907v11.815z" fill="#FFF"/></g></svg>