<svg width="355" height="354" viewBox="0 0 355 354" xmlns="http://www.w3.org/2000/svg"><title>Imported Layers</title><g fill="none" fill-rule="evenodd"><path d="M354.915 313.309c0 22-18 40-40 40H40.033c-22 0-40-18-40-40V40.297c0-22 18-40 40-40h274.882c22 0 40 18 40 40v273.012" fill="#2E337D"/><path d="M230.229 228.054c-.945-5.182 1.364-11.674 6.025-16.942.191-.196.435-.476.684-.764l.149-.168c2.295-2.376 4.982-4.32 7.782-5.618 1.845-.856 3.647-1.401 5.352-1.625a13.337 13.337 0 0 1 1.728-.118c5.837 0 7.496 4.297 7.961 6.856 1.522 8.342-5.18 19.1-14.638 23.486-1.842.855-3.646 1.403-5.361 1.627-.592.079-1.173.118-1.724.118-5.835 0-7.494-4.293-7.958-6.852zm-13.754 1.796c-.52-2.847-2.157-6.328-7.006-6.778a13.726 13.726 0 0 1-.809-.06l-.129-.012c-.009 0-.02 0-.033-.002h-.034c-.525 0-1.091.041-1.68.117-1.708.222-3.506.764-5.344 1.618-9.455 4.395-16.158 15.151-14.637 23.49.354 1.918 1.307 4.496 3.882 5.889 1.172.632 2.571.957 4.162.957.534 0 1.095-.037 1.654-.111 1.708-.223 3.505-.77 5.343-1.623 9.454-4.389 16.153-15.144 14.631-23.485zm7.508-50.591c-.533 0-1.09.037-1.651.11-1.71.224-3.503.77-5.331 1.62-9.451 4.387-16.148 15.143-14.627 23.484.521 2.867 2.181 6.373 7.099 6.783l.101.007c.268.013.532.032.795.057h.031c.529 0 1.092-.037 1.659-.111 1.704-.221 3.504-.769 5.346-1.625 2.814-1.303 5.513-3.257 7.811-5.641l.073-.083c.278-.321.561-.643.788-.882 4.624-5.259 6.915-11.726 5.973-16.879-.367-2.013-1.393-4.693-4.175-6.035-1.113-.534-2.423-.805-3.892-.805zm106.152 56.557l-134.287 49.125h-29.865l-127.351-72.57v-10.194l51.961-14.01c2.702-6.808 8.453-13.174 15.731-16.554 3.374-1.567 5.332-2.207 5.309-2.165 0 0-5.233-2.285-7.29-9.312L54.299 136.7v61.252l-7.458 2.011v-66.756l-22.027-10.315v-8.554l28.801-22.323 16.44 3.656 26.384-15.328 18.327 3.653 22.748-15.331 26.148 5.22 145.618 55.832v9.74l-8.911-1.779-20.868-4.166-20.874 18.664 41.742-14.498v5.27l-78.672 27.325 9.622 4.66-.01.016c3.915 1.882 6.73 5.386 7.619 10.251a18.36 18.36 0 0 1 .276 3.534l54.319 25.548v-68.955l6.846-2.379v74.554l9.179 4.317v5.335l20.587 8.662zm-96.71-26.495c-5.209 5.89-7.772 13.245-6.687 19.191 1.212 6.638 6.466 10.178 13.713 9.23 2.125-.278 4.32-.937 6.525-1.96 10.819-5.021 18.181-16.937 16.425-26.561-1.212-6.643-6.466-10.182-13.716-9.237-2.122.279-4.316.938-6.515 1.959-3.216 1.494-6.284 3.708-8.871 6.398l-.209.24c-.218.252-.436.498-.665.74zm-50.895-.742v19.814c3.514-4.698 8.297-8.745 13.913-11.354a33.545 33.545 0 0 1 1.537-.668l-15.45-7.792zm21.016 47.375c10.813-5.019 18.181-16.935 16.421-26.56-.991-5.435-4.701-8.817-10.186-9.301-.261-.01-.516-.029-.773-.053l-.204-.018c-.047-.003-.09-.004-.136-.009a16.979 16.979 0 0 0-2.418.148c-2.12.275-4.314.934-6.512 1.954-10.816 5.023-18.182 16.94-16.426 26.564.662 3.623 2.552 6.373 5.466 7.95 2.296 1.244 5.152 1.683 8.265 1.28 2.117-.275 4.307-.936 6.503-1.955zm26.073-78.487c-2.22-1.066-4.925-1.429-7.827-1.052-2.115.277-4.302.935-6.491 1.952-10.809 5.023-18.177 16.938-16.421 26.562.996 5.453 4.736 8.842 10.26 9.302l.164.012c.262.012.524.033.782.056l.102.008c.783.011 1.593-.04 2.41-.144 2.119-.275 4.309-.939 6.511-1.96 3.216-1.493 6.282-3.705 8.873-6.399l.158-.181c.252-.291.506-.58.772-.863 5.17-5.877 7.712-13.194 6.63-19.118-.696-3.82-2.743-6.645-5.923-8.175zm29.007-25.291l-21.316-4.592-21.812 19.572 43.128-14.98zM127.119 82.477l130.192 52.942 10.718-9.585L138.531 75.49l-11.412 6.987zM83.59 94.943L212 149.854l14.453-9.667L97.39 87.224l-13.8 7.719zm22.47 50.173l59.045 27.111 16.139-17.689L52.843 99.511l-16.368 13.655 69.585 31.95zm7.184 21.776l.097.047.046.021 33.553 16.925a21.699 21.699 0 0 1-.605-2.51c-.101-.551-.154-1.112-.209-1.672l-37.346-17.489c1.808 3.386 4.319 4.612 4.464 4.678zm-20.683 32.164c.642 3.514 2.506 6.126 5.386 7.553l.069.041.068.039 32.745 18.035c-2.091-11.938 6.586-26.059 19.82-32.206.003-.003.013-.006.022-.011l-39.309-19.825c-.803.318-1.951.802-3.387 1.469-5.714 2.653-10.461 7.532-13.178 12.882-2.025 3.988-2.927 8.236-2.236 12.023zm82.598 5.805l-17.549-8.851c-.851.335-2.09.853-3.667 1.585-10.747 4.991-18.07 16.83-16.324 26.389.465 2.543 1.543 4.644 3.21 6.246l34.33 18.906v-44.275zm0-18.424l7.371-2.559v17.956l9.783 4.933a18.474 18.474 0 0 1-.202-.954c-2.045-11.21 5.4-24.366 17.223-31.128l-.145-.068-34.03 11.82v-5.271l36.188-12.568-9.811-4.752-5.506-1.343-20.871 18.663v-.004l-8.907 7.966-12.37-5.793c1.684 4.555 4.761 6.431 5.394 6.77l.363.185 15.52 7.827v-11.68z" fill="#FFF"/></g></svg>