<svg width="356" height="354" viewBox="0 0 356 354" xmlns="http://www.w3.org/2000/svg"><title>Imported Layers</title><path d="M355.735 313.309c0 22-18 40-40 40H40.853c-22 0-40-18-40-40V40.297c0-22 18-40 40-40h274.882c22 0 40 18 40 40v273.012" fill="#2E337D"/><path d="M225.807 130.791H65.053a7.004 7.004 0 0 1-7.003-7.005v188.56h174.764v-188.56a7.005 7.005 0 0 1-7.007 7.005zm-79.993 147.13c-33.396 0-60.563-27.167-60.563-60.561 0-33.393 27.167-60.563 60.563-60.563 33.394 0 60.561 27.17 60.561 60.563 0 33.394-27.167 60.561-60.561 60.561zm0-103.618c-23.778 0-43.055 19.277-43.055 43.057 0 23.778 19.277 43.05 43.055 43.05 23.776 0 43.052-19.272 43.052-43.05 0-23.78-19.276-43.057-43.052-43.057zm-.003 73.287c-16.669 0-30.232-13.559-30.232-30.23 0-16.672 13.563-30.237 30.232-30.237 16.672 0 30.235 13.565 30.235 30.237 0 16.671-13.563 30.23-30.235 30.23zM72.148 85.606v38.182h60.865V85.61l-60.865-.004zm48.156 21.712H84.857v-8.175l35.447.004v8.171zm94.585-4.917c0-7.582-6.144-13.726-13.726-13.726-7.582 0-13.727 6.144-13.727 13.726 0 7.582 6.145 13.727 13.727 13.727 7.582 0 13.726-6.145 13.726-13.727zm-20.45 0a6.732 6.732 0 0 1 6.724-6.724 6.732 6.732 0 0 1 6.724 6.724 6.732 6.732 0 0 1-6.724 6.724 6.731 6.731 0 0 1-6.724-6.724zm-9.499.624c0-7.58-6.145-13.726-13.727-13.726-7.582 0-13.726 6.146-13.726 13.726 0 7.582 6.144 13.727 13.726 13.727 7.582 0 13.727-6.145 13.727-13.727zm-20.451 0a6.732 6.732 0 0 1 6.724-6.723 6.73 6.73 0 0 1 6.724 6.723 6.731 6.731 0 0 1-6.724 6.724 6.732 6.732 0 0 1-6.724-6.724zM298.537 41.26v207.276l-57.833 63.811V78.604l-182.654.003 81.505-37.345 158.982-.002z" fill="#FFF"/></svg>