<svg width="356" height="354" viewBox="0 0 356 354" xmlns="http://www.w3.org/2000/svg"><title>Artboard</title><path d="M238.993 155.325l-95.247 39.543-.035.035a72.838 72.838 0 0 0-2.52-4.042c-.2-.265-.401-.53-.596-.824-.962-1.361-1.96-2.716-3.022-4.012-.195-.265-.366-.525-.596-.76a67.465 67.465 0 0 0-3.547-4.006c-.336-.33-.631-.666-.962-1.025-1.227-1.226-2.49-2.451-3.818-3.612-.33-.3-.697-.595-1.062-.895a66.21 66.21 0 0 0-4.179-3.376c-.23-.2-.496-.365-.732-.53a116.823 116.823 0 0 0-4.243-2.881c-.3-.165-.531-.33-.832-.5a62.358 62.358 0 0 0-4.845-2.717c-.33-.194-.697-.36-1.027-.524a88.436 88.436 0 0 0-5.14-2.357c-.266-.094-.567-.194-.833-.33a78.394 78.394 0 0 0-11.838-3.605c-.1 0-.171-.035-.266-.07-.035 0-.07 0-.1-.03-.036 0-.1 0-.136-.035-.03 0-.065-.036-.13-.036-.035 0-.065 0-.1-.03l3.547-26.227c.035.03.035.03.07.03.03.034.03.034.066.034.029.036.064.036.1.036 0 0 .03.03.065.03 6.073 2.85 12.836 4.406 19.97 4.406 23.49 0 42.965-17.055 46.842-39.413l76.834 20.997c-2.485 6.527-3.878 13.544-3.878 20.932 0 5.496.797 10.763 2.19 15.794zm-156.724-33.38c0 .035 0 .035.035.035 0 .03.036.03.036.03v.035h.03c0 .035.035.035.035.035v.03h.03c0 .035.035.035.035.035v.03h.035v.035h.03v.035h.035v.03h.035c0 .035.03.035.03.035v.036h.035v.03c0 .034 0 .034.036.034 0 .03 0 .03.03.03 0 .035 0 .035.034.035 0 .036 0 .036.03.036 0 .029 0 .029.035.029 0 .035 0 .035.036.035 0 .036 0 .036.03.036 0 .03.035.03.035.03 0 .035.03.035.03.035 0 .029.035.029.035.029v.035h.035v.036l.03.03h.035v.034h.035v.03h.03v.035h.035v.036h.03v.03l-17.516 34.97h-.03s0 .035-.035.035h-.2c-.03.036-.03.036-.066.036h-.13l-.035.029h-.1c-.03.035-.065.035-.1.035h-.166l-.03.036h-.135s0 .03-.036.03h-.165s0 .035-.03.035h-.165s0 .029-.035.029h-.1c-.03.035-.065.035-.1.035h-.13c-.036.036-.036.036-.065.036h-.136l-.03.03h-.1c-.035.034-.07.034-.1.034h-.1s-.036.065-.066.036h-.165s0 .03-.035.03h-.136c-.03.035-.065.035-.094.035h-.1l-.036.03c-.035.034-.035.034-.065 0h-.1l-.036.034h-.165l-.03.036h-.17l-.03.03h-.065c-.035.07-.07.1-.165.135l.065-.136c-.797.165-1.594.4-2.39.601-.431.094-.862.195-1.293.295-1.593.43-3.187.86-4.745 1.36-.136.03-.23.095-.366.13C22.326 171.061 0 200.034 0 234.245c0 42.624 34.601 77.164 77.294 77.164 21.464 0 40.875-8.778 54.873-22.917.33-.33.661-.666.992-1.025 1.162-1.225 2.29-2.45 3.352-3.747.501-.595.997-1.154 1.463-1.785.561-.666 1.063-1.39 1.594-2.085a52.206 52.206 0 0 0 1.522-2.157c.467-.63.898-1.29 1.293-1.92.862-1.29 1.658-2.645 2.426-4.006.265-.495.56-1.06.826-1.59a45.57 45.57 0 0 0 1.593-3.176c.266-.53.496-1.06.732-1.591a74.103 74.103 0 0 0 1.953-4.772c.166-.43.301-.86.431-1.255.266-.766.531-1.49.767-2.256.331-1.09.661-2.215.927-3.34.035-.071.065-.165.1-.266 1.594-6.162 2.42-12.619 2.42-19.276v-.065c0-1.69-.1-3.41-.23-5.066l.035-.036 91.63-57.923c10.516 16.696 29.094 27.819 50.358 27.819 20.632 0 38.78-10.498 49.461-26.393.036-.036.036-.065.036-.065a59.028 59.028 0 0 0 10.02-32.985c0-32.82-26.64-59.444-59.517-59.444-.266 0-.567.03-.832.03-1.523.035-3.051.1-4.545.235-.796.065-1.558.195-2.319.295-.997.135-1.995.265-2.957.43a86.01 86.01 0 0 0-2.62.53 64.6 64.6 0 0 0-2.485.666c-.861.23-1.758.46-2.62.725-.07.035-.136.035-.165.07-10.682 3.476-20.007 9.904-27.077 18.281l-86.353-15.47c-.761-10.063-4.609-19.271-10.682-26.588a28.692 28.692 0 0 0-1.687-1.92 31.186 31.186 0 0 0-1.795-1.856C141.657 47.137 129.913 42 117.006 42c-1.558 0-3.087.1-4.58.236-.33.03-.631.064-.926.094-1.163.135-2.255.336-3.352.53-.467.07-.927.165-1.393.265-.998.236-1.96.501-2.922.766-.43.13-.897.23-1.327.36-.095.035-.23.1-.33.135-19.01 6.227-32.743 24.042-32.743 45.104 0 12.319 4.71 23.547 12.405 31.995v.03h.035l.036.035c0 .03.03.03.03.03 0 .035.035.035.035.035 0 .035.03.035.03.035v.03h.035v.035h.035v.03h.03v.035c0 .035.035.035.035.035h.035v.03c0 .035 0 .035.03.035 0 .03 0 .03.035.03l.03.035zm154.6 114.22h-.036c-7.295 0-13.202 5.898-13.202 13.28 0 7.517 5.907 13.35 13.202 13.35 7.336 0 13.137-5.833 13.137-13.35 0-7.382-5.801-13.28-13.102-13.28zm0 24.573c-5.908 0-10.718-4.966-10.718-11.293 0-6.192 4.81-11.223 10.682-11.223h.035c5.937 0 10.647 5.03 10.647 11.293 0 6.257-4.71 11.288-10.647 11.223zm2.39-10.793v-.135c1.587-.466 2.885-1.656 2.885-3.611 0-1.42-.466-2.416-1.363-3.076-.897-.63-2.355-1.125-4.61-1.125-1.793 0-2.95.194-4.213.36v14.84h2.355v-6.392h1.694c1.888 0 2.82.724 3.18 2.615.302 1.956.632 3.311.998 3.777h2.485c-.23-.466-.597-1.361-.957-3.677-.265-2.185-1.162-3.346-2.455-3.576zm-3.223-.96h-1.723v-5.037c.43-.03.962-.1 1.723-.1 2.656 0 3.618 1.296 3.618 2.586 0 1.82-1.659 2.551-3.618 2.551z" fill="#000" fill-rule="evenodd"/></svg>