<svg xmlns="http://www.w3.org/2000/svg" xmlns:xlink="http://www.w3.org/1999/xlink" viewBox="0 0 680.2 119.5"><circle fill="#FFC72C" cx="51.8" cy="21.1" r="21.1"/><defs><path id="a" d="M45.3 1c-3.8 3.8-6.1 9-6.1 14.8 0 11.6 9.4 21.1 21.1 21.1 2.3 0 4.5-.4 6.5-1 3.8-3.8 6.1-9 6.1-14.8C72.9 9.4 63.4 0 51.8 0c-2.3 0-4.5.4-6.5 1"/></defs><clipPath id="b"><use xlink:href="#a" overflow="visible"/></clipPath><radialGradient id="c" cx="72.915" cy="1011.382" r="1.469" gradientTransform="translate(-821.449 -12152.499) scale(12.034)" gradientUnits="userSpaceOnUse"><stop offset="0" stop-color="#fff"/><stop offset=".126" stop-color="#fff"/><stop offset=".232" stop-color="#fff6dc"/><stop offset=".434" stop-color="#ffe59e"/><stop offset=".62" stop-color="#ffd86d"/><stop offset=".782" stop-color="#ffcf49"/><stop offset=".914" stop-color="#ffc934"/><stop offset="1" stop-color="#ffc72c"/></radialGradient><path clip-path="url(#b)" fill="url(#c)" d="M39.2 0h33.7v36.9H39.2z"/><defs><path id="d" d="M62.3 20.2c0 .9.6 1.7 1.4 2.1h.2c.1 0 .1 0 .2.1l44 12 4.2-7.8L65 18.1h-.4c-1.4-.1-2.3.9-2.3 2.1"/></defs><clipPath id="e"><use xlink:href="#d" overflow="visible"/></clipPath><linearGradient id="f" gradientUnits="userSpaceOnUse" x1="108.572" y1="1009.029" x2="110.041" y2="1009.029" gradientTransform="matrix(-1.3975 5.9711 -5.9711 -1.3975 6265.056 783.35)"><stop offset="0" stop-color="#f5f5f5"/><stop offset=".264" stop-color="#b5b5b5"/><stop offset=".386" stop-color="#949394"/><stop offset=".588" stop-color="#646162"/><stop offset=".765" stop-color="#403d3e"/><stop offset=".908" stop-color="#2b2728"/><stop offset="1" stop-color="#231f20"/></linearGradient><path clip-path="url(#e)" fill="url(#f)" d="M64.8 6.9l-6.2 26.6 51 12 6.2-26.7z"/><circle fill="#862633" cx="131.2" cy="43.3" r="26.4"/><defs><path id="g" d="M123 18.2c-4.7 4.8-7.6 11.3-7.6 18.5 0 14.6 11.8 26.4 26.4 26.4 2.9 0 5.6-.5 8.2-1.3 4.7-4.8 7.6-11.3 7.6-18.5 0-14.6-11.8-26.4-26.4-26.4-2.9 0-5.6.5-8.2 1.3"/></defs><clipPath id="h"><use xlink:href="#g" overflow="visible"/></clipPath><radialGradient id="i" cx="77.338" cy="1007.709" r="1.469" gradientTransform="translate(-1246.396 -18050.455) scale(17.9488)" gradientUnits="userSpaceOnUse"><stop offset="0" stop-color="#f2f2f2"/><stop offset=".126" stop-color="#f2f2f2"/><stop offset=".199" stop-color="#e6dbdc"/><stop offset=".412" stop-color="#c49ba1"/><stop offset=".607" stop-color="#a96971"/><stop offset=".776" stop-color="#96444f"/><stop offset=".912" stop-color="#8a2e3b"/><stop offset="1" stop-color="#862633"/></radialGradient><path clip-path="url(#h)" fill="url(#i)" d="M115.4 16.9h42.2v46.2h-42.2z"/><g><defs><path id="j" d="M114.8 46.6L62.3 68.4 67 83.9l50.6-32.1c.8-.5 1.3-1.4 1.3-2.5 0-1.6-1.3-3-3-3-.4 0-.8.1-1.1.3"/></defs><clipPath id="k"><use xlink:href="#j" overflow="visible"/></clipPath><linearGradient id="l" gradientUnits="userSpaceOnUse" x1="90.504" y1="984.015" x2="91.973" y2="984.015" gradientTransform="matrix(4.9731 9.2607 9.2607 -4.9731 -9477.12 4111.318)"><stop offset="0" stop-color="#f5f5f5"/><stop offset=".236" stop-color="#b5b5b5"/><stop offset=".363" stop-color="#949394"/><stop offset=".572" stop-color="#646162"/><stop offset=".756" stop-color="#403d3e"/><stop offset=".905" stop-color="#2b2728"/><stop offset="1" stop-color="#231f20"/></linearGradient><path clip-path="url(#k)" fill="url(#l)" d="M106.3 22.7l28.3 52.8-59.6 32-28.4-52.8z"/></g><g><defs><path id="m" d="M27.5 52.5L41 53.7l3.5-27.4c.2-1.1-1.9-2.4-2.8-.6L27.5 52.5z"/></defs><clipPath id="n"><use xlink:href="#m" overflow="visible"/></clipPath><linearGradient id="o" gradientUnits="userSpaceOnUse" x1="15.501" y1="29.201" x2="59.135" y2="32.129" gradientTransform="rotate(16.158 4.926 39.08)"><stop offset=".374"/><stop offset=".472" stop-color="#f5f5f5"/><stop offset=".553" stop-color="#b5b5b5"/><stop offset=".587" stop-color="#949394"/><stop offset=".641" stop-color="#646162"/><stop offset=".69" stop-color="#403d3e"/><stop offset=".729" stop-color="#2b2728"/><stop offset=".753" stop-color="#231f20"/></linearGradient><path clip-path="url(#n)" fill="url(#o)" d="M52.4 65.6L12.9 54.1l11.5-39.6 39.4 11.4z"/></g><g><circle fill="#001E62" cx="34.2" cy="85.3" r="34.2"/><defs><path id="p" d="M23.6 52.8c-6.1 6.2-9.9 14.7-9.9 24.1C13.7 95.7 29 111 47.9 111c3.7 0 7.3-.6 10.6-1.7 6.1-6.2 9.9-14.7 9.9-24.1C68.4 66.3 53.1 51 34.2 51c-3.7.1-7.3.7-10.6 1.8"/></defs><clipPath id="q"><use xlink:href="#p" overflow="visible"/></clipPath><radialGradient id="r" cx="77.045" cy="1006.316" r="1.469" gradientTransform="translate(-1745.59 -23348.287) scale(23.278)" gradientUnits="userSpaceOnUse"><stop offset="0" stop-color="#ededed"/><stop offset=".126" stop-color="#ededed"/><stop offset=".28" stop-color="#b5bccc"/><stop offset=".472" stop-color="#7584a7"/><stop offset=".646" stop-color="#435889"/><stop offset=".798" stop-color="#1e3874"/><stop offset=".921" stop-color="#082567"/><stop offset="1" stop-color="#001e62"/></radialGradient><path clip-path="url(#q)" fill="url(#r)" d="M13.7 51.1h54.8v60H13.7z"/></g><path fill="#231F20" d="M104.9 86.1c3.2 0 5.8 2.6 5.8 5.9 0 3.3-2.6 5.9-5.8 5.9-3.2 0-5.8-2.6-5.8-5.9-.1-3.3 2.5-5.9 5.8-5.9zm0 .9c-2.6 0-4.7 2.2-4.7 5s2.1 5 4.7 5 4.7-2.2 4.7-5c0-2.7-2.1-5-4.7-5zm-1.1 8.5h-1v-6.6c.6-.1 1.1-.2 1.9-.2 1 0 1.7.2 2 .5.4.3.6.7.6 1.4 0 .9-.6 1.4-1.3 1.6v.1c.6.1 1 .6 1.1 1.6.2 1 .3 1.4.4 1.6h-1.1c-.2-.2-.3-.8-.4-1.7-.2-.8-.6-1.2-1.4-1.2h-.7v2.9zm0-3.7h.8c.9 0 1.6-.3 1.6-1.1 0-.6-.4-1.2-1.6-1.2-.3 0-.6 0-.8.1v2.2z"/><path fill="#001E62" d="M191.8 76.7h488.3v2.7H191.8zM408 58.6l-3.3 5.8H401l15.2-25.8h4.2l15.3 25.8h-3.6l-3.4-5.8H408zm10.3-17.7L409.4 56h17.9l-9-15.1zm50.4-2.3h-3.1v18.2c0 2.3-.5 3.8-1.6 4.3s-2.7.7-4.8.8l-6 .1h-5.5c-2-.1-3.6-.3-4.6-.8-1-.5-1.6-1.8-1.6-4.1V38.6h-3.1v18.8c0 2.6.6 4.4 1.8 5.4 1.2 1.1 3 1.6 5.6 1.7 1.2.1 2.5.1 3.7.1h9.1c3.5-.1 6.1-.5 7.8-1.2 1.6-.7 2.5-3 2.5-7V38.6m34.9 7.1c0-2.2-.5-3.9-1.5-5s-2.6-1.8-4.9-2c-.6-.1-1.2-.1-1.9-.2-.7 0-1.3-.1-1.9-.1-.6 0-1.3 0-1.9-.1h-4.3c-.9 0-1.8.1-2.7.1-1.1.1-2.1.2-3.1.3-1 .2-1.8.4-2.6.6-1.6.6-2.6 1.5-3.2 2.8-.5 1.2-.8 2.7-.8 4.2 0 2.3.7 3.9 2.1 4.7 1.4.8 3.2 1.3 5.5 1.4.9.1 1.8.1 2.7.1h4.2l5.9.1c1.8 0 3.2.3 4.2.7 1 .4 1.5 1.6 1.5 3.6 0 1.5-.3 2.6-1 3.2-.7.6-1.8 1-3.2 1.2l-2.4.3c-.8.1-1.6.1-2.5.1h-4.4c-.8 0-1.6 0-2.3-.1-.9 0-1.7-.1-2.5-.2s-1.5-.2-2.2-.4c-1.1-.3-1.8-.9-2-1.6-.2-.7-.3-1.6-.3-2.6v.2-.6h-3.1c0 2.7.4 4.5 1.2 5.7.8 1.1 2.6 1.8 5.3 2.2.6.1 1.3.1 2 .2.6 0 1.3.1 2 .1.6 0 1.3 0 2 .1h5.7c.6 0 1.2 0 1.8-.1 1.1-.1 2.2-.1 3.3-.3 1.1-.1 2-.4 2.8-.8 1.4-.6 2.3-1.5 2.8-2.6.4-1.1.6-2.4.6-3.8 0-2.4-.5-4.2-1.6-5.1-1.1-1-2.8-1.6-5.1-1.8-.4-.1-.9-.1-1.3-.1-.5 0-.9-.1-1.3-.1H484.6c-.2 0-.5 0-.7-.1-1.5-.1-2.7-.3-3.6-.8-1-.5-1.4-1.6-1.4-3.3v-.4c.1-.6.2-1.2.4-1.8.2-.6.6-1 1.3-1.3.6-.3 1.3-.5 2.2-.6l2.7-.3c.9-.1 1.7-.1 2.5-.2.8 0 1.5 0 2.1-.1h2.8c.6 0 1.2 0 1.9.1 1 .1 1.9.1 2.8.3.9.1 1.6.3 2.1.6.5.2.9.6 1.1 1.1.2.5.4 1 .4 1.5 0 .2 0 .4.1.6v.5h2.5m19.1-4.6H536v-2.6h-29.2v2.6h13v23.2h3.1V41.2zm37.4-2.6c2.9 0 5.1.5 6.6 1.5s2.2 3 2.2 6.2c0 2.3-.3 3.8-1 4.7-.7.9-2.2 1.5-4.5 1.8 1.5.2 2.7.6 3.6 1.1.9.6 1.4 1.7 1.4 3.4v7h-3.1v-5.7c0-2-.4-3.2-1.3-3.8-.9-.6-2.2-.9-4.1-.9h-17.6v10.4h-3.1V38.6h20.9m-.6 12.8c2.2 0 3.7-.3 4.7-1 .9-.7 1.4-2.1 1.4-4.3 0-2.2-.5-3.5-1.6-4s-2.6-.8-4.6-.8h-17.2v10.1h17.3zm19.8 7.2l-3.3 5.8h-3.7l15.2-25.8h4.2l15.3 25.8h-3.6l-3.4-5.8h-20.7zm10.4-17.7L581 56h17.9l-9-15.1zm23.3 20.9V38.6h-3.1v25.8h23.5v-2.6h-20.4zm24.8 2.6h3.1V38.6H638v25.8zm12.9-5.8l-3.3 5.8h-3.7l15.2-25.8h4.2l15.3 25.8H675l-3.4-5.8h-20.7zm10.4-17.7L652.4 56h17.9l-9-15.1z"/><path fill="#862633" d="M214.9 46.6h-.5v-.5c0-1.4-.4-2.2-1.1-2.6-.8-.4-2.3-.7-4.6-.7h-4.4c-.6 0-1.2.1-1.8.2-.6.1-1.1.2-1.5.4-.4.2-.7.4-.8.6-.2.3-.3.6-.4.9v.7c0 1.2.3 1.9.9 2.2.6.4 1.9.7 3.9.8h1.1c.5 0 1 0 1.5.1h1.4c3.8.1 7.2.4 10.1 1.1 3.1.6 4.8 3 4.7 6.6 0 2.3-.5 4.2-1.7 5.7-1.2 1.6-3.8 2.4-7.6 2.7-.6 0-1.2 0-1.8.1-.6 0-1.2 0-1.8.1h-3.6c-4.5 0-8.1-.3-11-1-3-.7-4.6-3.1-4.6-6.8v-.3c0-.1 0-.2.1-.4V55.6h8v.5c0 1.2.2 2.1.7 2.9.3.6 1.4 1.1 3.6 1.1h5.6c2.2 0 3.9-.2 4.8-.6.8-.4 1.3-1.1 1.3-2.6 0-1.6-.5-2.3-1.6-2.5-1.3-.3-3-.5-5-.5h-3c-.2 0-.4 0-.6-.1-4.1-.2-7.4-.6-9.7-1.4-2.5-.8-3.8-3.2-3.8-6.7 0-2.3.7-4.1 2.3-5.4 1.5-1.3 4-1.9 7.4-2.1 1-.1 2-.1 3.1-.1h3.1c4 0 7.5.3 10.5.9 3.1.6 4.9 2.8 4.8 6.3v1.4h-8m22.5 18.2V54.7l-14.5-16.6h9.7l9.1 10.7 9.1-10.7h9.9l-14.9 16.6v10.2h-8.4zm62.4 0l.2-20.3-11.4 20.3h-7.2l-11.6-20.2.3 20.2H262V38.1h12.7L285 56.9l10.2-18.8h13v26.8h-8.4zm14.1 0V38.1h20.3c3.5 0 6.2.5 8.2 1.4 2 1 3.1 2.9 3 5.6 0 1.6-.3 2.9-1 4.1-.5.9-1.4 1.5-2.7 1.9 1.5.4 2.5.9 3.2 1.7 1 1.1 1.4 2.5 1.4 4.3 0 2.7-.8 4.7-2.6 6-1.8 1.3-4.7 1.8-8.9 1.9h-20.9zm17.2-5h.4c2.2 0 3.8-.2 4.9-.5 1-.3 1.4-1.1 1.5-2.7 0-1.5-.4-2.2-1.1-2.5-.8-.4-2.3-.6-4.4-.6h-10.2v6.3h8.9m0-11h.4c2.1 0 3.6-.2 4.4-.5.7-.3 1.1-1 1.2-2.5 0-1.1-.3-1.7-.8-2.1-.5-.3-1.7-.6-3.5-.6h-10.6v5.7h8.9m19.6 16V38.1h8.4v26.8h-8.4zm17-1.8c-2.7-1.4-3.9-4.4-3.9-8.6v-.7c0-.2 0-.5.1-.7v-1.2c0-4.3.7-7.7 2.3-10.2 1.7-2.6 6.3-3.7 13.7-3.7 4.5 0 8.5.4 12 1.2 3.6.8 5.7 3.3 6 7.1.1.6.1 1.2.1 1.7v3.5c0 4.8-.8 8.3-2.4 10.5-1.9 2.3-6.8 3.1-15.2 3.2-6-.1-10.2-.7-12.7-2.1m4.6-11.4v3.4c0 .4 0 .7.1 1.1.2 1.8.9 2.8 2 3.1 1.2.4 3.2.6 5.7.6 3.4 0 5.8-.3 7.1-.8 1.2-.5 2-1.7 2.1-4 .1-1 .1-2.1.1-3.1v-3.1c0-2.3-.4-3.9-1.2-4.6-.6-.7-2.8-1.2-6.5-1.2-4.9 0-7.9.6-8.4 1.3-.7.8-1.1 2.5-1.1 5.1v.4c0 .3-.1.5-.1.8v1z"/><path fill="#001E62" d="M199.3 93.4h-7.7v-1.7H209v1.7h-7.7v13.5h-2.1V93.4zm15 3.8c0-3.8 1.3-5.7 5.4-5.7h8.8c4.1 0 5.4 1.8 5.4 5.7v4.2c0 3.8-1.3 5.7-5.4 5.7h-8.8c-4.1 0-5.4-1.8-5.4-5.7v-4.2zm17.6-.8c0-2.6-1.6-3.2-3.6-3.2H220c-2 0-3.6.6-3.6 3.2v5.7c0 2.6 1.6 3.2 3.6 3.2h8.3c2 0 3.6-.6 3.6-3.2v-5.7zm15-3h-7.7v-1.7h17.4v1.7H249v13.5h-2.1V93.4zm20.9-1.7h2.6l9 15.2h-2.3l-1.9-3.2H263l-1.9 3.2h-2.3l9-15.2zm1.3 1.7L264 102h10.2l-5.1-8.6zm16-1.7h2.1v13.5H299v1.7h-13.9V91.7zm32.9 0h2.1v6.5h13.7v-6.5h2.1v15.2h-2.1v-7h-13.7v7H318V91.7zm32.3 8.8l-8.7-8.8h2.8l7 7.1 7-7.1h2.8l-8.7 8.8v6.4h-2.1v-6.4zm35.2.9c0 4.1-1.3 5.6-5.1 5.6h-8.5c-4.1 0-5.4-1.8-5.4-5.7v-4.2c0-3.8 1.3-5.7 5.4-5.7h7.8c2.7 0 5.6.7 5.6 4.2v.5h-1.9c0-2.8-.9-3-5.9-3h-5.3c-2 0-3.6.6-3.6 3.2v5.7c0 2.6 1.6 3.2 3.6 3.2h8c2.1 0 3.3-.7 3.3-2.8V101h-7.8v-1.7h9.8v2.1zm7.1-9.7h2.1v15.2h-2.1V91.7zm9.5 0H417v1.7h-12.9v4.9h12.4v1.7h-12.4v5.3h13v1.7h-15V91.7zm21.4 0h3.1l13.9 13.4V91.7h2.1v15.2h-3.1l-13.9-13.4v13.4h-2.1V91.7zm26.3 0h14.9v1.7h-12.9v4.9h12.4v1.7h-12.4v5.3h13v1.7h-15V91.7zm34.6 10.4h1.9v1.1c0 1.5.8 2.2 3.4 2.2h6.4c3 0 3.9-.6 3.9-2.8 0-1.9-.8-2.4-3.3-2.4h-3.9c-6.3 0-8.3-.4-8.3-4.4 0-3.5 2.1-4.2 6.3-4.2h4.4c5.1 0 6.4 1.3 6.4 4v.5h-1.9c0-2.4-.3-2.9-5.7-2.9h-2.2c-4 0-5.4.2-5.4 2.7 0 1.8.6 2.4 3.8 2.4h6.1c4 0 5.7 1.2 5.7 3.7v1c0 3.7-3.1 4-6.1 4H490c-3 0-5.6-.5-5.6-3.8v-1.1zm24-4.9c0-3.8 1.3-5.7 5.4-5.7h8.8c4.1 0 5.4 1.8 5.4 5.7v4.2c0 3.8-1.3 5.7-5.4 5.7h-8.8c-4.1 0-5.4-1.8-5.4-5.7v-4.2zm17.6-.8c0-2.6-1.6-3.2-3.6-3.2h-8.3c-2 0-3.6.6-3.6 3.2v5.7c0 2.6 1.6 3.2 3.6 3.2h8.3c2 0 3.6-.6 3.6-3.2v-5.7zm9-4.7h2.1v13.5h11.8v1.7H535V91.7zm19.5 0h2.1V103c0 1.5.5 2.3 3.3 2.3h7.1c2.8 0 3.3-.9 3.3-2.3V91.7h2.1v11.4c0 3.1-1.6 4-5.4 4h-7c-3.9 0-5.4-.9-5.4-4V91.7zm31.2 1.7H578v-1.7h17.4v1.7h-7.7v13.5h-2.1V93.4zm15.6-1.7h2.1v15.2h-2.1V91.7zm9.1 5.5c0-3.8 1.3-5.7 5.4-5.7h8.8c4.1 0 5.4 1.8 5.4 5.7v4.2c0 3.8-1.3 5.7-5.4 5.7h-8.8c-4.1 0-5.4-1.8-5.4-5.7v-4.2zm17.5-.8c0-2.6-1.6-3.2-3.6-3.2H616c-2 0-3.6.6-3.6 3.2v5.7c0 2.6 1.6 3.2 3.6 3.2h8.3c2 0 3.6-.6 3.6-3.2v-5.7zm8.9-4.7h3.1l13.9 13.4V91.7h2.1v15.2h-3.1l-13.9-13.4v13.4h-2.1V91.7zm26 10.4h1.9v1.1c0 1.5.8 2.2 3.4 2.2h6.4c3 0 3.9-.6 3.9-2.8 0-1.9-.8-2.4-3.3-2.4h-3.9c-6.3 0-8.3-.4-8.3-4.4 0-3.5 2.1-4.2 6.3-4.2h4.4c5.1 0 6.4 1.3 6.4 4v.5h-1.9c0-2.4-.3-2.9-5.7-2.9h-2.2c-4 0-5.4.2-5.4 2.7 0 1.8.6 2.4 3.8 2.4h6.1c4 0 5.7 1.2 5.7 3.7v1c0 3.7-3.1 4-6.1 4h-5.7c-3 0-5.6-.5-5.6-3.8v-1.1z"/></svg>