<svg xmlns="http://www.w3.org/2000/svg" viewBox="0 0 488.1 214.9"><circle fill="#FFC72C" cx="217.5" cy="21.2" r="21.1"/><clipPath id="a"><path d="M211 1c-3.8 3.8-6.1 9-6.1 14.8 0 11.6 9.4 21.1 21.1 21.1 2.3 0 4.5-.4 6.5-1 3.8-3.8 6.1-9 6.1-14.8 0-11.7-9.5-21.1-21.1-21.1-2.3 0-4.5.4-6.5 1"/></clipPath><radialGradient id="b" cx="-2359.614" cy="1010.97" r="1.469" gradientTransform="translate(28617.264 -12147.499) scale(12.034)" gradientUnits="userSpaceOnUse"><stop offset="0" stop-color="#fff"/><stop offset=".126" stop-color="#fff"/><stop offset=".232" stop-color="#fff6dc"/><stop offset=".434" stop-color="#ffe59e"/><stop offset=".62" stop-color="#ffd86d"/><stop offset=".782" stop-color="#ffcf49"/><stop offset=".914" stop-color="#ffc934"/><stop offset="1" stop-color="#ffc72c"/></radialGradient><path clip-path="url(#a)" fill="url(#b)" d="M204.9 0h33.7v36.9h-33.7z"/><clipPath id="c"><path d="M228 20.3c0 .9.6 1.7 1.4 2.1h.2c.1 0 .1 0 .2.1l44 12 4.2-7.8-47.3-8.5h-.4c-1.4-.2-2.3.8-2.3 2.1"/></clipPath><linearGradient id="d" gradientUnits="userSpaceOnUse" x1="-2665.512" y1="559.292" x2="-2664.044" y2="559.292" gradientTransform="matrix(-1.3975 5.9711 -5.9711 -1.3975 -131.474 16719.244)"><stop offset="0" stop-color="#f5f5f5"/><stop offset=".264" stop-color="#b5b5b5"/><stop offset=".386" stop-color="#949394"/><stop offset=".588" stop-color="#646162"/><stop offset=".765" stop-color="#403d3e"/><stop offset=".908" stop-color="#2b2728"/><stop offset="1" stop-color="#231f20"/></linearGradient><path clip-path="url(#c)" fill="url(#d)" d="M230.5 6.9l-6.2 26.7 51 12 6.2-26.8z"/><circle fill="#862633" cx="296.9" cy="43.3" r="26.4"/><clipPath id="e"><path d="M288.7 18.3c-4.7 4.8-7.6 11.3-7.6 18.5 0 14.6 11.8 26.4 26.4 26.4 2.9 0 5.6-.5 8.2-1.3 4.7-4.8 7.6-11.3 7.6-18.5 0-14.6-11.8-26.4-26.4-26.4-2.9-.1-5.6.4-8.2 1.3"/></clipPath><radialGradient id="f" cx="-2432.788" cy="1007.434" r="1.469" gradientTransform="translate(43973 -18045.455) scale(17.9488)" gradientUnits="userSpaceOnUse"><stop offset="0" stop-color="#f2f2f2"/><stop offset=".126" stop-color="#f2f2f2"/><stop offset=".199" stop-color="#e6dbdc"/><stop offset=".412" stop-color="#c49ba1"/><stop offset=".607" stop-color="#a96971"/><stop offset=".776" stop-color="#96444f"/><stop offset=".912" stop-color="#8a2e3b"/><stop offset="1" stop-color="#862633"/></radialGradient><path clip-path="url(#e)" fill="url(#f)" d="M281.1 16.9h42.2v46.2h-42.2z"/><g><clipPath id="g"><path d="M280.5 46.6L228 68.4l4.7 15.5 50.6-32.1c.8-.5 1.3-1.4 1.3-2.5 0-1.6-1.3-3-3-3-.4 0-.8.2-1.1.3"/></clipPath><linearGradient id="h" gradientUnits="userSpaceOnUse" x1="-2450.372" y1="1221.738" x2="-2448.903" y2="1221.738" gradientTransform="matrix(4.9731 9.2607 9.2607 -4.9731 1123.111 28823.867)"><stop offset="0" stop-color="#f5f5f5"/><stop offset=".236" stop-color="#b5b5b5"/><stop offset=".363" stop-color="#949394"/><stop offset=".572" stop-color="#646162"/><stop offset=".756" stop-color="#403d3e"/><stop offset=".905" stop-color="#2b2728"/><stop offset="1" stop-color="#231f20"/></linearGradient><path clip-path="url(#g)" fill="url(#h)" d="M272 22.8l28.3 52.8-59.6 32-28.4-52.8z"/></g><g><clipPath id="i"><path d="M193.2 52.6l13.5 1.2 3.5-27.4c.2-1.1-1.9-2.4-2.8-.6l-14.2 26.8z"/></clipPath><linearGradient id="j" gradientUnits="userSpaceOnUse" x1="67.822" y1="-764.157" x2="111.476" y2="-761.228" gradientTransform="rotate(16.158 -2680.686 41.58)"><stop offset=".374"/><stop offset=".472" stop-color="#f5f5f5"/><stop offset=".553" stop-color="#b5b5b5"/><stop offset=".587" stop-color="#949394"/><stop offset=".641" stop-color="#646162"/><stop offset=".69" stop-color="#403d3e"/><stop offset=".729" stop-color="#2b2728"/><stop offset=".753" stop-color="#231f20"/></linearGradient><path clip-path="url(#i)" fill="url(#j)" d="M218.1 65.6l-39.5-11.5 11.5-39.5L229.5 26z"/></g><g><circle fill="#001E62" cx="199.9" cy="85.3" r="34.2"/><clipPath id="k"><path d="M189.3 52.8c-6.1 6.2-9.9 14.7-9.9 24.1 0 18.8 15.3 34.1 34.2 34.1 3.7 0 7.3-.6 10.6-1.7 6.1-6.2 9.9-14.7 9.9-24.1 0-18.9-15.3-34.2-34.2-34.2-3.7.1-7.3.8-10.6 1.8"/></clipPath><radialGradient id="l" cx="-2469.224" cy="1006.104" r="1.469" gradientTransform="translate(57692.113 -23343.287) scale(23.278)" gradientUnits="userSpaceOnUse"><stop offset="0" stop-color="#ededed"/><stop offset=".126" stop-color="#ededed"/><stop offset=".28" stop-color="#b5bccc"/><stop offset=".472" stop-color="#7584a7"/><stop offset=".646" stop-color="#435889"/><stop offset=".798" stop-color="#1e3874"/><stop offset=".921" stop-color="#082567"/><stop offset="1" stop-color="#001e62"/></radialGradient><path clip-path="url(#k)" fill="url(#l)" d="M179.4 51.1h54.8v60h-54.8z"/></g><path fill="#231F20" d="M270.6 86.1c3.2 0 5.8 2.6 5.8 5.9s-2.6 5.9-5.8 5.9c-3.2 0-5.8-2.6-5.8-5.9-.1-3.2 2.5-5.9 5.8-5.9zm0 .9c-2.6 0-4.7 2.2-4.7 5s2.1 5 4.7 5 4.7-2.2 4.7-5c0-2.7-2.1-5-4.7-5zm-1.1 8.6h-1V89c.6-.1 1.1-.2 1.9-.2 1 0 1.7.2 2 .5.4.3.6.7.6 1.4 0 .9-.6 1.4-1.3 1.6v.1c.6.1 1 .6 1.1 1.6.2 1 .3 1.4.4 1.6h-1.1c-.2-.2-.3-.8-.4-1.7-.2-.8-.6-1.2-1.4-1.2h-.7v2.9h-.1zm0-3.8h.8c.9 0 1.6-.3 1.6-1.1 0-.6-.4-1.2-1.6-1.2-.3 0-.6 0-.8.1v2.2z"/><path fill="#001E62" d="M.5 184.8h488.3v2.7H.5zM216.7 166.6l-3.3 5.8h-3.7l15.2-25.8h4.2l15.3 25.8h-3.6l-3.4-5.8h-20.7zM227 149l-8.9 15.1H236l-9-15.1zm50.4-2.4h-3.1v18.2c0 2.3-.5 3.8-1.6 4.3s-2.7.7-4.8.8l-6 .1h-5.5c-2-.1-3.6-.3-4.6-.8s-1.6-1.8-1.6-4.1v-18.5h-3.1v18.8c0 2.6.6 4.4 1.8 5.4 1.2 1.1 3 1.6 5.6 1.7 1.2.1 2.5.1 3.7.1h9.1c3.5-.1 6.1-.5 7.8-1.2 1.6-.7 2.5-3 2.5-7v-17.8m34.9 7.2c0-2.2-.5-3.9-1.5-5s-2.6-1.8-4.9-2c-.6-.1-1.2-.1-1.9-.2-.7 0-1.3-.1-1.9-.1s-1.3 0-1.9-.1h-4.3c-.9 0-1.8.1-2.7.1-1.1.1-2.1.2-3.1.3-1 .2-1.8.4-2.6.6-1.6.6-2.6 1.5-3.2 2.8-.5 1.2-.8 2.7-.8 4.2 0 2.3.7 3.9 2.1 4.7s3.2 1.3 5.5 1.4c.9.1 1.8.1 2.7.1h4.2l5.9.1c1.8 0 3.2.3 4.2.7s1.5 1.6 1.5 3.6c0 1.5-.3 2.6-1 3.2-.7.6-1.8 1-3.2 1.2l-2.4.3c-.8.1-1.6.1-2.5.1h-4.4c-.8 0-1.6 0-2.3-.1-.9 0-1.7-.1-2.5-.2s-1.5-.2-2.2-.4c-1.1-.3-1.8-.9-2-1.6-.2-.7-.3-1.6-.3-2.6v.2-.6h-3.1c0 2.7.4 4.5 1.2 5.7.8 1.1 2.6 1.8 5.3 2.2.6.1 1.3.1 2 .2.6 0 1.3.1 2 .1.6 0 1.3 0 2 .1h5.7c.6 0 1.2 0 1.8-.1 1.1-.1 2.2-.1 3.3-.3 1.1-.1 2-.4 2.8-.8 1.4-.6 2.3-1.5 2.8-2.6.4-1.1.6-2.4.6-3.8 0-2.4-.5-4.2-1.6-5.1-1.1-1-2.8-1.6-5.1-1.8-.4-.1-.9-.1-1.3-.1-.5 0-.9-.1-1.3-.1H293.3c-.2 0-.5 0-.7-.1-1.5-.1-2.7-.3-3.6-.8-1-.5-1.4-1.6-1.4-3.3v-.4c.1-.6.2-1.2.4-1.8.2-.6.6-1 1.3-1.3.6-.3 1.3-.5 2.2-.6l2.7-.3c.9-.1 1.7-.1 2.5-.2.8 0 1.5 0 2.1-.1h2.8c.6 0 1.2 0 1.9.1 1 .1 1.9.1 2.8.3.9.1 1.6.3 2.1.6.5.2.9.6 1.1 1.1s.4 1 .4 1.5c0 .2 0 .4.1.6v.5l2.5-.1m19.1-4.5h13.1v-2.6h-29.2v2.6h13v23.2h3.1v-23.2zm37.4-2.7c2.9 0 5.1.5 6.6 1.5s2.2 3 2.2 6.2c0 2.3-.3 3.8-1 4.7-.7.9-2.2 1.5-4.5 1.8 1.5.2 2.7.6 3.6 1.1.9.6 1.4 1.7 1.4 3.4v7h-3.1v-5.7c0-2-.4-3.2-1.3-3.8-.9-.6-2.2-.9-4.1-.9h-17.6v10.4h-3.1v-25.7H369m-.6 12.9c2.2 0 3.7-.3 4.7-1 .9-.7 1.4-2.1 1.4-4.3s-.5-3.5-1.6-4-2.6-.8-4.6-.8h-17.2v10.1h17.3zm19.8 7.1l-3.3 5.8h-3.7l15.2-25.8h4.2l15.3 25.8h-3.6l-3.4-5.8h-20.7zm10.4-17.6l-8.9 15.1h17.9l-9-15.1zm23.3 20.8v-23.2h-3.1v25.8h23.5v-2.6h-20.4zm24.8 2.7h3.1v-25.8h-3.1v25.8zm12.9-5.9l-3.3 5.8h-3.7l15.2-25.8h4.2l15.3 25.8h-3.6l-3.4-5.8h-20.7zM470 149l-8.9 15.1H479l-9-15.1z"/><path fill="#862633" d="M23.6 154.6h-.5v-.5c0-1.4-.4-2.2-1.1-2.6-.8-.4-2.3-.7-4.6-.7H13c-.6 0-1.2.1-1.8.2-.6.1-1.1.2-1.5.4s-.7.4-.8.6c-.2.3-.3.6-.4.9v.7c0 1.2.3 1.9.9 2.2.6.4 1.9.7 3.9.8h1.1c.5 0 1 0 1.5.1h1.4c3.8.1 7.2.4 10.1 1.1 3.1.6 4.8 3 4.7 6.6 0 2.3-.5 4.2-1.7 5.7-1.2 1.6-3.8 2.4-7.6 2.7-.6 0-1.2 0-1.8.1-.6 0-1.2 0-1.8.1h-3.6c-4.5 0-8.1-.3-11-1-3-.7-4.6-3.1-4.6-6.8v-.3c0-.1 0-.2.1-.4V163.6h8v.5c0 1.2.2 2.1.7 2.9.3.6 1.4 1.1 3.6 1.1H18c2.2 0 3.9-.2 4.8-.6.8-.4 1.3-1.1 1.3-2.6 0-1.6-.5-2.3-1.6-2.5-1.3-.3-3-.5-5-.5h-3c-.2 0-.4 0-.6-.1-4.1-.2-7.4-.6-9.7-1.4-2.5-.8-3.8-3.2-3.8-6.7 0-2.3.7-4.1 2.3-5.4 1.5-1.3 4-1.9 7.4-2.1 1-.1 2-.1 3.1-.1h3.1c4 0 7.5.3 10.5.9 3.1.6 4.9 2.8 4.8 6.3v1.4h-8M46.1 173v-10.2l-14.5-16.6h9.7l9.1 10.7 9.1-10.7h9.9l-14.9 16.6V173h-8.4zm62.4 0l.2-20.3L97.3 173h-7.2l-11.6-20.2.3 20.2h-8.1v-26.8h12.7L93.7 165l10.2-18.8h13V173h-8.4zm14.1 0v-26.8h20.3c3.5 0 6.2.5 8.2 1.4 2 1 3.1 2.9 3 5.6 0 1.6-.3 2.9-1 4.1-.5.9-1.4 1.5-2.7 1.9 1.5.4 2.5.9 3.2 1.7 1 1.1 1.4 2.5 1.4 4.3 0 2.7-.8 4.7-2.6 6-1.8 1.3-4.7 1.8-8.9 1.9l-20.9-.1zm17.2-5h.4c2.2 0 3.8-.2 4.9-.5 1-.3 1.4-1.1 1.5-2.7 0-1.5-.4-2.2-1.1-2.5-.8-.4-2.3-.6-4.4-.6h-10.2v6.3h8.9m0-11h.4c2.1 0 3.6-.2 4.4-.5.7-.3 1.1-1 1.2-2.5 0-1.1-.3-1.7-.8-2.1-.5-.3-1.7-.6-3.5-.6h-10.6v5.7h8.9m19.6 16v-26.8h8.4V173h-8.4zm17-1.9c-2.7-1.4-3.9-4.4-3.9-8.6v-.7c0-.2 0-.5.1-.7v-1.2c0-4.3.7-7.7 2.3-10.2 1.7-2.6 6.3-3.7 13.7-3.7 4.5 0 8.5.4 12 1.2 3.6.8 5.7 3.3 6 7.1.1.6.1 1.2.1 1.7v3.5c0 4.8-.8 8.3-2.4 10.5-1.9 2.3-6.8 3.1-15.2 3.2-6-.1-10.2-.6-12.7-2.1m4.6-11.3v3.4c0 .4 0 .7.1 1.1.2 1.8.9 2.8 2 3.1 1.2.4 3.2.6 5.7.6 3.4 0 5.8-.3 7.1-.8 1.2-.5 2-1.7 2.1-4 .1-1 .1-2.1.1-3.1V157c0-2.3-.4-3.9-1.2-4.6-.6-.7-2.8-1.2-6.5-1.2-4.9 0-7.9.6-8.4 1.3-.7.8-1.1 2.5-1.1 5.1v.4c0 .3-.1.5-.1.8v1h.2z"/><path fill="#001E62" d="M8 201.5H.3v-1.7h17.4v1.7H10V215H7.9l.1-13.5zm15 3.8c0-3.8 1.3-5.7 5.4-5.7h8.8c4.1 0 5.4 1.8 5.4 5.7v4.2c0 3.8-1.3 5.7-5.4 5.7h-8.8c-4.1 0-5.4-1.8-5.4-5.7v-4.2zm17.6-.8c0-2.6-1.6-3.2-3.6-3.2h-8.3c-2 0-3.6.6-3.6 3.2v5.7c0 2.6 1.6 3.2 3.6 3.2H37c2 0 3.6-.6 3.6-3.2v-5.7zm15-3h-7.7v-1.7h17.4v1.7h-7.6V215h-2.1v-13.5zm20.9-1.7h2.6l9 15.2h-2.3l-1.9-3.2H71.7l-1.9 3.2h-2.3l9-15.2zm1.3 1.7l-5.1 8.6h10.2l-5.1-8.6zm16-1.7h2.1v13.5h11.8v1.7H93.8v-15.2zm32.9 0h2.1v6.5h13.7v-6.5h2.1V215h-2.1v-7h-13.7v7h-2.1v-15.2zm32.3 8.8l-8.7-8.8h2.8l7 7.1 7-7.1h2.8l-8.7 8.8v6.4h-2.1l-.1-6.4zm35.2.9c0 4.1-1.3 5.6-5.1 5.6h-8.5c-4.1 0-5.4-1.8-5.4-5.7v-4.2c0-3.8 1.3-5.7 5.4-5.7h7.8c2.7 0 5.6.7 5.6 4.2v.5h-1.9c0-2.8-.9-3-5.9-3h-5.3c-2 0-3.6.6-3.6 3.2v5.7c0 2.6 1.6 3.2 3.6 3.2h8c2.1 0 3.3-.7 3.3-2.8v-1.4h-7.8v-1.7h9.8v2.1zm7.1-9.7h2.1V215h-2.1v-15.2zm9.5 0h14.9v1.7h-12.9v4.9h12.4v1.7h-12.4v5.3h13v1.7h-15v-15.3zm21.4 0h3.1l13.9 13.4v-13.4h2.1V215h-3.1l-13.9-13.4V215h-2.1v-15.2zm26.3 0h14.9v1.7h-12.9v4.9h12.4v1.7h-12.4v5.3h13v1.7h-15v-15.3zm34.6 10.3h1.9v1.1c0 1.5.8 2.2 3.4 2.2h6.4c3 0 3.9-.6 3.9-2.8 0-1.9-.8-2.4-3.3-2.4h-3.9c-6.3 0-8.3-.4-8.3-4.4 0-3.5 2.1-4.2 6.3-4.2h4.4c5.1 0 6.4 1.3 6.4 4v.5h-1.9c0-2.4-.3-2.9-5.7-2.9h-2.2c-4 0-5.4.2-5.4 2.7 0 1.8.6 2.4 3.8 2.4h6.1c4 0 5.7 1.2 5.7 3.7v1c0 3.7-3.1 4-6.1 4h-5.9c-3 0-5.6-.5-5.6-3.8v-1.1zm24-4.8c0-3.8 1.3-5.7 5.4-5.7h8.8c4.1 0 5.4 1.8 5.4 5.7v4.2c0 3.8-1.3 5.7-5.4 5.7h-8.8c-4.1 0-5.4-1.8-5.4-5.7v-4.2zm17.6-.8c0-2.6-1.6-3.2-3.6-3.2h-8.3c-2 0-3.6.6-3.6 3.2v5.7c0 2.6 1.6 3.2 3.6 3.2h8.3c2 0 3.6-.6 3.6-3.2v-5.7zm9-4.7h2.1v13.5h11.8v1.7h-13.9v-15.2zm19.5 0h2.1v11.3c0 1.5.5 2.3 3.3 2.3h7.1c2.8 0 3.3-.9 3.3-2.3v-11.3h2.1v11.4c0 3.1-1.6 4-5.4 4h-7c-3.9 0-5.4-.9-5.4-4l-.1-11.4zm31.2 1.7h-7.7v-1.7h17.4v1.7h-7.7V215h-2.1l.1-13.5zm15.6-1.7h2.1V215H410v-15.2zm9.1 5.5c0-3.8 1.3-5.7 5.4-5.7h8.8c4.1 0 5.4 1.8 5.4 5.7v4.2c0 3.8-1.3 5.7-5.4 5.7h-8.8c-4.1 0-5.4-1.8-5.4-5.7v-4.2zm17.5-.8c0-2.6-1.6-3.2-3.6-3.2h-8.3c-2 0-3.6.6-3.6 3.2v5.7c0 2.6 1.6 3.2 3.6 3.2h8.3c2 0 3.6-.6 3.6-3.2v-5.7zm8.9-4.7h3.1l13.9 13.4v-13.4h2.1V215h-3.1l-13.9-13.4V215h-2.1v-15.2zm26 10.3h1.9v1.1c0 1.5.8 2.2 3.4 2.2h6.4c3 0 3.9-.6 3.9-2.8 0-1.9-.8-2.4-3.3-2.4h-3.9c-6.3 0-8.3-.4-8.3-4.4 0-3.5 2.1-4.2 6.3-4.2h4.4c5.1 0 6.4 1.3 6.4 4v.5h-1.9c0-2.4-.3-2.9-5.7-2.9h-2.2c-4 0-5.4.2-5.4 2.7 0 1.8.6 2.4 3.8 2.4h6.1c4 0 5.7 1.2 5.7 3.7v1c0 3.7-3.1 4-6.1 4h-5.7c-3 0-5.6-.5-5.6-3.8v-1.1h-.2z"/></svg>