<svg width="61" height="46" viewBox="0 0 61 46" xmlns="http://www.w3.org/2000/svg"><title>Artboard 1</title><path d="M27.871 23.672c-3.816-6.992-6.744-9.9-1.771-21.167-6.962.705-12.22 4.639-16.207 10.675-2.766 4.186-5.624 13.844 2.07 18.941 9.455 6.264 19.48-1.905 15.908-8.449zM8.053 20.226c.865-4.696 4.47-12.67 16.088-16.433-6.664 3.291-9.956 8.582-11.985 14.435-2.029 5.852.454 12.461 3.412 14.768-6.222-2.37-8.381-8.074-7.515-12.77zm11.562 2.125h-2.03v5.914h-.868V22.35h-2.02v-.73h4.918v.73zm7.442 6.604C28.72 24.63 9.447 12.667 25.362 3.24c-9.75 13.644 6.115 19.111 1.695 25.715zm23.08-20.063c-2.243-4.488-9.178-11.793-17.439-7.678-10.152 5.056-8.09 17.822-.637 18.001 7.963.19 11.945-.89 19.217 9.05 2.87-6.381 2.093-12.902-1.141-19.373zm-22.244 6.977c2.915 3.603 22.91-7.107 23.118 11.39-6.942-15.266-19.609-4.26-23.118-11.39zm6.953-6.226v-2.78h.868v6.644h-.868v-3.115h-3.213v3.115h-.858V6.864h.858v2.78h3.213zm16.296 16.282c.482-7.418-2.455-12.914-6.508-17.597-4.054-4.683-11.02-5.838-14.496-4.43C35.302-.304 41.32.679 44.955 3.776c3.634 3.097 8.738 10.206 6.187 22.15zm-17.68-.815c-4.147 6.8-5.202 10.79-17.446 12.117 4.09 5.677 10.127 8.263 17.348 8.699 5.008.301 14.802-2.052 15.369-11.264.696-11.32-11.39-15.918-15.272-9.552zm6.93 4.608c.68 0 1.173.157 1.468.325l-.236.7a2.646 2.646 0 0 0-1.262-.316c-.907 0-1.252.542-1.252.996 0 .62.404.926 1.321 1.281 1.124.434 1.695.976 1.695 1.952 0 1.025-.759 1.912-2.326 1.912-.64 0-1.34-.187-1.695-.424l.217-.72c.384.237.946.434 1.537.434.878 0 1.39-.463 1.39-1.133 0-.621-.355-.976-1.252-1.321-1.084-.384-1.754-.946-1.754-1.883 0-1.035.857-1.803 2.149-1.803zm-23.371 7.78c16.691 1.622 13.493-14.85 21.423-14.325-4.578.723-5.301 23.394-21.423 14.326zm23.365 6.498c-4.5 1.599-13.208 2.464-22.276-5.717 6.183 4.126 12.41 4.331 18.494 3.162 6.082-1.168 10.565-6.623 11.084-10.339 1.058 6.574-2.802 11.296-7.302 12.894z" fill="#231F1F" fill-rule="evenodd"/></svg>