<svg width="356" height="354" viewBox="0 0 356 354" xmlns="http://www.w3.org/2000/svg"><title>Imported Layers</title><g fill="none" fill-rule="evenodd"><path d="M355.128 313.268c0 22-18 40-40 40H40.246c-22 0-40-18-40-40V40.256c0-22 18-40 40-40h274.882c22 0 40 18 40 40v273.012" fill="#2E337D"/><path d="M306.549 188.086V154.46c0-1.395-.692-5.788-3.723-5.788h-51.443l-15.866 1.88v-26.014l66.514-11.87v-7.24L157.608 76.144 90.654 102.46l-67.943 26.328v89.238l67.943 19.563 43.176-12.078c-.053 6.294.028 11.283.028 13.717 0 3.073.084 5.707.234 8.009L22.711 279.722h29.753l82.356-25.929c.268 1.592.582 2.971.929 4.22.667 2.408 1.686 4.41 1.686 4.41h15.44c.819 3.65 2.14 6.031 3.638 6.031h9.189c1.496 0 2.818-2.381 3.637-6.031h39.025l4.575-1.932c.747 4.725 2.258 7.963 4.005 7.963h10.217c2.489 0 4.507-6.555 4.507-14.643 0-.414-.009-.821-.019-1.227-.193-7.516-2.127-13.417-4.488-13.417h-2.517c.835-2.806 1.971-4.54 3.225-4.54 2.564 0 4.64 7.215 4.64 16.115 0 .51-.021.997-.034 1.492l34.153-14.444c.691 2.646 1.751 4.101 2.941 4.101h4.277c1.099 0 2.084-1.244 2.773-3.513.689 2.271 1.675 3.513 2.774 3.513h5.586c2.087 0 3.775-4.44 3.775-11.964 0-.373-.008-.733-.016-1.091-.156-6.853-1.775-10.867-3.759-10.867h-2.898c.746-2.03 1.95-2.354 3.311-2.354 2.187 0 3.975 4.812 4.095 12.504l1.672-.709c4.935-2.443 15.39-9.58 15.39-13.152v-14.532l23.484-7.394v-2.242l-23.484 6.849v-6.849h23.484v-2.004h-23.484zm-217.92 44.221l-62.432-16.476v-30.517l62.432 6.554v40.439zm0-77.768l-62.432 6.904v-3.779l62.432-8.514v5.389zm0-41.522l-62.432 21.87v-2.268l62.432-27.005v7.403zm196.35 108.888c.835 0 2.148 2.077 2.215 7.585.002.146.007.285.007.436 0 5.847-1.364 8.024-2.222 8.024-.783 0-1.986-1.826-2.189-6.595a33.623 33.623 0 0 1-.033-1.429c0-5.843 1.364-8.021 2.222-8.021zm7.459-65.188l7.706-1.284h.014c.494 0 .968.377.968 1.421v15.59l-8.688 6.899v-22.626zm-12.757 2.123l10.946-1.824v22.789l-10.946 3.187V158.84zm-14.819 2.465l12.607-2.098v24.403l-12.607 3.552v-25.857zm-18.679 3.34v-.232l.239-.039 15.552-2.592v26.194l-15.791 4.448v-27.779zm-86.502-85.612l140.276 28.108v5.16L159.681 87.327v-8.294zm-69.027 36.571l30.387 20.425 111.866-1.059v6.577l-142.253 7.78v-33.723zm0 39.03l142.253-9.374v5.601l-79.369 9.407s-5.373.732-10.809 8.126c-.611.831-1.18 1.79-1.712 2.855l-50.363 5.496v-22.111zM133.88 221.6l-31.373 8.133v-34.064l33.514-5.44c-1.464 10.246-1.978 21.856-2.141 31.371zm16.559 26.209c0 .579-.561 1.049-1.25 1.049h-7.555c-.691 0-1.25-.47-1.25-1.049v-2.996c0-.576.559-1.045 1.25-1.045h7.555c.689 0 1.25.469 1.25 1.045v2.996zm30.78 8.939a.66.66 0 0 1-.668.653h-14.584a.661.661 0 0 1-.666-.653v-2.433c0-.363.301-.655.666-.655h14.584a.66.66 0 0 1 .668.655v2.433zm8.73-8.939c0 .579-.56 1.049-1.252 1.049h-31.666c-.694 0-1.251-.47-1.251-1.049v-2.996c0-.576.557-1.045 1.251-1.045h31.666c.692 0 1.252.469 1.252 1.045v2.996zm15.423-.134c0 .577-.56 1.046-1.251 1.046h-7.552c-.692 0-1.249-.469-1.249-1.046v-2.995c0-.579.557-1.049 1.249-1.049h7.552c.691 0 1.251.47 1.251 1.049v2.995zm2.275-74.044c-.031.202-.061.428-.092.639-1.011 6.9-1.805 18.421-2.65 31.359l-.449 6.881a3048.683 3048.683 0 0 1-1.031 15.328h-64c.005-.762.019-2.118.057-3.908a328.782 328.782 0 0 1 .257-7.825c.639-14.423 2.57-37.264 8.38-45.631.082-.118.159-.251.243-.363h60.043a31.174 31.174 0 0 0-.758 3.52zm11.555-1.092v33.748c0 9.336-4.129 15.265-6.764 18.1-1.232 1.326-2.14 1.981-2.14 1.981l.046-1.371c.135-3.852.459-11.79 1.101-21.198.545-7.98 1.317-17.018 2.399-25.525l.039-.31c.18-1.423.397-3.191.771-4.749.454-1.894 1.138-3.478 2.273-3.747l2.275-.456v3.527zm7.959 70.408c1.197 0 2.841 3.905 2.936 10.294.002.19.009.375.009.57 0 6.727-1.713 10.862-2.945 10.862-1.107 0-2.606-3.372-2.89-8.968a36.939 36.939 0 0 1-.052-1.894c0-6.731 1.715-10.864 2.942-10.864zm-3.43-44.196v-30.6l9.176-1.527 2.61-.434 7.146-1.189v28.284l-18.932 5.466zm78.222 2.422v.229l-69.771 27.257v-3.129l69.771-25.84v1.483zm-67.156 78.549l95.236-61.836v61.836h-95.236z" fill="#FFF"/></g></svg>