<?xml version="1.0" encoding="UTF-8" standalone="no"?>
<svg width="61px" height="46px" viewBox="0 0 61 46" version="1.1" xmlns="http://www.w3.org/2000/svg" xmlns:xlink="http://www.w3.org/1999/xlink" xmlns:sketch="http://www.bohemiancoding.com/sketch/ns">
    <!-- Generator: Sketch 3.3.3 (12081) - http://www.bohemiancoding.com/sketch -->
    <title>Artboard 1</title>
    <desc>Created with Sketch.</desc>
    <defs></defs>
    <g id="Page-1" stroke="none" stroke-width="1" fill="none" fill-rule="evenodd" sketch:type="MSPage">
        <g id="Artboard-1" sketch:type="MSArtboardGroup" fill="#1A1918">
            <path d="M25.7142326,36.040441 L25.9550937,36.040441 L25.9550937,36.6426736 L25.7142326,36.6426736 L25.7142326,36.040441 Z M25.7142326,37.8472188 L25.9550937,37.8472188 L25.9550937,37.2449861 L25.7142326,37.2449861 L25.7142326,37.8472188 Z M25.7142326,35.4382083 L25.9550937,35.4382083 L25.9550937,34.8359757 L25.7142326,34.8359757 L25.7142326,35.4382083 Z M25.7142326,33.0291979 L25.9550937,33.0291979 L25.9550937,32.4269653 L25.7142326,32.4269653 L25.7142326,33.0291979 Z M25.7142326,39.051684 L25.9550937,39.051684 L25.9550937,38.4494514 L25.7142326,38.4494514 L25.7142326,39.051684 Z M25.7142326,34.2337431 L25.9550937,34.2337431 L25.9550937,33.6315104 L25.7142326,33.6315104 L25.7142326,34.2337431 Z M25.7142326,16.1662847 L25.9550937,16.1662847 L25.9550937,15.5639722 L25.7142326,15.5639722 L25.7142326,16.1662847 Z M25.7142326,24.5977813 L25.9550937,24.5977813 L25.9550937,23.9955486 L25.7142326,23.9955486 L25.7142326,24.5977813 Z M25.7142326,40.2562292 L25.9550937,40.2562292 L25.9550937,39.6539167 L25.7142326,39.6539167 L25.7142326,40.2562292 Z M25.7142326,43.8697049 L25.9550937,43.8697049 L25.9550937,43.2673924 L25.7142326,43.2673924 L25.7142326,43.8697049 Z M25.7142326,42.6651597 L25.9550937,42.6651597 L25.9550937,42.0629271 L25.7142326,42.0629271 L25.7142326,42.6651597 Z M25.7142326,41.4606944 L25.9550937,41.4606944 L25.9550937,40.8584618 L25.7142326,40.8584618 L25.7142326,41.4606944 Z M25.7142326,6.53024306 L25.9550937,6.53024306 L25.9550937,5.92801042 L25.7142326,5.92801042 L25.7142326,6.53024306 Z M25.7142326,2.91676736 L25.9550937,2.91676736 L25.9550937,2.31453472 L25.7142326,2.31453472 L25.7142326,2.91676736 Z M25.7142326,5.32585764 L25.9550937,5.32585764 L25.9550937,4.72354514 L25.7142326,4.72354514 L25.7142326,5.32585764 Z M25.7142326,1.71230208 L25.9550139,1.71230208 L25.9550139,1.54794792 L26.6272049,1.54794792 L25.8214062,0 L25.0972257,1.54794792 L25.7142326,1.54794792 L25.7142326,1.71230208 L25.7142326,1.71230208 Z M25.7142326,23.3932361 L25.9550937,23.3932361 L25.9550937,22.7910035 L25.7142326,22.7910035 L25.7142326,23.3932361 Z M25.7142326,4.1213125 L25.9550937,4.1213125 L25.9550937,3.519 L25.7142326,3.519 L25.7142326,4.1213125 Z M25.8695625,30.6592396 C19.8916389,30.6592396 15.0279375,25.7974549 15.0251424,19.8201701 C15.0251424,19.8184931 15.0250625,19.8167361 15.0250625,19.8149792 C15.0250625,19.7362361 15.0264201,19.6577326 15.0280972,19.579309 C15.1539583,13.7073611 19.9687049,8.96984028 25.8695625,8.96984028 C30.9801944,8.96984028 35.2735278,12.5243785 36.4144236,17.2907292 L38.1675347,17.2907292 C37.0048368,11.5951146 31.9847674,7.30385764 25.9550139,7.2636875 L25.9550139,7.13255556 L25.7142326,7.13255556 L25.7142326,7.26472569 C18.9322674,7.34722222 13.4454097,12.8076458 13.3208264,19.579309 L9.30780556,19.579309 C9.24423611,19.2803889 8.97901736,19.056059 8.66125,19.056059 C8.29604514,19.056059 8,19.3522639 8,19.7176285 C8,20.0827535 8.29604514,20.3787188 8.66125,20.3787188 C8.99147569,20.3787188 9.26436111,20.1365 9.31379514,19.8201701 L13.3179514,19.8201701 C13.3209861,26.7500382 18.9394549,32.36675 25.8698021,32.36675 C31.9900382,32.36675 37.0841389,27.9854097 38.1943681,22.1887708 L36.4492431,22.1887708 C35.3632917,27.0302708 31.0337014,30.6592396 25.8695625,30.6592396 L25.8695625,30.6592396 Z M25.8695625,10.1642431 C29.9625243,10.1642431 33.4658715,12.7272257 34.8659965,16.3318368 L35.5963264,16.3318368 C34.1637778,12.3430139 30.3449792,9.48175 25.8696424,9.48175 C20.2512535,9.48175 15.6661076,13.9901493 15.5403264,19.579309 C15.5385694,19.6576528 15.5373715,19.7362361 15.5373715,19.8149792 C15.5373715,19.8167361 15.5374514,19.8184931 15.5374514,19.8201701 C15.5402465,25.4632361 20.0901736,30.0618785 25.7142326,30.1454132 C25.7659826,30.1461319 25.8177326,30.1473299 25.8696424,30.1473299 C25.8982326,30.1473299 25.9265035,30.1458924 25.9550139,30.1456528 C30.4491181,30.1089167 34.2662396,27.1885556 35.6473576,23.1475833 L34.9254931,23.1475833 C33.5656181,26.8311771 30.0195451,29.4645972 25.8695625,29.4645972 C20.5505729,29.4645972 16.2228194,25.1386007 16.2201042,19.8201701 L16.2201042,19.8152188 C16.2201042,19.7363958 16.2211424,19.6577326 16.223059,19.579309 C16.3487604,14.3662153 20.6277986,10.1642431 25.8695625,10.1642431 L25.8695625,10.1642431 Z M25.9550139,44.540059 L25.9550139,44.4719375 L25.7142326,44.4719375 L25.7142326,44.5359062 C25.3999792,44.5870972 25.1599167,44.8589444 25.1599167,45.1875729 C25.1599167,45.5530972 25.4559618,45.8490625 25.8211667,45.8490625 C26.1864514,45.8490625 26.4824965,45.5530972 26.4824965,45.1875729 C26.4824965,44.8682882 26.2560903,44.6018715 25.9550139,44.540059 L25.9550139,44.540059 Z M53.0792812,19.7176285 C53.0792812,20.0827535 52.783316,20.3787188 52.4179514,20.3787188 C52.0876458,20.3787188 51.8148403,20.1365 51.7654861,19.8201701 L46.6288194,19.8201701 C45.4451979,20.9935694 43.7433576,22.6672187 42.7349514,23.6578958 L45.4678785,23.6578958 C45.8170312,23.6628472 46.1926979,23.7808819 46.6272222,23.9907569 C47.0567951,24.2024688 47.5261389,24.5140069 47.9684097,24.9350347 C48.850875,25.7716597 49.6245694,27.0711597 49.6227326,28.7998333 C49.6280833,30.5035104 48.9541354,31.7974201 47.9714444,32.6160764 C46.9900312,33.4376076 45.7363715,33.8031319 44.5497153,33.8050486 C42.3724618,33.8045694 39.4816493,33.8045694 39.4816493,33.8050486 C39.2155521,33.8050486 38.9998472,33.5891042 38.9998472,33.3232465 C38.9998472,33.0564306 39.2155521,32.8409653 39.4816493,32.8409653 L44.5497153,32.8409653 C45.5396736,32.8424028 46.5813819,32.5275903 47.3515625,31.8783194 C48.1203854,31.2262535 48.6534583,30.2579375 48.6591285,28.7998333 C48.6636007,26.6613924 47.2435903,25.3717153 46.2016424,24.8555729 C45.8650278,24.6857083 45.5605972,24.6170278 45.4678785,24.6222188 C45.0253681,24.6217396 44.0474687,24.6217396 43.1805764,24.6222188 C42.313125,24.6217396 41.5577986,24.6217396 41.5563611,24.6222188 C41.3599028,24.6222188 41.1846076,24.5041042 41.1103368,24.3220208 C41.0359861,24.1408958 41.0783125,23.9333368 41.2190278,23.7959757 C41.2218229,23.7934201 42.5705174,22.4696424 43.9945208,21.0670417 C44.4201007,20.6479306 44.8531875,20.2208333 45.2586424,19.8201701 L28.4255174,19.8201701 C28.4226424,21.2560729 27.2577882,22.41925 25.8212465,22.41925 C24.384625,22.41925 23.2198507,21.2560729 23.2168958,19.8201701 L20.8296076,19.8201701 C20.8327222,22.5973403 23.0923125,24.8550938 25.8695625,24.8550938 C27.7910208,24.8550938 29.4635521,23.7740938 30.3138333,22.1887708 L34.6922187,22.1887708 C33.6513889,26.0534097 30.1347847,28.9117986 25.9550139,28.9504514 C25.9265035,28.950691 25.8982326,28.9522083 25.8696424,28.9522083 C25.8177326,28.9522083 25.7659826,28.9511701 25.7142326,28.9502917 C20.7489479,28.8669167 16.7347292,24.8043819 16.7320139,19.8201701 L16.7320139,19.8152187 C16.7320139,19.7363958 16.7329722,19.6577326 16.7349688,19.579309 C16.8605903,14.6490035 20.9101875,10.6766319 25.8696424,10.6766319 C30.0322431,10.6766319 33.5510035,13.4761632 34.6493333,17.2907292 L30.2258264,17.2907292 C29.3655625,15.8120208 27.7784826,14.8065694 25.9550139,14.7759028 L25.9550139,14.9618194 L25.7142326,14.9618194 L25.7142326,14.7784583 C23.085125,14.8586389 20.9564271,16.9605833 20.8354375,19.579309 L23.2278368,19.579309 C23.3437951,18.2863576 24.4041111,17.2660521 25.7142326,17.2130243 L25.7142326,16.7685174 L25.9550139,16.7685174 L25.9550139,17.2137431 C27.2528368,17.2793889 28.2994167,18.2952222 28.4145764,19.579309 L45.5023785,19.579309 C46.3403611,18.7504306 47.0188611,18.0748854 47.1918403,17.8913646 C47.3466111,17.7274097 47.3751215,17.6022674 47.373684,17.557066 C47.3701701,17.5165764 47.3692118,17.519691 47.3502049,17.4996458 C47.3301597,17.4822361 47.2685069,17.446059 47.1344201,17.4455799 C46.4159896,17.4455799 39.4465903,17.4112396 39.4456319,17.4112396 L39.4456319,17.4117188 C39.1796146,17.4100417 38.9650278,17.1933785 38.9659861,16.9272813 C38.9669444,16.661184 39.1836076,16.4466771 39.4501042,16.4481146 C39.457691,16.4481146 46.4239757,16.4819757 47.1344201,16.4819757 C47.447316,16.4814965 47.746316,16.5715799 47.9749583,16.7658819 C48.2050382,16.9576285 48.3405625,17.2575868 48.3372882,17.557066 C48.3356111,17.9172396 48.1693403,18.2590451 47.8926215,18.5531736 C47.7572569,18.6962847 47.3773576,19.0769826 46.8715972,19.579309 L51.7713958,19.579309 C51.8349653,19.2803889 52.1001042,19.056059 52.4179514,19.056059 C52.783316,19.056059 53.0792812,19.3522639 53.0792812,19.7176285 L53.0792812,19.7176285 Z M25.3460729,12.6841806 L25.3547778,12.8043715 C25.4672222,12.7961458 25.5803056,12.790875 25.6941076,12.7880799 L25.6941076,13.3278611 L26.7342986,12.7273056 L25.6941076,12.12675 L25.6941076,12.6674896 C25.5774306,12.6703646 25.4613125,12.6757951 25.3460729,12.6841806 L25.3460729,12.6841806 Z M24.6234097,12.7740243 L24.6443333,12.8926181 C24.7614097,12.871934 24.8794444,12.8542049 24.9984375,12.8394306 L24.9835833,12.7198785 C24.8625937,12.7348924 24.7424826,12.752941 24.6234097,12.7740243 L24.6234097,12.7740243 Z M23.9136042,12.9372604 L23.9465868,13.0531389 C24.0611076,13.0205556 24.1766667,12.9907674 24.2934236,12.963934 L24.2664306,12.8465382 C24.1476771,12.8738507 24.0300417,12.9041181 23.9136042,12.9372604 L23.9136042,12.9372604 Z M23.2243229,13.1725313 L23.2690451,13.2844167 C23.3796528,13.2401736 23.4916181,13.1987257 23.6048611,13.1600729 L23.5659687,13.0461111 C23.4507292,13.0854028 23.3368472,13.1275694 23.2243229,13.1725313 L23.2243229,13.1725313 Z M22.5638715,13.4765625 L22.6197743,13.5832569 C22.725191,13.5280729 22.8322049,13.4754444 22.9406562,13.4255313 L22.8902639,13.3161215 C22.7799757,13.3669132 22.671125,13.4204201 22.5638715,13.4765625 L22.5638715,13.4765625 Z M21.937441,13.8463993 L22.0038854,13.9468646 C22.1033125,13.8812188 22.2044167,13.8179688 22.3072778,13.7571944 L22.2460243,13.6535347 C22.1414063,13.7152674 22.0385451,13.7795556 21.937441,13.8463993 L21.937441,13.8463993 Z M21.3514201,14.2780486 L21.4276875,14.3713264 C21.5200069,14.2957778 21.6142431,14.222625 21.7104757,14.1517882 L21.639,14.0547569 C21.54125,14.1267917 21.4453368,14.2013021 21.3514201,14.2780486 L21.3514201,14.2780486 Z M20.8117188,14.7668785 L20.8969306,14.8519306 C20.9812639,14.7674375 21.0677535,14.6850208 21.1562396,14.6049201 L21.0754201,14.5156354 C20.9854167,14.5971736 20.8974896,14.6808681 20.8117188,14.7668785 L20.8117188,14.7668785 Z M20.3238472,15.3077778 L20.4172049,15.3838056 C20.4926736,15.2911667 20.5703785,15.2004444 20.6503993,15.1117986 L20.5609549,15.0311389 C20.4795764,15.1213021 20.4005139,15.2135417 20.3238472,15.3077778 L20.3238472,15.3077778 Z M19.8929167,15.8955556 L19.9935417,15.9617604 C20.0592674,15.8618542 20.1274687,15.7637049 20.198066,15.6673924 L20.1009549,15.5961563 C20.0291597,15.694066 19.9597604,15.7938924 19.8929167,15.8955556 L19.8929167,15.8955556 Z M19.5236389,16.5242222 L19.6304931,16.5798854 C19.6857569,16.4736701 19.7436562,16.3690521 19.804191,16.2661111 L19.7002917,16.2050972 C19.6387986,16.3097951 19.5798611,16.41625 19.5236389,16.5242222 L19.5236389,16.5242222 Z M19.2203264,17.1877083 L19.3322917,17.2321111 C19.3765347,17.1207049 19.4234132,17.0106563 19.4730868,16.902125 L19.3635174,16.8520521 C19.3130451,16.9625 19.2652882,17.0743854 19.2203264,17.1877083 L19.2203264,17.1877083 Z M18.9868125,17.8784271 L19.1027708,17.9110903 C19.1351944,17.7958507 19.1705729,17.681809 19.2086667,17.5689653 L19.0945451,17.5304722 C19.0558125,17.6451528 19.019875,17.761191 18.9868125,17.8784271 L18.9868125,17.8784271 Z M18.8255729,18.5887118 L18.9442465,18.609316 C18.9647708,18.4912014 18.9881701,18.3742049 19.0145243,18.2581667 L18.8970486,18.2314931 C18.8702951,18.3495278 18.8464167,18.4686007 18.8255729,18.5887118 L18.8255729,18.5887118 Z M18.7378854,19.3116944 L18.8579965,19.3200799 C18.8663819,19.2003681 18.8777222,19.0815347 18.8920972,18.9635799 L18.7724653,18.949125 C18.7579306,19.0690764 18.7463507,19.1899861 18.7378854,19.3116944 L18.7378854,19.3116944 Z M32.3181076,22.6106771 L32.4285556,22.6587535 C32.4769514,22.5475069 32.5226319,22.4347431 32.5654375,22.3207014 L32.4526736,22.278375 C32.4105868,22.3905 32.3657049,22.5013472 32.3181076,22.6106771 L32.3181076,22.6106771 Z M31.9989028,23.2523611 L32.1038403,23.3114583 C32.1634167,23.2056424 32.2203576,23.0982292 32.2745833,22.9892187 L32.166691,22.9356319 C32.1134236,23.0427257 32.057441,23.1483819 31.9989028,23.2523611 L31.9989028,23.2523611 Z M31.6161285,23.8580278 L31.7145174,23.9275069 C31.7845556,23.8282396 31.8520382,23.7272153 31.9170451,23.624434 L31.8152222,23.560066 C31.7513333,23.6611701 31.6848889,23.7605174 31.6161285,23.8580278 L31.6161285,23.8580278 Z M31.1740174,24.4217674 L31.2648993,24.50075 C31.3446007,24.4091493 31.4219861,24.3154722 31.4969757,24.2197986 L31.4021806,24.1455278 C31.3284688,24.2395243 31.2523611,24.3316042 31.1740174,24.4217674 L31.1740174,24.4217674 Z M30.6773611,24.9378299 L30.7597778,25.0255972 C30.8483438,24.9424618 30.9347535,24.8570903 31.0190069,24.7695625 L30.9321979,24.6860278 C30.8493819,24.7721181 30.7644097,24.8560521 30.6773611,24.9378299 L30.6773611,24.9378299 Z M30.1312708,25.4011042 L30.2044236,25.4967778 C30.3009757,25.4229063 30.3955313,25.3467188 30.4880903,25.2682153 L30.4101458,25.176375 C30.319184,25.2536007 30.2261458,25.3285104 30.1312708,25.4011042 L30.1312708,25.4011042 Z M29.5413368,25.8066389 L29.6044271,25.9092604 C29.7080069,25.8455313 29.80975,25.7793264 29.9096563,25.7106458 L29.8414549,25.6113785 C29.7431458,25.678941 29.6430799,25.7440278 29.5413368,25.8066389 L29.5413368,25.8066389 Z M28.9134687,26.1501215 L28.9658576,26.2585729 C29.0753472,26.2057847 29.1832396,26.1502014 29.2896146,26.0920625 L29.2317951,25.9864063 C29.1272569,26.0435868 29.0211215,26.0981319 28.9134687,26.1501215 L28.9134687,26.1501215 Z M28.2542153,26.427559 L28.295184,26.5408021 C28.4095451,26.4995139 28.5225486,26.4552708 28.6341146,26.4083125 L28.5873958,26.2973056 C28.4776667,26.3434653 28.3665799,26.3869097 28.2542153,26.427559 L28.2542153,26.427559 Z M27.5702847,26.6359965 L27.599434,26.7528333 C27.7174687,26.7234444 27.8343056,26.6910208 27.9499444,26.6558021 L27.9148854,26.5405625 C27.8011632,26.5752222 27.6863229,26.6070069 27.5702847,26.6359965 L27.5702847,26.6359965 Z M26.8675868,26.7733576 L26.8845972,26.8925903 C27.0052674,26.8753403 27.125059,26.8550556 27.2438125,26.8318958 L27.2206528,26.7137014 C27.1039757,26.7364618 26.9862604,26.7564271 26.8675868,26.7733576 L26.8675868,26.7733576 Z M26.1544271,26.8382049 L26.1592188,26.9585556 C26.2812465,26.953684 26.4023958,26.9457778 26.5227465,26.9348368 L26.5118056,26.8148854 C26.3935313,26.8255868 26.2743785,26.8334132 26.1544271,26.8382049 L26.1544271,26.8382049 Z M25.4310451,26.9510486 C25.5248819,26.9567986 25.6193576,26.9600729 25.7142326,26.9621493 L25.7142326,26.8416389 C25.6218333,26.8396424 25.5297535,26.8363681 25.4383125,26.8308576 L25.4310451,26.9510486 L25.4310451,26.9510486 Z M24.7072639,26.8699097 C24.8265764,26.8894757 24.9469271,26.9060868 25.0681563,26.9196632 L25.0815729,26.8000312 C24.9624201,26.7866146 24.8441458,26.7703229 24.7268299,26.7509965 L24.7072639,26.8699097 L24.7072639,26.8699097 Z M23.9955417,26.7151389 C24.1123785,26.7469236 24.2303333,26.7757535 24.3494861,26.8016285 L24.3750417,26.6839931 C24.2579653,26.6585174 24.1420069,26.6301667 24.0271667,26.598941 L23.9955417,26.7151389 L23.9955417,26.7151389 Z M23.3027465,26.487934 C23.4159896,26.5316181 23.5306701,26.5725069 23.6466285,26.6105208 L23.6841632,26.4960799 C23.5701215,26.4587049 23.4574375,26.4185347 23.3461111,26.3754896 L23.3027465,26.487934 L23.3027465,26.487934 Z M22.6364653,26.1906111 C22.7446771,26.2457153 22.8544861,26.2981042 22.9657326,26.3477778 L23.0148472,26.237809 C22.9054375,26.188934 22.7975451,26.1374236 22.6911701,26.0832778 L22.6364653,26.1906111 L22.6364653,26.1906111 Z M22.0044444,25.8270833 C22.1065069,25.8928889 22.2102465,25.9561389 22.3158229,26.0168333 L22.3758785,25.9124549 C22.2721389,25.8527986 22.1700764,25.7905868 22.0697708,25.7258194 L22.0044444,25.8270833 L22.0044444,25.8270833 Z M21.4128333,25.4014236 C21.5077083,25.4772118 21.6045,25.550684 21.7032083,25.6216806 L21.773566,25.5239306 C21.6765347,25.4541319 21.5813403,25.3818576 21.4880625,25.3073472 L21.4128333,25.4014236 L21.4128333,25.4014236 Z M20.8675417,24.9183437 C20.9542708,25.003316 21.0431562,25.0862118 21.1340382,25.1667118 L21.2139792,25.0765486 C21.1245347,24.9974062 21.0371667,24.9159479 20.951875,24.8323333 L20.8675417,24.9183437 L20.8675417,24.9183437 Z M18.7832465,20.7656458 L18.9026389,20.7496736 C18.8869861,20.6318785 18.8741285,20.5132049 18.8643854,20.3936528 L18.7443542,20.4034757 C18.7542569,20.5251042 18.7672743,20.6458542 18.7832465,20.7656458 L18.7832465,20.7656458 Z M18.9164549,21.4816007 L19.0336111,21.4535694 C19.0058993,21.3378507 18.9809826,21.2210938 18.9591007,21.1032986 L18.8406667,21.1253403 C18.8629479,21.2451319 18.8882639,21.3639653 18.9164549,21.4816007 L18.9164549,21.4816007 Z M19.236059,22.1402951 C19.1965278,22.0279306 19.1598715,21.9143681 19.1260104,21.7995278 L19.0104514,21.8335486 C19.0448715,21.9503854 19.0822465,22.0660243 19.1224167,22.1802257 L19.236059,22.1402951 L19.236059,22.1402951 Z M19.5071875,22.8013056 C19.4564757,22.6937326 19.4083993,22.5847222 19.3631181,22.4741944 L19.2517118,22.5199549 C19.2977917,22.6323194 19.3466667,22.7432465 19.3982569,22.8526563 L19.5071875,22.8013056 L19.5071875,22.8013056 Z M19.8446007,23.4317292 C19.7831076,23.3297465 19.7241701,23.2260868 19.6677882,23.12075 L19.5616528,23.1776111 C19.6189132,23.2847049 19.6788889,23.3902014 19.7414201,23.493941 L19.8446007,23.4317292 L19.8446007,23.4317292 Z M20.2444653,24.0250972 C20.1729097,23.9296632 20.10375,23.8324722 20.0369861,23.7334444 L19.9370799,23.8007674 C20.0049618,23.9014722 20.0753194,24.0003403 20.1481528,24.0973715 L20.2444653,24.0250972 L20.2444653,24.0250972 Z M20.7025486,24.5751806 L20.7025486,24.5751806 C20.6216493,24.4874931 20.5429063,24.3976493 20.466559,24.3058889 L20.3739201,24.3829549 C20.4517049,24.4763125 20.5317257,24.5675938 20.6139826,24.6568785 L20.7025486,24.5751806 L20.7025486,24.5751806 Z M18.8408264,19.8201701 L18.7203958,19.8201701 C18.7204757,19.8936424 18.7215937,19.966875 18.7238299,20.0397882 L18.8441806,20.0361146 C18.8420243,19.9643993 18.8409062,19.8924444 18.8408264,19.8201701 L18.8408264,19.8201701 Z" id="Imported-Layers" sketch:type="MSShapeGroup"></path>
        </g>
    </g>
</svg>