<?xml version="1.0" encoding="UTF-8" standalone="no"?>
<svg width="356px" height="354px" viewBox="0 0 356 354" version="1.1" xmlns="http://www.w3.org/2000/svg" xmlns:xlink="http://www.w3.org/1999/xlink" xmlns:sketch="http://www.bohemiancoding.com/sketch/ns">
    <!-- Generator: Sketch 3.3.3 (12081) - http://www.bohemiancoding.com/sketch -->
    <title>Imported Layers</title>
    <desc>Created with Sketch.</desc>
    <defs></defs>
    <g id="Page-1" stroke="none" stroke-width="1" fill="none" fill-rule="evenodd" sketch:type="MSPage">
        <g id="Imported-Layers" sketch:type="MSLayerGroup">
            <path d="M355.735,313.268 C355.735,335.268 337.735,353.268 315.735,353.268 L40.853,353.268 C18.853,353.268 0.853,335.268 0.853,313.268 L0.853,40.256 C0.853,18.256 18.853,0.256 40.853,0.256 L315.735,0.256 C337.735,0.256 355.735,18.256 355.735,40.256 L355.735,313.268" id="Fill-1" fill="#2E337D" sketch:type="MSShapeGroup"></path>
            <path d="M42.26,125.733 L260.844,238.667 L260.844,250.654 L42.26,136.04 L42.26,125.733 L42.26,125.733 Z M42.26,158.179 L260.844,272.805 L260.844,260.823 L42.26,147.882 L42.26,158.179 L42.26,158.179 Z M42.26,180.324 L260.844,294.96 L260.844,282.948 L42.26,170.02 L42.26,180.324 L42.26,180.324 Z M305.701,152.956 C305.701,152.956 313.013,252.634 260.844,294.96 C260.844,294.96 317.782,272.753 314.162,171.192 C313.201,143.867 305.701,152.956 305.701,152.956 L305.701,152.956 Z M42.26,113.885 L260.844,228.518 L260.844,216.509 L42.26,103.584 L42.26,113.885 L42.26,113.885 Z M302.538,141.649 C294.88,159.502 309.397,162.717 296.341,176.576 C283.276,190.454 301.021,196.16 279.728,203.51 C263.685,209.042 278.336,213.274 260.844,216.509 L42.26,103.584 L286.076,74.564 C286.076,74.564 303.042,84.009 295.449,101.912 C287.844,119.829 310.726,122.478 302.538,141.649 L302.538,141.649 Z M274.166,111.582 C240.154,102.456 229.653,129.402 227.416,136.942 C229.245,129.364 233.718,100.694 199.631,91.556 C199.631,91.556 189.23,123.12 219.175,136.12 C219.105,136.123 219.046,136.127 218.976,136.129 C213.826,136.304 206.355,136.228 197.081,135.063 C177.547,132.637 150.067,125.545 119.633,106.523 L117.827,109.419 C148.718,128.718 176.718,135.971 196.653,138.453 C198.491,138.681 200.239,138.859 201.936,139.012 C183.937,145.591 179.655,166.11 179.655,166.11 C213.401,175.148 223.997,148.728 226.345,140.958 C224.487,148.86 220.431,177.042 254.167,186.093 C254.167,186.093 266.273,149.493 227.029,138.897 C227.037,138.896 227.043,138.896 227.05,138.895 C266.32,149.313 274.166,111.582 274.166,111.582 L274.166,111.582 Z" id="Fill-2" fill="#FFFFFF" sketch:type="MSShapeGroup"></path>
        </g>
    </g>
</svg>