<?xml version="1.0" encoding="UTF-8" standalone="no"?>
<svg width="356px" height="354px" viewBox="0 0 356 354" version="1.1" xmlns="http://www.w3.org/2000/svg" xmlns:xlink="http://www.w3.org/1999/xlink" xmlns:sketch="http://www.bohemiancoding.com/sketch/ns">
    <!-- Generator: Sketch 3.3.3 (12081) - http://www.bohemiancoding.com/sketch -->
    <title>Imported Layers</title>
    <desc>Created with Sketch.</desc>
    <defs></defs>
    <g id="Page-1" stroke="none" stroke-width="1" fill="none" fill-rule="evenodd" sketch:type="MSPage">
        <g id="Imported-Layers" sketch:type="MSLayerGroup">
            <path d="M355.455,313.268 C355.455,335.268 337.455,353.268 315.455,353.268 L40.573,353.268 C18.573,353.268 0.573,335.268 0.573,313.268 L0.573,40.256 C0.573,18.256 18.573,0.256 40.573,0.256 L315.455,0.256 C337.455,0.256 355.455,18.256 355.455,40.256 L355.455,313.268" id="Fill-1" fill="#2E337D" sketch:type="MSShapeGroup"></path>
            <path d="M270.853,169.897 L278.517,172.064 L278.517,185.072 L270.853,182.439 L270.853,169.897 L270.853,169.897 Z M270.853,152.408 L278.517,154.58 L278.517,141.572 L270.853,139.87 L270.853,152.408 L270.853,152.408 Z M270.853,122.38 L278.517,124.09 L278.517,111.085 L270.853,109.833 L270.853,122.38 L270.853,122.38 Z M313.394,233.843 L313.394,238.95 L282.811,238.95 L265.035,229.648 L265.035,75.085 L226.139,79.255 L226.732,79.861 L253.121,106.892 L253.081,106.853 C254.429,108.118 255.112,109.505 255.112,110.986 L255.112,110.998 L255.112,242.719 C269.246,242.8 280.629,245.902 280.629,249.722 C280.629,253.593 268.946,256.733 254.552,256.733 L226.023,256.733 C218.425,256.733 211.27,255.529 205.862,253.339 C200.109,251.011 196.935,247.746 196.935,244.135 L196.935,110.986 C196.935,109.505 197.619,108.118 198.967,106.853 L198.927,106.892 L225.312,79.861 L225.88,79.283 L157.762,86.586 L157.794,86.619 L187.123,116.656 L187.078,116.616 C188.579,118.014 189.337,119.559 189.337,121.207 L189.337,121.215 L189.337,267.575 C205.045,267.665 217.684,271.111 217.684,275.353 C217.684,279.653 204.71,283.138 188.71,283.138 L157.008,283.138 C148.573,283.138 140.613,281.803 134.612,279.374 C128.215,276.789 124.691,273.153 124.691,269.149 L124.691,121.207 C124.691,119.559 125.454,118.014 126.954,116.616 L126.906,116.656 L156.083,86.767 L80.491,94.871 L112.007,127.155 L111.953,127.11 C113.622,128.665 114.466,130.379 114.466,132.208 L114.466,132.224 L114.466,294.843 C131.922,294.943 145.963,298.774 145.963,303.485 C145.963,308.265 131.551,312.14 113.771,312.14 L78.553,312.14 C69.17,312.14 60.329,310.653 53.668,307.955 C46.553,305.078 42.634,301.043 42.634,296.592 L42.634,132.214 L42.634,132.208 C42.634,130.379 43.479,128.665 45.151,127.11 L45.101,127.155 L76.158,95.336 L72.33,95.746 L59.734,90.621 L59.734,45.698 L265.035,45.698 L265.035,41.384 L304.469,41.384 L304.469,230.314 L313.394,233.843 L313.394,233.843 Z M69.934,52.227 L62.125,51.091 L62.125,86.752 L69.934,89.922 L69.934,52.227 L69.934,52.227 Z M67.533,154.106 C65.813,153.921 64.127,153.688 62.49,153.417 C61.51,153.253 60.543,153.078 59.602,152.878 C57.839,152.51 56.15,152.088 54.565,151.61 C53.556,151.31 52.591,150.986 51.669,150.64 C49.777,149.929 48.075,149.122 46.634,148.225 L46.634,293.285 C46.634,295.255 48.464,297.306 51.669,299.119 C52.539,299.614 53.5,300.082 54.565,300.534 C56.065,301.172 57.755,301.753 59.602,302.276 C60.526,302.539 61.495,302.786 62.49,303.006 C64.081,303.364 65.764,303.678 67.533,303.93 L67.533,154.106 L67.533,154.106 Z M76.4,154.669 C74.714,154.638 73.025,154.557 71.365,154.443 L71.365,304.373 C72.983,304.515 74.668,304.621 76.4,304.668 L76.4,154.669 L76.4,154.669 Z M78.553,96.607 L46.64,129.302 C45.561,130.296 45.024,131.276 45.024,132.214 C45.024,137.077 58.795,142.5 78.553,142.5 C98.311,142.5 112.074,137.077 112.074,132.214 C112.074,131.282 111.535,130.305 110.431,129.267 L78.553,96.607 L78.553,96.607 Z M147.092,140.074 C145.553,139.908 144.029,139.698 142.558,139.46 C141.672,139.303 140.804,139.147 139.96,138.966 C138.369,138.635 136.853,138.256 135.422,137.83 C134.521,137.558 133.65,137.266 132.817,136.954 C131.116,136.312 129.587,135.586 128.283,134.779 L128.283,266.174 C128.283,267.944 129.933,269.793 132.817,271.428 C133.598,271.867 134.471,272.29 135.422,272.697 C136.776,273.269 138.3,273.795 139.96,274.265 C140.794,274.5 141.662,274.721 142.558,274.918 C143.995,275.245 145.505,275.522 147.092,275.751 L147.092,140.074 L147.092,140.074 Z M155.081,140.578 C153.557,140.55 152.041,140.48 150.541,140.376 L150.541,276.152 C152.01,276.281 153.524,276.372 155.081,276.414 L155.081,140.578 L155.081,140.578 Z M157.008,89.159 L128.29,118.586 C127.33,119.486 126.842,120.366 126.842,121.207 C126.842,125.585 139.238,130.467 157.008,130.467 C174.799,130.467 187.188,125.585 187.188,121.207 C187.188,120.369 186.703,119.487 185.705,118.559 L157.008,89.159 L157.008,89.159 Z M217.098,126.964 C215.709,126.812 214.336,126.629 213.015,126.407 C212.225,126.275 211.436,126.128 210.677,125.968 C209.242,125.672 207.879,125.331 206.59,124.947 C205.775,124.699 204.991,124.435 204.252,124.156 C202.719,123.576 201.342,122.927 200.173,122.197 L200.173,241.456 C200.173,243.051 201.656,244.715 204.252,246.184 C204.953,246.583 205.735,246.966 206.59,247.33 C207.809,247.846 209.173,248.32 210.677,248.742 C211.426,248.952 212.206,249.154 213.015,249.333 C214.303,249.624 215.667,249.878 217.098,250.08 L217.098,126.964 L217.098,126.964 Z M224.282,127.42 C222.911,127.393 221.547,127.336 220.199,127.236 L220.199,250.439 C221.52,250.558 222.882,250.643 224.282,250.677 L224.282,127.42 L224.282,127.42 Z M226.023,82.149 L200.173,108.633 C199.306,109.442 198.871,110.235 198.871,110.986 C198.871,114.929 210.018,119.322 226.023,119.322 C242.029,119.322 253.185,114.929 253.185,110.986 C253.185,110.235 252.74,109.442 251.846,108.604 L226.023,82.149 L226.023,82.149 Z M281.388,46.492 L267.795,45.698 L277.072,46.247 L277.072,73.794 L267.792,74.789 L267.774,226.589 L281.388,233.769 L281.388,46.492 L281.388,46.492 Z M78.553,141.164 C80.053,141.164 81.534,141.127 82.986,141.064 L78.553,98.714 L76.429,141.143 C77.135,141.156 77.84,141.164 78.553,141.164 L78.553,141.164 Z M101.21,138.223 C101.524,138.123 101.83,138.027 102.134,137.927 C103.155,137.59 104.07,137.237 104.892,136.879 L78.553,98.714 L101.21,138.223 L101.21,138.223 Z M96.297,139.477 L78.553,98.714 L87.967,140.723 C90.906,140.436 93.702,140.018 96.297,139.477 L96.297,139.477 Z M157.008,129.267 C158.36,129.267 159.695,129.233 161.007,129.175 L157.008,91.056 L155.106,129.242 C155.739,129.258 156.371,129.267 157.008,129.267 L157.008,129.267 Z M177.402,126.615 C177.685,126.531 177.971,126.444 178.244,126.351 C179.157,126.041 179.977,125.733 180.715,125.41 L157.008,91.056 L177.402,126.615 L177.402,126.615 Z M172.978,127.746 L157.008,91.056 L165.482,128.865 C168.127,128.611 170.646,128.231 172.978,127.746 L172.978,127.746 Z M226.023,118.239 C227.24,118.239 228.438,118.211 229.618,118.162 L226.023,83.854 L224.305,118.22 C224.879,118.236 225.445,118.239 226.023,118.239 L226.023,118.239 Z M244.375,115.861 C244.63,115.778 244.886,115.699 245.128,115.616 C245.954,115.345 246.69,115.058 247.357,114.771 L226.023,83.854 L244.375,115.861 L244.375,115.861 Z M240.398,116.872 L226.023,83.854 L233.65,117.877 C236.034,117.65 238.295,117.315 240.398,116.872 L240.398,116.872 Z M313.394,312.14 L313.394,256.286 L193.896,312.14 L313.394,312.14 L313.394,312.14 Z" id="Fill-2" fill="#FFFFFF" sketch:type="MSShapeGroup"></path>
        </g>
    </g>
</svg>