<?xml version="1.0" encoding="UTF-8" standalone="no"?>
<svg width="61px" height="46px" viewBox="0 0 61 46" version="1.1" xmlns="http://www.w3.org/2000/svg" xmlns:xlink="http://www.w3.org/1999/xlink" xmlns:sketch="http://www.bohemiancoding.com/sketch/ns">
    <!-- Generator: Sketch 3.3.3 (12081) - http://www.bohemiancoding.com/sketch -->
    <title>Imported Layers</title>
    <desc>Created with Sketch.</desc>
    <defs></defs>
    <g id="Page-1" stroke="none" stroke-width="1" fill="none" fill-rule="evenodd" sketch:type="MSPage">
        <path d="M40.496,19.236 L24.357,25.948 L24.351,25.954 C24.216,25.723 24.076,25.493 23.924,25.268 C23.89,25.223 23.856,25.178 23.823,25.128 C23.66,24.897 23.491,24.667 23.311,24.447 C23.278,24.402 23.249,24.358 23.21,24.318 C23.019,24.082 22.817,23.857 22.609,23.638 C22.552,23.582 22.502,23.525 22.446,23.464 C22.238,23.256 22.024,23.048 21.799,22.851 C21.743,22.8 21.681,22.75 21.619,22.699 C21.389,22.497 21.153,22.306 20.911,22.126 C20.872,22.092 20.827,22.064 20.787,22.036 C20.551,21.867 20.309,21.704 20.068,21.547 C20.017,21.519 19.978,21.491 19.927,21.462 C19.663,21.299 19.388,21.142 19.106,21.001 C19.05,20.968 18.988,20.94 18.932,20.912 C18.646,20.771 18.359,20.636 18.061,20.512 C18.016,20.496 17.965,20.479 17.92,20.456 C17.274,20.203 16.605,19.995 15.914,19.844 C15.897,19.844 15.885,19.838 15.869,19.832 C15.863,19.832 15.857,19.832 15.852,19.827 C15.846,19.827 15.835,19.827 15.829,19.821 C15.824,19.821 15.818,19.815 15.807,19.815 C15.801,19.815 15.796,19.815 15.79,19.81 L16.391,15.358 C16.397,15.363 16.397,15.363 16.403,15.363 C16.408,15.369 16.408,15.369 16.414,15.369 C16.419,15.375 16.425,15.375 16.431,15.375 C16.431,15.375 16.436,15.38 16.442,15.38 C17.471,15.864 18.617,16.128 19.826,16.128 C23.806,16.128 27.106,13.233 27.763,9.438 L40.782,13.002 C40.361,14.11 40.125,15.301 40.125,16.555 C40.125,17.488 40.26,18.382 40.496,19.236 L40.496,19.236 Z M13.94,13.57 C13.94,13.576 13.94,13.576 13.946,13.576 C13.946,13.581 13.952,13.581 13.952,13.581 L13.952,13.587 L13.957,13.587 C13.957,13.593 13.963,13.593 13.963,13.593 L13.963,13.598 L13.968,13.598 C13.968,13.604 13.974,13.604 13.974,13.604 L13.974,13.609 L13.98,13.609 L13.98,13.615 L13.985,13.615 L13.985,13.621 L13.991,13.621 L13.991,13.626 L13.997,13.626 C13.997,13.632 14.002,13.632 14.002,13.632 L14.002,13.638 L14.008,13.638 L14.008,13.643 C14.008,13.649 14.008,13.649 14.014,13.649 C14.014,13.654 14.014,13.654 14.019,13.654 C14.019,13.66 14.019,13.66 14.025,13.66 C14.025,13.666 14.025,13.666 14.03,13.666 C14.03,13.671 14.03,13.671 14.036,13.671 C14.036,13.677 14.036,13.677 14.042,13.677 C14.042,13.683 14.042,13.683 14.047,13.683 C14.047,13.688 14.053,13.688 14.053,13.688 C14.053,13.694 14.058,13.694 14.058,13.694 C14.058,13.699 14.064,13.699 14.064,13.699 L14.064,13.705 L14.07,13.705 L14.07,13.711 L14.075,13.716 L14.081,13.716 L14.081,13.722 L14.087,13.722 L14.087,13.727 L14.092,13.727 L14.092,13.733 L14.098,13.733 L14.098,13.739 L14.103,13.739 L14.103,13.744 L11.135,19.68 L11.13,19.68 C11.13,19.68 11.13,19.686 11.124,19.686 L11.09,19.686 C11.085,19.692 11.085,19.692 11.079,19.692 L11.057,19.692 L11.051,19.697 L11.034,19.697 C11.029,19.703 11.023,19.703 11.017,19.703 L10.989,19.703 L10.984,19.709 L10.961,19.709 C10.961,19.709 10.961,19.714 10.955,19.714 L10.927,19.714 C10.927,19.714 10.927,19.72 10.922,19.72 L10.894,19.72 C10.894,19.72 10.894,19.725 10.888,19.725 L10.871,19.725 C10.866,19.731 10.86,19.731 10.854,19.731 L10.832,19.731 C10.826,19.737 10.826,19.737 10.821,19.737 L10.798,19.737 L10.793,19.742 L10.776,19.742 C10.77,19.748 10.764,19.748 10.759,19.748 L10.742,19.748 C10.742,19.748 10.736,19.759 10.731,19.754 L10.703,19.754 C10.703,19.754 10.703,19.759 10.697,19.759 L10.674,19.759 C10.669,19.765 10.663,19.765 10.658,19.765 L10.641,19.765 L10.635,19.77 C10.629,19.776 10.629,19.776 10.624,19.77 L10.607,19.77 L10.601,19.776 L10.573,19.776 L10.568,19.782 L10.539,19.782 L10.534,19.787 L10.523,19.787 C10.517,19.799 10.511,19.804 10.495,19.81 L10.506,19.787 C10.371,19.815 10.236,19.855 10.101,19.889 C10.028,19.905 9.955,19.922 9.882,19.939 C9.612,20.012 9.342,20.085 9.078,20.17 C9.055,20.175 9.039,20.186 9.016,20.192 C3.783,21.907 0,26.825 0,32.632 C0,39.867 5.863,45.73 13.097,45.73 C16.734,45.73 20.023,44.24 22.395,41.84 C22.451,41.784 22.507,41.727 22.563,41.666 C22.76,41.458 22.951,41.25 23.131,41.03 C23.216,40.929 23.3,40.834 23.379,40.727 C23.474,40.614 23.559,40.491 23.649,40.373 C23.738,40.255 23.823,40.131 23.907,40.007 C23.986,39.9 24.059,39.788 24.126,39.681 C24.272,39.462 24.407,39.232 24.537,39.001 C24.582,38.917 24.632,38.821 24.677,38.731 C24.773,38.557 24.863,38.377 24.947,38.192 C24.992,38.102 25.031,38.012 25.071,37.922 C25.189,37.658 25.301,37.388 25.402,37.112 C25.43,37.039 25.453,36.966 25.475,36.899 C25.52,36.769 25.565,36.646 25.605,36.516 C25.661,36.331 25.717,36.14 25.762,35.949 C25.768,35.937 25.773,35.921 25.779,35.904 C26.049,34.858 26.189,33.762 26.189,32.632 L26.189,32.621 C26.189,32.334 26.172,32.042 26.15,31.761 L26.156,31.755 L41.682,21.923 C43.464,24.757 46.612,26.645 50.215,26.645 C53.711,26.645 56.786,24.863 58.596,22.165 C58.602,22.159 58.602,22.154 58.602,22.154 C59.675,20.552 60.3,18.624 60.3,16.555 C60.3,10.984 55.786,6.465 50.215,6.465 C50.17,6.465 50.119,6.47 50.074,6.47 C49.816,6.476 49.557,6.487 49.304,6.51 C49.169,6.521 49.04,6.543 48.911,6.56 C48.742,6.583 48.573,6.605 48.41,6.633 C48.264,6.661 48.113,6.69 47.966,6.723 C47.826,6.757 47.685,6.796 47.545,6.836 C47.399,6.875 47.247,6.914 47.101,6.959 C47.089,6.965 47.078,6.965 47.073,6.971 C45.263,7.561 43.683,8.652 42.485,10.074 L27.853,7.448 C27.724,5.74 27.072,4.177 26.043,2.935 C25.953,2.822 25.858,2.715 25.757,2.609 C25.661,2.502 25.56,2.395 25.453,2.294 C24.003,0.872 22.013,0 19.826,0 C19.562,0 19.303,0.017 19.05,0.04 C18.994,0.045 18.943,0.051 18.893,0.056 C18.696,0.079 18.511,0.113 18.325,0.146 C18.246,0.158 18.168,0.174 18.089,0.191 C17.92,0.231 17.757,0.276 17.594,0.321 C17.521,0.343 17.442,0.36 17.369,0.382 C17.353,0.388 17.33,0.399 17.313,0.405 C14.092,1.462 11.765,4.486 11.765,8.061 C11.765,10.152 12.563,12.058 13.867,13.492 L13.867,13.497 L13.873,13.497 L13.879,13.503 C13.879,13.508 13.884,13.508 13.884,13.508 C13.884,13.514 13.89,13.514 13.89,13.514 C13.89,13.52 13.895,13.52 13.895,13.52 L13.895,13.525 L13.901,13.525 L13.901,13.531 L13.907,13.531 L13.907,13.536 L13.912,13.536 L13.912,13.542 C13.912,13.548 13.918,13.548 13.918,13.548 L13.924,13.548 L13.924,13.553 C13.924,13.559 13.924,13.559 13.929,13.559 C13.929,13.564 13.929,13.564 13.935,13.564 L13.94,13.57 Z M40.136,32.958 L40.13,32.958 C38.894,32.958 37.893,33.959 37.893,35.212 C37.893,36.488 38.894,37.478 40.13,37.478 C41.373,37.478 42.356,36.488 42.356,35.212 C42.356,33.959 41.373,32.958 40.136,32.958 L40.136,32.958 Z M40.136,37.129 C39.135,37.129 38.32,36.286 38.32,35.212 C38.32,34.161 39.135,33.307 40.13,33.307 L40.136,33.307 C41.142,33.307 41.94,34.161 41.94,35.224 C41.94,36.286 41.142,37.14 40.136,37.129 L40.136,37.129 Z M40.541,35.297 L40.541,35.274 C40.81,35.195 41.03,34.993 41.03,34.661 C41.03,34.42 40.951,34.251 40.799,34.139 C40.647,34.032 40.4,33.948 40.018,33.948 C39.714,33.948 39.518,33.981 39.304,34.009 L39.304,36.528 L39.703,36.528 L39.703,35.443 L39.99,35.443 C40.31,35.443 40.468,35.566 40.529,35.887 C40.58,36.219 40.636,36.449 40.698,36.528 L41.119,36.528 C41.08,36.449 41.018,36.297 40.957,35.904 C40.912,35.533 40.76,35.336 40.541,35.297 L40.541,35.297 Z M39.995,35.134 L39.703,35.134 L39.703,34.279 C39.776,34.274 39.866,34.262 39.995,34.262 C40.445,34.262 40.608,34.482 40.608,34.701 C40.608,35.01 40.327,35.134 39.995,35.134 L39.995,35.134 Z" id="Imported-Layers" fill="#9B6F16" sketch:type="MSShapeGroup"></path>
    </g>
</svg>