<?xml version="1.0" encoding="UTF-8" standalone="no"?>
<svg width="61px" height="46px" viewBox="0 0 61 46" version="1.1" xmlns="http://www.w3.org/2000/svg" xmlns:xlink="http://www.w3.org/1999/xlink" xmlns:sketch="http://www.bohemiancoding.com/sketch/ns">
    <!-- Generator: Sketch 3.3.3 (12081) - http://www.bohemiancoding.com/sketch -->
    <title>Artboard 1</title>
    <desc>Created with Sketch.</desc>
    <defs></defs>
    <g id="Page-1" stroke="none" stroke-width="1" fill="none" fill-rule="evenodd" sketch:type="MSPage">
        <g id="Artboard-1" sketch:type="MSArtboardGroup" fill="#000000">
            <path d="M30.4784288,0 C23.2679132,0 16.7784803,2.94044233 12.2941357,7.60922388 C8.38413569,11.6805672 6,17.0650638 6,22.962863 C6,35.0204179 15.9599674,44.9214654 28.5666513,45.8404668 C29.1972944,45.8884016 29.8336174,45.9181737 30.4784288,45.9181737 C43.9760271,45.9181737 54.9577938,35.6242225 54.9577938,22.962863 C54.9577938,10.3015034 43.9760271,0 30.4784288,0 L30.4784288,0 Z M38.7786513,28.9500407 C32.0066649,24.1300896 32.4901954,19.8765563 30.4330529,13.2406974 C29.4199919,9.96957938 27.2484423,6.62006784 25.3063935,4.06091995 C24.8508874,4.10473541 24.3946947,4.15416825 23.9507354,4.20772049 C25.7199566,6.36210583 27.7256689,9.08927544 29.1042334,11.8222497 C32.3096282,18.1746811 30.1230991,24.1982469 38.29381,30.3686133 C41.8307544,33.0389227 45.1859457,34.8871615 47.6738155,36.0707408 C47.3141167,36.484616 46.9388141,36.886133 46.5468467,37.2727327 L46.3991723,37.4152266 C45.1251533,36.7280977 43.4927463,35.803791 41.3947843,34.5527408 C37.5848982,32.2802035 35.3212239,30.0780081 33.8774355,27.8756879 C33.7000516,27.9645672 33.4996364,28.0760407 33.2909824,28.2121682 C34.7495007,30.833232 37.3169498,33.5997856 42.4222008,36.8775821 C43.4024939,37.5058535 44.2973406,38.0639077 45.1172266,38.5613569 C44.7600868,38.8557069 44.3930231,39.1397585 44.0163474,39.4126377 C44.0164098,39.4126377 44.0164098,39.4127001 44.0164722,39.4127001 C43.99781,39.4262442 43.9787734,39.439289 43.9601113,39.4527083 C43.9503745,39.4596988 43.9405129,39.466502 43.9307761,39.4734925 C43.0291886,38.9934573 42.1377748,38.4546269 41.3182632,37.853194 C36.0480488,33.9847001 33.9656282,31.3001601 32.8035821,28.557137 C32.6839322,28.6616825 32.5660299,28.7745916 32.4527463,28.8968005 C32.3888331,28.9655197 32.3206757,29.0431018 32.2490231,29.1274247 C33.155791,32.0969525 35.0297449,34.9882741 41.6191669,39.8350638 C41.9044043,40.0444668 42.1816526,40.2482524 42.4540326,40.447981 C41.9793026,40.7347164 41.492464,41.0052863 40.9939539,41.2582551 C40.4193596,40.8361411 39.8058182,40.3836934 39.1419701,39.8915495 C34.170038,36.2088657 33.0416961,33.205384 31.9027436,29.550038 C31.1337259,30.5120434 30.0272917,31.9899104 28.5508602,33.3026893 C28.9498182,34.6119729 29.4613107,35.9109579 30.2491153,37.2674898 C31.5145834,39.4444071 33.6961818,41.4736499 35.8637992,43.1293379 C34.4421058,43.4635088 32.9664858,43.6688548 31.4516065,43.7307707 C31.1283582,43.7433786 30.8051099,43.7549254 30.4784912,43.7549254 C18.2522904,43.7549254 8.30730258,34.4312809 8.30730258,22.9628005 C8.30730258,17.6395332 10.4533243,12.7805726 13.97273,9.0989498 C16.8888928,11.239791 20.3105563,14.2930801 22.8569715,18.2141275 C25.103232,21.6706811 26.207981,24.4927218 26.9334328,26.9973813 C28.5225237,26.6124043 29.9749878,26.5715224 31.1809118,26.6758806 C30.5243664,23.8650746 29.1071669,20.0284125 26.0811533,15.6230855 C23.4857422,11.8450936 19.8127951,8.81814383 16.6930339,6.69140841 C17.125384,6.36834735 17.5715278,6.06095251 18.029156,5.76822524 C21.4936988,8.43223066 25.8211316,12.521924 28.6812456,17.9479267 C30.6858969,21.7496988 31.1810366,24.4049661 31.6652537,26.7269986 C31.839517,26.7485319 32.0075387,26.7728114 32.1690692,26.799213 C31.3636635,24.1986839 30.932749,21.325962 29.1042334,17.2099294 C26.7875061,11.9952022 22.6543718,7.77911805 19.3313867,4.99564993 C19.7378345,4.77257802 20.1523962,4.56148982 20.574635,4.36251018 C23.1922035,6.79083582 26.4151995,10.2961357 28.7414138,14.5452999 C31.3487463,19.3069552 31.0563311,23.0101737 32.7990882,26.918114 C33.0856988,26.9797802 33.3435984,27.0455658 33.5696662,27.1099159 C31.4308223,23.4463935 31.3576716,19.7629607 30.0118752,15.7359322 C28.6617096,11.6958589 25.3145699,7.44257531 22.5402768,4.39808684 C22.197867,4.44976662 21.8744315,4.50300678 21.5790828,4.5568711 L21.5671615,4.54257802 L21.5671615,4.52697422 C21.805213,4.39783718 22.056559,4.2738806 22.3178915,4.15497965 C22.196057,4.02259701 22.0759077,3.89352239 21.9567571,3.76607056 C22.3670122,3.60491452 22.783384,3.45499322 23.2055604,3.31674355 C23.3052999,3.43395929 23.4057883,3.552673 23.5077748,3.67419539 C23.8964966,3.53451018 24.2982632,3.40518589 24.7078942,3.28709634 C24.6174545,3.17231479 24.5282008,3.06027951 24.4396336,2.94961737 C26.3598372,2.43775034 28.3853976,2.1632483 30.4784912,2.1632483 C42.7033189,2.1632483 52.6505536,11.4943826 52.6505536,22.9628005 C52.6505536,27.3241248 51.2110095,31.3732483 48.7557829,34.7180163 C46.0636282,33.450114 42.3632809,31.5028847 38.7786513,28.9500407 L38.7786513,28.9500407 Z M18.573479,29.6710611 C18.931118,31.6029362 18.4837883,32.9234545 17.9274193,33.7743609 C17.8469037,33.0448521 17.7037856,32.191886 17.4506296,31.286616 C17.2701248,30.6401818 16.9771479,29.9799539 16.6388575,29.3526187 C15.6228005,27.4644966 14.1957395,25.8669796 14.1957395,25.8669796 C14.1957395,25.8669796 14.367194,26.2226839 14.6066811,26.7338643 C14.3421655,26.3898942 14.1650936,26.2131343 14.1650936,26.2131343 C14.1650936,26.2131343 14.5136201,26.8105726 15.0483311,28.0235495 C15.1789037,28.3228304 15.3117232,28.6189281 15.4446052,28.9277585 C15.8487436,29.8744722 16.2517585,30.9288521 16.6082117,32.4538426 C16.9181655,33.776483 16.8398345,34.5784559 16.7490204,34.9767273 C16.7478969,34.9777883 16.7456499,34.9789118 16.7433406,34.9799104 C16.6740597,35.0235387 16.6309932,35.0480678 16.6309932,35.0480678 C16.6309932,35.0480678 12.7879647,33.4315142 11.980749,30.0576608 C11.9342497,29.860616 11.8899349,29.6679403 11.8513623,29.479384 C11.8342605,29.4047978 11.820654,29.3324586 11.805924,29.2588711 C11.7820814,29.1450258 11.7593623,29.0320543 11.737829,28.9213297 C11.7207897,28.8330122 11.7060597,28.7466296 11.6900814,28.6614953 C11.6753514,28.5709932 11.6583121,28.4793677 11.6435821,28.3910502 C11.6276662,28.2941194 11.6129362,28.1992483 11.5981438,28.1055631 C11.5879077,28.0310393 11.5754871,27.9575142 11.5651886,27.8840516 C11.5493351,27.7817531 11.5368521,27.6817015 11.5232456,27.5826486 C11.5153189,27.5230421 11.5073297,27.4644966 11.5005265,27.4058887 C11.4868575,27.2972239 11.4744369,27.1918046 11.4630149,27.0863853 C11.458521,27.0426947 11.4528412,27.0011262 11.4482849,26.9575604 C11.4358643,26.8436526 11.4244423,26.7296201 11.4142687,26.6199566 C11.4130828,26.5922442 11.4108358,26.566654 11.4074654,26.5400651 C11.3972293,26.4197286 11.3869932,26.3004532 11.3790665,26.186483 C11.3790665,26.1811777 11.3790665,26.1789932 11.3778806,26.1736879 L11.3778806,26.1576472 C11.3143419,25.2897639 11.3086621,24.5932727 11.3018589,24.0980706 C11.2984261,23.8882931 11.2961791,23.7115332 11.2882524,23.5784016 C11.2212809,22.3835251 10.6184125,21.5240678 10.6184125,21.5240678 C10.6184125,21.5240678 15.8135414,22.5517341 17.8820434,27.4357232 C17.9649932,27.6316445 18.0387056,27.8233216 18.1079864,28.0086323 C18.1239023,28.0534464 18.1375088,28.0937666 18.1534247,28.1375197 C18.2044803,28.2855685 18.2555984,28.4314328 18.2986649,28.5730529 C18.3100868,28.6082551 18.3191995,28.6422714 18.3304966,28.6764125 C18.374749,28.8297042 18.4179403,28.9809986 18.4542659,29.1290475 C18.4599457,29.1470855 18.4621927,29.1651859 18.4678725,29.1823501 C18.5076309,29.3484369 18.5427707,29.5102171 18.5722931,29.6689389 C18.573479,29.6689389 18.573479,29.67 18.573479,29.6710611 L18.573479,29.6710611 Z M33.7583474,27.6582334 C33.7583474,27.6582334 32.7331777,28.0267327 31.9350122,28.9596526 C31.8465075,29.0651343 31.7329118,29.206692 31.6012782,29.3749634 C31.2879539,29.7732347 30.8496744,30.3355332 30.2582904,31.0075577 C30.2548575,31.0118643 30.2514247,31.0161085 30.2468684,31.0203528 C30.244559,31.0236608 30.2423745,31.0257205 30.2401275,31.0289037 C30.1617341,31.1184071 30.0788467,31.2088467 29.9959593,31.3004722 C29.9766106,31.3206947 29.9584478,31.3419783 29.9392239,31.3622632 C29.8631398,31.4463365 29.7837476,31.5315332 29.7019213,31.6189145 C29.6723365,31.6497476 29.6428765,31.6828277 29.6111072,31.7157829 C29.536209,31.7935522 29.4600624,31.8723826 29.3829172,31.9543962 C29.3392266,31.9969634 29.2960977,32.0405916 29.2529064,32.0853433 C29.1802551,32.158806 29.1064803,32.2322687 29.0309579,32.3068548 C28.9787788,32.361156 28.9231045,32.4144586 28.8674301,32.4687598 C28.7970882,32.5369172 28.7255604,32.6050122 28.6529091,32.6752917 C28.5858752,32.7381438 28.5155957,32.8041791 28.4473758,32.8691533 C28.3792809,32.930882 28.3134328,32.992673 28.2464613,33.0555251 C28.1602035,33.1332944 28.0705129,33.2120624 27.9818833,33.2908928 C27.9240868,33.3440706 27.8684125,33.39419 27.8082442,33.4463691 C27.6573243,33.5773786 27.5028467,33.7103853 27.3427517,33.8446404 C24.5893677,36.1428304 20.4625997,35.3515929 20.4625997,35.3515929 C20.4625997,35.3515929 20.4410041,35.3089634 20.413791,35.2355007 C20.4125427,35.233441 20.4114817,35.2313189 20.4114817,35.2291343 C20.5851832,34.8564532 21.0199674,34.1641438 22.0940081,33.2578752 C23.3315142,32.2142307 24.3147408,31.5784071 25.2319946,31.0320868 C25.5317123,30.8532049 25.823441,30.68381 26.1164179,30.5135414 C27.3053026,29.820171 27.9603501,29.5261954 27.9603501,29.5261954 C27.9603501,29.5261954 27.7060081,29.5731316 27.276654,29.7073243 C27.7900814,29.4229607 28.1500299,29.228038 28.1500299,29.228038 C28.1500299,29.228038 25.9971425,29.7444613 23.9967354,30.722133 C23.3325753,31.0480027 22.6831452,31.4229308 22.137137,31.8489145 C21.3674328,32.4462904 20.7203121,33.0598318 20.2003311,33.6082741 C20.2786621,32.6125645 20.737289,31.2951669 22.229137,29.9224071 C22.229137,29.9212836 22.229137,29.9203474 22.2301981,29.9203474 C22.3517205,29.8084369 22.4823555,29.6955902 22.618483,29.5826811 C22.6332754,29.5710095 22.6469444,29.558152 22.6627354,29.5464803 C22.7842578,29.4463664 22.9113976,29.3473134 23.0442171,29.2481981 C23.0760488,29.2259159 23.1033243,29.2035088 23.1339077,29.1800407 C23.2588005,29.0896011 23.3894355,28.9990991 23.5233786,28.9074735 C23.5630746,28.8798236 23.5982768,28.8531723 23.6390963,28.8275821 C23.8117368,28.7137368 23.9899946,28.5986431 24.1794871,28.4847354 C28.8981384,25.6497748 33.7583474,27.6582334 33.7583474,27.6582334 L33.7583474,27.6582334 Z M28.7754925,3.42072727 C26.6669824,3.42072727 24.6257558,3.68798915 22.6831452,4.18000814 C25.0503039,3.34083582 27.6153189,2.87865129 30.2956771,2.87865129 C41.8280706,2.87865129 51.2453379,11.3781655 51.815251,22.0640217 C50.1622469,11.5176011 40.4770312,3.42072727 28.7754925,3.42072727 L28.7754925,3.42072727 Z M49.4890366,21.6231208 C49.4890366,22.5837531 49.4004695,23.5251615 49.2381275,24.4421031 C49.33019,23.7541628 49.3822442,23.0544885 49.3822442,22.3430801 C49.3822442,16.2524179 45.928749,10.9116744 40.735867,7.9041981 L40.9073216,7.10334871 C46.060445,10.1310475 49.4890366,15.4996282 49.4890366,21.6231208 L49.4890366,21.6231208 Z M38.0656825,5.74338399 C38.4959729,5.90741113 38.9182741,6.08735414 39.3326486,6.28015468 L39.0045943,7.01815197 C38.6787246,6.8732863 38.3495468,6.73597286 38.0135034,6.60708548 L38.0656825,5.74338399 L38.0656825,5.74338399 Z M35.1502687,4.8977829 C35.5544071,4.98085753 35.9539891,5.08097151 36.3502632,5.18851289 L36.1220109,5.99579104 C35.692844,5.87976119 35.2580597,5.77534057 34.8164098,5.68908277 L35.1502687,4.8977829 L35.1502687,4.8977829 Z" id="Imported-Layers" sketch:type="MSShapeGroup"></path>
        </g>
    </g>
</svg>