<?xml version="1.0" encoding="UTF-8" standalone="no"?>
<svg width="356px" height="354px" viewBox="0 0 356 354" version="1.1" xmlns="http://www.w3.org/2000/svg" xmlns:xlink="http://www.w3.org/1999/xlink" xmlns:sketch="http://www.bohemiancoding.com/sketch/ns">
    <!-- Generator: Sketch 3.3.3 (12081) - http://www.bohemiancoding.com/sketch -->
    <title>Imported Layers</title>
    <desc>Created with Sketch.</desc>
    <defs></defs>
    <g id="Page-1" stroke="none" stroke-width="1" fill="none" fill-rule="evenodd" sketch:type="MSPage">
        <g id="Imported-Layers" sketch:type="MSLayerGroup">
            <path d="M355.455,313.309 C355.455,335.309 337.455,353.309 315.455,353.309 L40.573,353.309 C18.573,353.309 0.573,335.309 0.573,313.309 L0.573,40.297 C0.573,18.297 18.573,0.297 40.573,0.297 L315.455,0.297 C337.455,0.297 355.455,18.297 355.455,40.297 L355.455,313.309" id="Fill-1" fill="#2E337D" sketch:type="MSShapeGroup"></path>
            <path d="M73.717,203.631 C59,203.631 47.024,215.606 47.024,230.324 C47.024,245.046 59,257.02 73.717,257.02 C88.437,257.02 100.412,245.046 100.412,230.324 C100.412,215.606 88.437,203.631 73.717,203.631 L73.717,203.631 Z M73.719,247.827 C64.066,247.827 56.215,239.975 56.215,230.322 C56.215,220.672 64.066,212.824 73.719,212.824 C83.369,212.824 91.219,220.672 91.219,230.322 C91.219,239.975 83.369,247.827 73.719,247.827 L73.719,247.827 Z M73.719,217.379 C66.578,217.379 60.77,223.185 60.77,230.324 C60.77,237.463 66.578,243.27 73.719,243.27 C80.858,243.27 86.664,237.463 86.664,230.324 C86.664,223.185 80.858,217.379 73.719,217.379 L73.719,217.379 Z M73.719,238.715 C69.089,238.715 65.324,234.952 65.324,230.324 C65.324,225.697 69.089,221.933 73.719,221.933 C78.346,221.933 82.109,225.697 82.109,230.324 C82.109,234.952 78.346,238.715 73.719,238.715 L73.719,238.715 Z M254.119,203.631 C239.4,203.631 227.427,215.606 227.427,230.324 C227.427,245.046 239.4,257.02 254.119,257.02 C268.838,257.02 280.813,245.046 280.813,230.324 C280.813,215.606 268.838,203.631 254.119,203.631 L254.119,203.631 Z M254.121,247.827 C244.467,247.827 236.617,239.975 236.617,230.322 C236.617,220.672 244.467,212.824 254.121,212.824 C263.77,212.824 271.622,220.672 271.622,230.322 C271.622,239.975 263.77,247.827 254.121,247.827 L254.121,247.827 Z M254.122,217.379 C246.981,217.379 241.171,223.185 241.171,230.324 C241.171,237.463 246.981,243.27 254.122,243.27 C261.26,243.27 267.067,237.463 267.067,230.324 C267.067,223.185 261.26,217.379 254.122,217.379 L254.122,217.379 Z M254.123,238.715 C249.493,238.715 245.726,234.952 245.726,230.324 C245.726,225.697 249.493,221.933 254.123,221.933 C258.747,221.933 262.511,225.697 262.511,230.324 C262.511,234.952 258.747,238.715 254.123,238.715 L254.123,238.715 Z M319.271,96.587 L229.516,96.587 C204.312,96.587 183.23,126.528 183.23,126.528 C169.885,127.216 143.321,126.434 131.038,133.222 C131.038,133.222 108.79,147.65 92.893,174.749 C81,177.507 23.369,185.078 23.369,204.231 L23.369,231.302 C23.369,237.582 28.478,242.691 34.757,242.691 L44.924,242.691 C44.293,241.226 43.765,239.705 43.361,238.138 C42.719,235.638 42.377,233.021 42.377,230.327 C42.377,213.046 56.436,198.986 73.716,198.986 C90.999,198.986 105.059,213.046 105.059,230.327 C105.059,233.021 104.716,235.638 104.071,238.138 C103.668,239.705 103.142,241.226 102.509,242.691 L225.327,242.691 C224.695,241.226 224.169,239.705 223.764,238.138 C223.122,235.638 222.78,233.021 222.78,230.327 C222.78,213.046 236.84,198.986 254.119,198.986 C271.4,198.986 285.46,213.046 285.46,230.327 C285.46,232.823 285.158,235.245 284.604,237.573 C284.223,239.178 283.722,240.735 283.104,242.235 C301.431,241.122 330.658,237.295 330.658,224.237 L330.658,107.976 C330.658,101.699 325.55,96.587 319.271,96.587 L319.271,96.587 Z M39.359,214.076 C39.359,216.339 37.525,218.174 35.261,218.174 L27.91,218.174 L27.91,206.359 L35.261,206.359 C37.525,206.359 39.359,208.193 39.359,210.457 L39.359,214.076 L39.359,214.076 Z M183.23,169.558 C151.951,183.398 98.761,182.739 98.761,182.739 L100.747,179.368 C114.361,156.157 133.505,142.578 135.744,141.036 C143.987,136.735 163.27,136.227 174.822,135.925 L175.017,135.921 C177.987,135.84 180.786,135.766 183.23,135.648 L183.23,169.558 L183.23,169.558 Z M263.033,186.445 L263.033,160.65 L237.238,160.65 L237.238,137.658 L263.033,137.658 L263.033,111.863 L286.025,111.863 L286.025,137.658 L311.82,137.658 L311.82,160.65 L286.025,160.65 L286.025,186.445 L263.033,186.445 L263.033,186.445 Z M323.195,218.174 L317.288,218.174 C315.025,218.174 313.191,216.339 313.191,214.076 L313.191,210.457 C313.191,208.193 315.025,206.359 317.288,206.359 L323.195,206.359 L323.195,218.174 L323.195,218.174 Z" id="Fill-2" fill="#FFFFFF" sketch:type="MSShapeGroup"></path>
        </g>
    </g>
</svg>