<?xml version="1.0" encoding="UTF-8" standalone="no"?>
<svg width="355px" height="354px" viewBox="0 0 355 354" version="1.1" xmlns="http://www.w3.org/2000/svg" xmlns:xlink="http://www.w3.org/1999/xlink" xmlns:sketch="http://www.bohemiancoding.com/sketch/ns">
    <!-- Generator: Sketch 3.3.3 (12081) - http://www.bohemiancoding.com/sketch -->
    <title>Imported Layers</title>
    <desc>Created with Sketch.</desc>
    <defs></defs>
    <g id="Page-1" stroke="none" stroke-width="1" fill="none" fill-rule="evenodd" sketch:type="MSPage">
        <g id="Imported-Layers" sketch:type="MSLayerGroup">
            <path d="M354.915,313.309 C354.915,335.309 336.915,353.309 314.915,353.309 L40.033,353.309 C18.033,353.309 0.033,335.309 0.033,313.309 L0.033,40.297 C0.033,18.297 18.033,0.297 40.033,0.297 L314.915,0.297 C336.915,0.297 354.915,18.297 354.915,40.297 L354.915,313.309" id="Fill-1" fill="#2E337D" sketch:type="MSShapeGroup"></path>
            <path d="M230.229,228.054 C229.284,222.872 231.593,216.38 236.254,211.112 C236.445,210.916 236.689,210.636 236.938,210.348 L237.087,210.18 C239.382,207.804 242.069,205.86 244.869,204.562 C246.714,203.706 248.516,203.161 250.221,202.937 C250.817,202.859 251.394,202.819 251.949,202.819 C257.786,202.819 259.445,207.116 259.91,209.675 C261.432,218.017 254.73,228.775 245.272,233.161 C243.43,234.016 241.626,234.564 239.911,234.788 C239.319,234.867 238.738,234.906 238.187,234.906 C232.352,234.906 230.693,230.613 230.229,228.054 L230.229,228.054 Z M216.475,229.85 C215.955,227.003 214.318,223.522 209.469,223.072 C209.174,223.059 208.888,223.036 208.66,223.012 L208.531,223 C208.522,223 208.511,223 208.498,222.998 L208.464,222.998 C207.939,222.998 207.373,223.039 206.784,223.115 C205.076,223.337 203.278,223.879 201.44,224.733 C191.985,229.128 185.282,239.884 186.803,248.223 C187.157,250.141 188.11,252.719 190.685,254.112 C191.857,254.744 193.256,255.069 194.847,255.069 C195.381,255.069 195.942,255.032 196.501,254.958 C198.209,254.735 200.006,254.188 201.844,253.335 C211.298,248.946 217.997,238.191 216.475,229.85 L216.475,229.85 Z M223.983,179.259 C223.45,179.259 222.893,179.296 222.332,179.369 C220.622,179.593 218.829,180.139 217.001,180.989 C207.55,185.376 200.853,196.132 202.374,204.473 C202.895,207.34 204.555,210.846 209.473,211.256 L209.574,211.263 C209.842,211.276 210.106,211.295 210.369,211.32 L210.4,211.32 C210.929,211.32 211.492,211.283 212.059,211.209 C213.763,210.988 215.563,210.44 217.405,209.584 C220.219,208.281 222.918,206.327 225.216,203.943 L225.289,203.86 C225.567,203.539 225.85,203.217 226.077,202.978 C230.701,197.719 232.992,191.252 232.05,186.099 C231.683,184.086 230.657,181.406 227.875,180.064 C226.762,179.53 225.452,179.259 223.983,179.259 L223.983,179.259 Z M330.135,235.816 L195.848,284.941 L165.983,284.941 L38.632,212.371 L38.632,202.177 L90.593,188.167 C93.295,181.359 99.046,174.993 106.324,171.613 C109.698,170.046 111.656,169.406 111.633,169.448 C111.633,169.448 106.4,167.163 104.343,160.136 L54.299,136.7 L54.299,197.952 L46.841,199.963 L46.841,133.207 L24.814,122.892 L24.814,114.338 L53.615,92.015 L70.055,95.671 L96.439,80.343 L114.766,83.996 L137.514,68.665 L163.662,73.885 L309.28,129.717 L309.28,139.457 L300.369,137.678 L279.501,133.512 L258.627,152.176 L300.369,137.678 L300.369,142.948 L221.697,170.273 L231.319,174.933 L231.309,174.949 C235.224,176.831 238.039,180.335 238.928,185.2 C239.138,186.354 239.22,187.537 239.204,188.734 L293.523,214.282 L293.523,145.327 L300.369,142.948 L300.369,217.502 L309.548,221.819 L309.548,227.154 L330.135,235.816 L330.135,235.816 Z M233.425,209.321 C228.216,215.211 225.653,222.566 226.738,228.512 C227.95,235.15 233.204,238.69 240.451,237.742 C242.576,237.464 244.771,236.805 246.976,235.782 C257.795,230.761 265.157,218.845 263.401,209.221 C262.189,202.578 256.935,199.039 249.685,199.984 C247.563,200.263 245.369,200.922 243.17,201.943 C239.954,203.437 236.886,205.651 234.299,208.341 L234.09,208.581 C233.872,208.833 233.654,209.079 233.425,209.321 L233.425,209.321 Z M182.53,208.579 L182.53,228.393 C186.044,223.695 190.827,219.648 196.443,217.039 C196.955,216.8 197.467,216.58 197.98,216.371 L182.53,208.579 L182.53,208.579 Z M203.546,255.954 C214.359,250.935 221.727,239.019 219.967,229.394 C218.976,223.959 215.266,220.577 209.781,220.093 C209.52,220.083 209.265,220.064 209.008,220.04 L208.804,220.022 C208.757,220.019 208.714,220.018 208.668,220.013 C207.886,220.002 207.072,220.054 206.25,220.161 C204.13,220.436 201.936,221.095 199.738,222.115 C188.922,227.138 181.556,239.055 183.312,248.679 C183.974,252.302 185.864,255.052 188.778,256.629 C191.074,257.873 193.93,258.312 197.043,257.909 C199.16,257.634 201.35,256.973 203.546,255.954 L203.546,255.954 Z M229.619,177.467 C227.399,176.401 224.694,176.038 221.792,176.415 C219.677,176.692 217.49,177.35 215.301,178.367 C204.492,183.39 197.124,195.305 198.88,204.929 C199.876,210.382 203.616,213.771 209.14,214.231 C209.193,214.235 209.247,214.239 209.304,214.243 C209.566,214.255 209.828,214.276 210.086,214.299 L210.188,214.307 C210.971,214.318 211.781,214.267 212.598,214.163 C214.717,213.888 216.907,213.224 219.109,212.203 C222.325,210.71 225.391,208.498 227.982,205.804 L228.14,205.623 C228.392,205.332 228.646,205.043 228.912,204.76 C234.082,198.883 236.624,191.566 235.542,185.642 C234.846,181.822 232.799,178.997 229.619,177.467 L229.619,177.467 Z M258.626,152.176 L237.31,147.584 L215.498,167.156 L258.626,152.176 L258.626,152.176 Z M127.119,82.477 L257.311,135.419 L268.029,125.834 L138.531,75.49 L127.119,82.477 L127.119,82.477 Z M83.59,94.943 L212,149.854 L226.453,140.187 L97.39,87.224 L83.59,94.943 L83.59,94.943 Z M106.06,145.116 L165.105,172.227 L181.244,154.538 L52.843,99.511 L36.475,113.166 L106.06,145.116 L106.06,145.116 Z M113.244,166.892 L113.341,166.939 L113.387,166.96 L146.94,183.885 C146.698,183.096 146.495,182.261 146.335,181.375 C146.234,180.824 146.181,180.263 146.126,179.703 L108.78,162.214 C110.588,165.6 113.099,166.826 113.244,166.892 L113.244,166.892 Z M92.561,199.056 C93.203,202.57 95.067,205.182 97.947,206.609 L98.016,206.65 L98.084,206.689 L130.829,224.724 C128.738,212.786 137.415,198.665 150.649,192.518 C150.652,192.515 150.662,192.512 150.671,192.507 L111.362,172.682 C110.559,173 109.411,173.484 107.975,174.151 C102.261,176.804 97.514,181.683 94.797,187.033 C92.772,191.021 91.87,195.269 92.561,199.056 L92.561,199.056 Z M175.159,204.861 L157.61,196.01 C156.759,196.345 155.52,196.863 153.943,197.595 C143.196,202.586 135.873,214.425 137.619,223.984 C138.084,226.527 139.162,228.628 140.829,230.23 L175.159,249.136 L175.159,204.861 L175.159,204.861 Z M175.159,186.437 L182.53,183.878 L182.53,201.834 L192.313,206.767 C192.238,206.456 192.171,206.136 192.111,205.813 C190.066,194.603 197.511,181.447 209.334,174.685 L209.189,174.617 L175.159,186.437 L175.159,181.166 L211.347,168.598 L201.536,163.846 L196.03,162.503 L175.159,181.166 L175.159,181.162 L166.252,189.128 L153.882,183.335 C155.566,187.89 158.643,189.766 159.276,190.105 L159.639,190.29 L175.159,198.117 L175.159,186.437 L175.159,186.437 Z" id="Fill-2" fill="#FFFFFF" sketch:type="MSShapeGroup"></path>
        </g>
    </g>
</svg>