<?xml version="1.0" encoding="UTF-8" standalone="no"?>
<svg width="356px" height="354px" viewBox="0 0 356 354" version="1.1" xmlns="http://www.w3.org/2000/svg" xmlns:xlink="http://www.w3.org/1999/xlink" xmlns:sketch="http://www.bohemiancoding.com/sketch/ns">
    <!-- Generator: Sketch 3.3.3 (12081) - http://www.bohemiancoding.com/sketch -->
    <title>Artboard</title>
    <desc>Created with Sketch.</desc>
    <defs></defs>
    <g id="Page-1" stroke="none" stroke-width="1" fill="none" fill-rule="evenodd" sketch:type="MSPage">
        <g id="Artboard" sketch:type="MSArtboardGroup" fill="#000000">
            <g id="silhouette-logo" sketch:type="MSLayerGroup" transform="translate(0.000000, 42.000000)">
                <path d="M238.992787,113.32513 L143.74623,152.867565 L143.71082,152.902913 C142.914098,151.542022 142.087869,150.187022 141.19082,148.861478 C140.990164,148.59637 140.789508,148.331261 140.594754,148.036696 C139.632787,146.675804 138.63541,145.320804 137.573115,144.024717 C137.378361,143.759609 137.207213,143.500391 136.977049,143.264739 C135.849836,141.874391 134.657705,140.548848 133.430164,139.258652 C133.09377,138.928739 132.798689,138.592935 132.468197,138.233565 C131.240656,137.008174 129.977705,135.782783 128.649836,134.622196 C128.319344,134.321739 127.953443,134.027174 127.587541,133.726717 C126.230164,132.536674 124.837377,131.411435 123.40918,130.351 C123.179016,130.150696 122.913443,129.985739 122.677377,129.820783 C121.28459,128.825152 119.856393,127.86487 118.434098,126.939935 C118.133115,126.774978 117.902951,126.610022 117.601967,126.439174 C116.043934,125.478891 114.420984,124.553957 112.756721,123.723283 C112.42623,123.52887 112.060328,123.363913 111.729836,123.198957 C110.041967,122.368283 108.348197,121.572957 106.589508,120.842435 C106.323934,120.748174 106.022951,120.648022 105.757377,120.512522 C101.944918,119.022022 97.9967213,117.79663 93.9186885,116.907043 C93.8183607,116.907043 93.747541,116.871696 93.6531148,116.836348 C93.6177049,116.836348 93.5822951,116.836348 93.5527869,116.806891 C93.517377,116.806891 93.452459,116.806891 93.4170492,116.771543 C93.387541,116.771543 93.3521311,116.736196 93.2872131,116.736196 C93.2518033,116.736196 93.2222951,116.736196 93.1868852,116.706739 L96.7337705,90.4786522 C96.7691803,90.5081087 96.7691803,90.5081087 96.8045902,90.5081087 C96.8340984,90.5434565 96.8340984,90.5434565 96.8695082,90.5434565 C96.8990164,90.5788043 96.9344262,90.5788043 96.9698361,90.5788043 C96.9698361,90.5788043 96.9993443,90.6082609 97.0347541,90.6082609 C103.107541,93.4596522 109.87082,95.0149565 117.005902,95.0149565 C140.494426,95.0149565 159.969836,77.9596304 163.847213,55.6021304 L240.680656,76.5987391 C238.196066,83.1263043 236.803279,90.1428478 236.803279,97.5305435 C236.803279,103.02713 237.6,108.293957 238.992787,113.32513 L238.992787,113.32513 L238.992787,113.32513 Z M82.2688525,79.945 C82.2688525,79.9803478 82.2688525,79.9803478 82.3042623,79.9803478 C82.3042623,80.0098043 82.3396721,80.0098043 82.3396721,80.0098043 L82.3396721,80.0451522 L82.3691803,80.0451522 C82.3691803,80.0805 82.4045902,80.0805 82.4045902,80.0805 L82.4045902,80.1099565 L82.4340984,80.1099565 C82.4340984,80.1453043 82.4695082,80.1453043 82.4695082,80.1453043 L82.4695082,80.1747609 L82.504918,80.1747609 L82.504918,80.2101087 L82.5344262,80.2101087 L82.5344262,80.2454565 L82.5698361,80.2454565 L82.5698361,80.274913 L82.6052459,80.274913 C82.6052459,80.3102609 82.6347541,80.3102609 82.6347541,80.3102609 L82.6347541,80.3456087 L82.6701639,80.3456087 L82.6701639,80.3750652 C82.6701639,80.410413 82.6701639,80.410413 82.7055738,80.410413 C82.7055738,80.4398696 82.7055738,80.4398696 82.735082,80.4398696 C82.735082,80.4752174 82.735082,80.4752174 82.7704918,80.4752174 C82.7704918,80.5105652 82.7704918,80.5105652 82.8,80.5105652 C82.8,80.5400217 82.8,80.5400217 82.8354098,80.5400217 C82.8354098,80.5753696 82.8354098,80.5753696 82.8708197,80.5753696 C82.8708197,80.6107174 82.8708197,80.6107174 82.9003279,80.6107174 C82.9003279,80.6401739 82.9357377,80.6401739 82.9357377,80.6401739 C82.9357377,80.6755217 82.9652459,80.6755217 82.9652459,80.6755217 C82.9652459,80.7049783 83.0006557,80.7049783 83.0006557,80.7049783 L83.0006557,80.7403261 L83.0360656,80.7403261 L83.0360656,80.7756739 L83.0655738,80.8051304 L83.1009836,80.8051304 L83.1009836,80.8404783 L83.1363934,80.8404783 L83.1363934,80.8699348 L83.1659016,80.8699348 L83.1659016,80.9052826 L83.2013115,80.9052826 L83.2013115,80.9406304 L83.2308197,80.9406304 L83.2308197,80.970087 L65.7147541,115.94087 L65.6852459,115.94087 C65.6852459,115.94087 65.6852459,115.976217 65.6498361,115.976217 L65.4491803,115.976217 C65.4196721,116.011565 65.4196721,116.011565 65.3842623,116.011565 L65.2544262,116.011565 L65.2190164,116.041022 L65.1186885,116.041022 C65.0891803,116.07637 65.0537705,116.07637 65.0183607,116.07637 L64.8531148,116.07637 L64.8236066,116.111717 L64.6878689,116.111717 C64.6878689,116.111717 64.6878689,116.141174 64.652459,116.141174 L64.4872131,116.141174 C64.4872131,116.141174 64.4872131,116.176522 64.4577049,116.176522 L64.292459,116.176522 C64.292459,116.176522 64.292459,116.205978 64.2570492,116.205978 L64.1567213,116.205978 C64.1272131,116.241326 64.0918033,116.241326 64.0563934,116.241326 L63.9265574,116.241326 C63.8911475,116.276674 63.8911475,116.276674 63.8616393,116.276674 L63.7259016,116.276674 L63.6963934,116.30613 L63.5960656,116.30613 C63.5606557,116.341478 63.5252459,116.341478 63.4957377,116.341478 L63.3954098,116.341478 C63.3954098,116.341478 63.36,116.406283 63.3304918,116.376826 L63.1652459,116.376826 C63.1652459,116.376826 63.1652459,116.406283 63.1298361,116.406283 L62.9940984,116.406283 C62.9645902,116.44163 62.9291803,116.44163 62.8996721,116.44163 L62.7993443,116.44163 L62.7639344,116.471087 C62.7285246,116.506435 62.7285246,116.506435 62.6990164,116.471087 L62.5986885,116.471087 L62.5632787,116.506435 L62.3980328,116.506435 L62.3685246,116.541783 L62.197377,116.541783 L62.1678689,116.571239 L62.1029508,116.571239 C62.067541,116.641935 62.0321311,116.671391 61.9377049,116.706739 L62.002623,116.571239 C61.2059016,116.736196 60.4091803,116.971848 59.612459,117.172152 C59.1816393,117.266413 58.7508197,117.366565 58.32,117.466717 C56.7265574,117.896783 55.1331148,118.326848 53.575082,118.827609 C53.4393443,118.857065 53.344918,118.92187 53.2091803,118.957217 C22.3259016,129.060804 0,158.034239 0,192.245043 C0,234.86863 34.6013115,269.409348 77.2937705,269.409348 C98.7580328,269.409348 118.168525,260.631304 132.167213,246.492174 C132.497705,246.162261 132.828197,245.826457 133.158689,245.467087 C134.321311,244.241696 135.448525,243.016304 136.51082,241.720217 C137.012459,241.125196 137.508197,240.565522 137.974426,239.935152 C138.535082,239.269435 139.036721,238.544804 139.567869,237.84963 C140.093115,237.154457 140.594754,236.423935 141.090492,235.693413 C141.556721,235.063043 141.987541,234.403217 142.382951,233.772848 C143.24459,232.482652 144.041311,231.127652 144.808525,229.766761 C145.074098,229.271891 145.36918,228.706326 145.634754,228.176109 C146.201311,227.151022 146.732459,226.090587 147.228197,225.000696 C147.49377,224.470478 147.723934,223.940261 147.96,223.410043 C148.656393,221.854739 149.317377,220.264087 149.913443,218.638087 C150.078689,218.208022 150.214426,217.777957 150.344262,217.383239 C150.609836,216.61737 150.87541,215.892739 151.111475,215.12687 C151.441967,214.036978 151.772459,212.911739 152.038033,211.7865 C152.073443,211.715804 152.102951,211.621543 152.138361,211.521391 C153.731803,205.359087 154.558033,198.902217 154.558033,192.245043 L154.558033,192.180239 C154.558033,190.489435 154.457705,188.769174 154.327869,187.113717 L154.363279,187.07837 L245.992131,129.155065 C256.508852,145.851022 275.087213,156.973804 296.35082,156.973804 C316.982951,156.973804 335.130492,146.4755 345.812459,130.580761 C345.847869,130.545413 345.847869,130.515957 345.847869,130.515957 C352.180328,121.078087 355.868852,109.719652 355.868852,97.5305435 C355.868852,64.710087 329.228852,38.0872826 296.35082,38.0872826 C296.085246,38.0872826 295.784262,38.1167391 295.518689,38.1167391 C293.996066,38.152087 292.467541,38.2168913 290.974426,38.3523913 C290.177705,38.4171957 289.416393,38.5468043 288.655082,38.6469565 C287.657705,38.7824565 286.660328,38.9120652 285.698361,39.0770217 C284.836721,39.2419783 283.945574,39.4128261 283.078033,39.6072391 C282.251803,39.8075435 281.419672,40.0373043 280.593443,40.2729565 C279.731803,40.5027174 278.834754,40.7324783 277.973115,40.997587 C277.902295,41.0329348 277.837377,41.0329348 277.807869,41.0682826 C267.125902,44.5441522 257.801311,50.9715652 250.731148,59.349 L164.378361,43.8784348 C163.617049,33.816087 159.76918,24.6079783 153.696393,17.2909783 C153.165246,16.6252609 152.60459,15.9948913 152.008525,15.370413 C151.441967,14.7400435 150.845902,14.1096739 150.214426,13.5146522 C141.657049,5.13721739 129.912787,0 117.005902,0 C115.447869,0 113.919344,0.100152174 112.42623,0.235652174 C112.095738,0.265108696 111.794754,0.300456522 111.499672,0.329913043 C110.337049,0.465413043 109.245246,0.665717391 108.147541,0.860130435 C107.681311,0.930826087 107.220984,1.02508696 106.754754,1.12523913 C105.757377,1.3608913 104.79541,1.626 103.833443,1.8911087 C103.402623,2.02071739 102.936393,2.12086957 102.505574,2.25047826 C102.411148,2.28582609 102.27541,2.35063043 102.175082,2.38597826 C83.1659016,8.61308696 69.4327869,26.4283913 69.4327869,47.4898043 C69.4327869,59.8085217 74.1422951,71.0373478 81.8380328,79.4854783 L81.8380328,79.5149348 L81.8734426,79.5149348 L81.9088525,79.5502826 C81.9088525,79.5797391 81.9383607,79.5797391 81.9383607,79.5797391 C81.9383607,79.615087 81.9737705,79.615087 81.9737705,79.615087 C81.9737705,79.6504348 82.0032787,79.6504348 82.0032787,79.6504348 L82.0032787,79.6798913 L82.0386885,79.6798913 L82.0386885,79.7152391 L82.0740984,79.7152391 L82.0740984,79.7446957 L82.1036066,79.7446957 L82.1036066,79.7800435 C82.1036066,79.8153913 82.1390164,79.8153913 82.1390164,79.8153913 L82.1744262,79.8153913 L82.1744262,79.8448478 C82.1744262,79.8801957 82.1744262,79.8801957 82.2039344,79.8801957 C82.2039344,79.9096522 82.2039344,79.9096522 82.2393443,79.9096522 L82.2688525,79.945 L82.2688525,79.945 Z M236.868197,194.165609 L236.832787,194.165609 C229.538361,194.165609 223.63082,200.062804 223.63082,207.444609 C223.63082,214.961913 229.538361,220.794304 236.832787,220.794304 C244.168525,220.794304 249.969836,214.961913 249.969836,207.444609 C249.969836,200.062804 244.168525,194.165609 236.868197,194.165609 L236.868197,194.165609 L236.868197,194.165609 Z M236.868197,218.738239 C230.960656,218.738239 226.15082,213.77187 226.15082,207.444609 C226.15082,201.252848 230.960656,196.221674 236.832787,196.221674 L236.868197,196.221674 C242.805246,196.221674 247.514754,201.252848 247.514754,207.515304 C247.514754,213.77187 242.805246,218.803043 236.868197,218.738239 L236.868197,218.738239 L236.868197,218.738239 Z M239.258361,207.94537 L239.258361,207.80987 C240.845902,207.344457 242.144262,206.154413 242.144262,204.1985 C242.144262,202.778696 241.678033,201.783065 240.780984,201.123239 C239.883934,200.49287 238.42623,199.998 236.171803,199.998 C234.377705,199.998 233.220984,200.192413 231.958033,200.35737 L231.958033,215.197565 L234.312787,215.197565 L234.312787,208.8055 L236.006557,208.8055 C237.895082,208.8055 238.827541,209.53013 239.187541,211.421239 C239.488525,213.377152 239.819016,214.732152 240.184918,215.197565 L242.669508,215.197565 C242.439344,214.732152 242.073443,213.836674 241.713443,211.521391 C241.447869,209.335717 240.55082,208.17513 239.258361,207.94537 L239.258361,207.94537 L239.258361,207.94537 Z M236.036066,206.985087 L234.312787,206.985087 L234.312787,201.948022 C234.743607,201.918565 235.274754,201.84787 236.036066,201.84787 C238.691803,201.84787 239.65377,203.143957 239.65377,204.434152 C239.65377,206.254565 237.99541,206.985087 236.036066,206.985087 L236.036066,206.985087 L236.036066,206.985087 Z" id="Shape" sketch:type="MSShapeGroup"></path>
            </g>
        </g>
    </g>
</svg>