<?xml version="1.0" encoding="UTF-8" standalone="no"?>
<svg width="61px" height="46px" viewBox="0 0 61 46" version="1.1" xmlns="http://www.w3.org/2000/svg" xmlns:xlink="http://www.w3.org/1999/xlink" xmlns:sketch="http://www.bohemiancoding.com/sketch/ns">
    <!-- Generator: Sketch 3.3.3 (12081) - http://www.bohemiancoding.com/sketch -->
    <title>Artboard 1</title>
    <desc>Created with Sketch.</desc>
    <defs></defs>
    <g id="Page-1" stroke="none" stroke-width="1" fill="none" fill-rule="evenodd" sketch:type="MSPage">
        <g id="Artboard-1" sketch:type="MSArtboardGroup" fill="#231F1F">
            <path d="M27.8709839,23.6722892 C24.0546924,16.6804206 21.1267924,13.7727606 26.0999182,2.50486349 C19.1382782,3.20958349 13.8800182,7.14383206 9.89280387,13.1798206 C7.12748101,17.3661492 4.26864673,27.0243749 11.9628696,32.1211092 C21.4181696,38.3846006 31.443081,30.2163806 27.8709839,23.6722892 L27.8709839,23.6722892 Z M8.05254101,20.2261006 C8.91812958,15.5301578 12.5224267,7.55566349 24.1414353,3.7929292 C17.4768239,7.08442635 14.1853267,12.3752149 12.1562667,18.2275978 C10.127141,24.0799806 12.610221,30.6889978 15.5682182,32.9958978 C9.34619244,30.6255835 7.18695244,24.9220435 8.05254101,20.2261006 L8.05254101,20.2261006 Z M19.614641,22.3509063 L17.5841353,22.3509063 L17.5841353,28.2648635 L16.7167067,28.2648635 L16.7167067,22.3509063 L14.6961239,22.3509063 L14.6961239,21.6214778 L19.614641,21.6214778 L19.614641,22.3509063 L19.614641,22.3509063 Z M27.0573096,28.9553892 C28.7204067,24.6291549 9.44778673,12.6674463 25.3622753,3.23968063 C15.6128382,16.8844635 31.4773839,22.3510378 27.0573096,28.9553892 L27.0573096,28.9553892 Z M50.1368896,8.89163492 C47.8941267,4.40361206 40.9592324,-2.90131937 32.6982896,1.2137092 C22.5462867,6.2704892 24.6077439,19.0364749 32.0611239,19.2149549 C40.024381,19.4058549 44.0064039,18.3241321 51.2782153,28.2648635 C54.148681,21.8835463 53.3706239,15.3626521 50.1368896,8.89163492 L50.1368896,8.89163492 Z M27.8926696,15.8687178 C30.8077553,19.4720949 50.8031667,8.76237492 51.010561,27.2587121 C44.0686353,11.9929549 31.402141,22.9987835 27.8926696,15.8687178 L27.8926696,15.8687178 Z M34.8462924,9.64327492 L34.8462924,6.86369206 L35.7136553,6.86369206 L35.7136553,13.5070778 L34.8462924,13.5070778 L34.8462924,10.3923521 L31.6329953,10.3923521 L31.6329953,13.5070778 L30.7753582,13.5070778 L30.7753582,6.86369206 L31.6329953,6.86369206 L31.6329953,9.64327492 L34.8462924,9.64327492 L34.8462924,9.64327492 Z M51.1418582,25.9247121 C51.6236753,18.5072778 48.6874953,13.0113292 44.6337124,8.32787206 C40.580061,3.64454635 33.6148724,2.49034063 30.1379296,3.89859778 C35.3017582,-0.304685082 41.3207924,0.677217775 44.9548582,3.77472635 C48.5888582,6.87230063 53.692821,13.9810092 51.1418582,25.9247121 L51.1418582,25.9247121 Z M33.4614953,25.1097235 C29.314661,31.9106921 28.2604067,35.9001406 16.0155353,37.2272406 C20.1067753,42.9038378 26.142961,45.4904178 33.3639096,45.9255121 C38.372061,46.2272721 48.1657896,43.8738463 48.7325096,34.6622149 C49.4292124,23.3418778 37.3428439,18.7441778 33.4614953,25.1097235 L33.4614953,25.1097235 Z M40.3915924,29.7176749 C41.0717353,29.7176749 41.5645924,29.8753892 41.8603067,30.0429606 L41.6237353,30.7427521 C41.4068782,30.6244663 40.9633067,30.4273235 40.3620867,30.4273235 C39.4552296,30.4273235 39.1102296,30.9694006 39.1102296,31.4228949 C39.1102296,32.0438292 39.5143724,32.3494663 40.431021,32.7042578 C41.5547353,33.1380378 42.1263839,33.6800492 42.1263839,34.6559063 C42.1263839,35.6809835 41.3674496,36.5681263 39.8001639,36.5681263 C39.1595153,36.5681263 38.4597239,36.3808406 38.1048667,36.1442692 L38.3217239,35.4246978 C38.7061524,35.6613349 39.2679439,35.8584121 39.8593724,35.8584121 C40.7365924,35.8584121 41.2491639,35.3951263 41.2491639,34.7249063 C41.2491639,34.1039721 40.8943724,33.7490492 39.9973067,33.4040492 C38.9130867,33.0196863 38.2428667,32.4578949 38.2428667,31.5214663 C38.2428667,30.4864663 39.1004382,29.7176749 40.3915924,29.7176749 L40.3915924,29.7176749 Z M17.0207667,37.4985749 C33.712261,39.1195492 30.5141439,22.6471463 38.4436896,23.1728606 C33.8655724,23.8957178 33.1427153,46.5671463 17.0207667,37.4985749 L17.0207667,37.4985749 Z M40.3863353,43.9961406 C35.8868124,45.5945092 27.1784867,46.4602949 18.1103753,38.2793263 C24.2931696,42.4052635 30.5208467,42.6104235 36.6036896,41.4414978 C42.6864667,40.2725721 47.1685753,34.8176949 47.687521,31.1024063 C48.7456524,37.6760692 44.8859239,42.3977721 40.3863353,43.9961406 L40.3863353,43.9961406 Z" id="Imported-Layers" sketch:type="MSShapeGroup"></path>
        </g>
    </g>
</svg>