<?xml version="1.0" encoding="UTF-8" standalone="no"?>
<svg width="356px" height="354px" viewBox="0 0 356 354" version="1.1" xmlns="http://www.w3.org/2000/svg" xmlns:xlink="http://www.w3.org/1999/xlink" xmlns:sketch="http://www.bohemiancoding.com/sketch/ns">
    <!-- Generator: Sketch 3.3.3 (12081) - http://www.bohemiancoding.com/sketch -->
    <title>Imported Layers</title>
    <desc>Created with Sketch.</desc>
    <defs></defs>
    <g id="Page-1" stroke="none" stroke-width="1" fill="none" fill-rule="evenodd" sketch:type="MSPage">
        <g id="Imported-Layers" sketch:type="MSLayerGroup">
            <path d="M355.128,313.268 C355.128,335.268 337.128,353.268 315.128,353.268 L40.246,353.268 C18.246,353.268 0.246,335.268 0.246,313.268 L0.246,40.256 C0.246,18.256 18.246,0.256 40.246,0.256 L315.128,0.256 C337.128,0.256 355.128,18.256 355.128,40.256 L355.128,313.268" id="Fill-1" fill="#2E337D" sketch:type="MSShapeGroup"></path>
            <path d="M306.549,188.086 L306.549,154.46 C306.549,153.065 305.857,148.672 302.826,148.672 L251.383,148.672 L235.517,150.552 L235.517,124.538 L302.031,112.668 L302.031,105.428 L157.608,76.144 L90.654,102.46 L22.711,128.788 L22.711,218.026 L90.654,237.589 L133.83,225.511 C133.777,231.805 133.858,236.794 133.858,239.228 C133.858,242.301 133.942,244.935 134.092,247.237 L22.711,279.722 L52.464,279.722 L134.82,253.793 C135.088,255.385 135.402,256.764 135.749,258.013 C136.416,260.421 137.435,262.423 137.435,262.423 L152.875,262.423 C153.694,266.073 155.015,268.454 156.513,268.454 L165.702,268.454 C167.198,268.454 168.52,266.073 169.339,262.423 L208.364,262.423 L212.939,260.491 C213.686,265.216 215.197,268.454 216.944,268.454 L227.161,268.454 C229.65,268.454 231.668,261.899 231.668,253.811 C231.668,253.397 231.659,252.99 231.649,252.584 C231.456,245.068 229.522,239.167 227.161,239.167 L224.644,239.167 C225.479,236.361 226.615,234.627 227.869,234.627 C230.433,234.627 232.509,241.842 232.509,250.742 C232.509,251.252 232.488,251.739 232.475,252.234 L266.628,237.79 C267.319,240.436 268.379,241.891 269.569,241.891 L273.846,241.891 C274.945,241.891 275.93,240.647 276.619,238.378 C277.308,240.649 278.294,241.891 279.393,241.891 L284.979,241.891 C287.066,241.891 288.754,237.451 288.754,229.927 C288.754,229.554 288.746,229.194 288.738,228.836 C288.582,221.983 286.963,217.969 284.979,217.969 L282.081,217.969 C282.827,215.939 284.031,215.615 285.392,215.615 C287.579,215.615 289.367,220.427 289.487,228.119 L291.159,227.41 C296.094,224.967 306.549,217.83 306.549,214.258 L306.549,199.726 L330.033,192.332 L330.033,190.09 L306.549,196.939 L306.549,190.09 L330.033,190.09 L330.033,188.086 L306.549,188.086 L306.549,188.086 Z M88.629,232.307 L26.197,215.831 L26.197,185.314 L88.629,191.868 L88.629,232.307 L88.629,232.307 Z M88.629,154.539 L26.197,161.443 L26.197,157.664 L88.629,149.15 L88.629,154.539 L88.629,154.539 Z M88.629,113.017 L26.197,134.887 L26.197,132.619 L88.629,105.614 L88.629,113.017 L88.629,113.017 Z M284.979,221.905 C285.814,221.905 287.127,223.982 287.194,229.49 C287.196,229.636 287.201,229.775 287.201,229.926 C287.201,235.773 285.837,237.95 284.979,237.95 C284.196,237.95 282.993,236.124 282.79,231.355 C282.771,230.902 282.757,230.433 282.757,229.926 C282.757,224.083 284.121,221.905 284.979,221.905 L284.979,221.905 Z M292.438,156.717 L300.144,155.433 L300.158,155.433 C300.652,155.433 301.126,155.81 301.126,156.854 L301.126,172.444 L292.438,179.343 L292.438,156.717 L292.438,156.717 Z M279.681,158.84 L290.627,157.016 L290.627,179.805 L279.681,182.992 L279.681,158.84 L279.681,158.84 Z M264.862,161.305 L277.469,159.207 L277.469,183.61 L264.862,187.162 L264.862,161.305 L264.862,161.305 Z M246.183,164.645 L246.183,164.413 L246.422,164.374 L261.974,161.782 L261.974,187.976 L246.183,192.424 L246.183,164.645 L246.183,164.645 Z M159.681,79.033 L299.957,107.141 L299.957,112.301 L159.681,87.327 L159.681,79.033 L159.681,79.033 Z M90.654,115.604 L121.041,136.029 L232.907,134.97 L232.907,141.547 L90.654,149.327 L90.654,115.604 L90.654,115.604 Z M90.654,154.634 L232.907,145.26 L232.907,150.861 L153.538,160.268 C153.538,160.268 148.165,161 142.729,168.394 C142.118,169.225 141.549,170.184 141.017,171.249 L90.654,176.745 L90.654,154.634 L90.654,154.634 Z M133.88,221.6 L102.507,229.733 L102.507,195.669 L136.021,190.229 C134.557,200.475 134.043,212.085 133.88,221.6 L133.88,221.6 Z M150.439,247.809 C150.439,248.388 149.878,248.858 149.189,248.858 L141.634,248.858 C140.943,248.858 140.384,248.388 140.384,247.809 L140.384,244.813 C140.384,244.237 140.943,243.768 141.634,243.768 L149.189,243.768 C149.878,243.768 150.439,244.237 150.439,244.813 L150.439,247.809 L150.439,247.809 Z M181.219,256.748 C181.219,257.109 180.922,257.401 180.551,257.401 L165.967,257.401 C165.602,257.401 165.301,257.109 165.301,256.748 L165.301,254.315 C165.301,253.952 165.602,253.66 165.967,253.66 L180.551,253.66 C180.922,253.66 181.219,253.952 181.219,254.315 L181.219,256.748 L181.219,256.748 Z M189.949,247.809 C189.949,248.388 189.389,248.858 188.697,248.858 L157.031,248.858 C156.337,248.858 155.78,248.388 155.78,247.809 L155.78,244.813 C155.78,244.237 156.337,243.768 157.031,243.768 L188.697,243.768 C189.389,243.768 189.949,244.237 189.949,244.813 L189.949,247.809 L189.949,247.809 Z M205.372,247.675 C205.372,248.252 204.812,248.721 204.121,248.721 L196.569,248.721 C195.877,248.721 195.32,248.252 195.32,247.675 L195.32,244.68 C195.32,244.101 195.877,243.631 196.569,243.631 L204.121,243.631 C204.812,243.631 205.372,244.101 205.372,244.68 L205.372,247.675 L205.372,247.675 Z M207.647,173.631 C207.616,173.833 207.586,174.059 207.555,174.27 C206.544,181.17 205.75,192.691 204.905,205.629 C204.757,207.887 204.608,210.183 204.456,212.51 C204.148,217.223 203.827,222.094 203.483,226.999 C203.464,227.279 203.445,227.558 203.425,227.838 L139.425,227.838 C139.43,227.076 139.444,225.72 139.482,223.93 C139.505,222.821 139.539,221.538 139.585,220.121 C139.626,218.877 139.675,217.539 139.739,216.105 C140.378,201.682 142.309,178.841 148.119,170.474 C148.201,170.356 148.278,170.223 148.362,170.111 L208.405,170.111 C208.183,170.908 207.874,172.164 207.647,173.631 L207.647,173.631 Z M219.202,172.539 L219.202,206.287 C219.202,215.623 215.073,221.552 212.438,224.387 C211.206,225.713 210.298,226.368 210.298,226.368 C210.31,225.997 210.326,225.532 210.344,224.997 C210.479,221.145 210.803,213.207 211.445,203.799 C211.99,195.819 212.762,186.781 213.844,178.274 L213.883,177.964 C214.063,176.541 214.28,174.773 214.654,173.215 C215.108,171.321 215.792,169.737 216.927,169.468 L219.202,169.012 L219.202,172.539 L219.202,172.539 Z M227.161,242.947 C228.358,242.947 230.002,246.852 230.097,253.241 C230.099,253.431 230.106,253.616 230.106,253.811 C230.106,260.538 228.393,264.673 227.161,264.673 C226.054,264.673 224.555,261.301 224.271,255.705 C224.24,255.097 224.219,254.47 224.219,253.811 C224.219,247.08 225.934,242.947 227.161,242.947 L227.161,242.947 Z M223.731,198.751 L223.731,168.151 L232.907,166.624 L235.517,166.19 L242.663,165.001 L242.663,193.285 L223.731,198.751 L223.731,198.751 Z M301.953,201.173 L301.953,201.402 L232.182,228.659 L232.182,225.53 L301.953,199.69 L301.953,201.173 L301.953,201.173 Z M234.797,279.722 L330.033,217.886 L330.033,279.722 L234.797,279.722 L234.797,279.722 Z" id="Fill-2" fill="#FFFFFF" sketch:type="MSShapeGroup"></path>
        </g>
    </g>
</svg>