<?xml version="1.0" encoding="UTF-8" standalone="no"?>
<svg width="356px" height="354px" viewBox="0 0 356 354" version="1.1" xmlns="http://www.w3.org/2000/svg" xmlns:xlink="http://www.w3.org/1999/xlink" xmlns:sketch="http://www.bohemiancoding.com/sketch/ns">
    <!-- Generator: Sketch 3.3.3 (12081) - http://www.bohemiancoding.com/sketch -->
    <title>Imported Layers</title>
    <desc>Created with Sketch.</desc>
    <defs></defs>
    <g id="Page-1" stroke="none" stroke-width="1" fill="none" fill-rule="evenodd" sketch:type="MSPage">
        <g id="Imported-Layers" sketch:type="MSLayerGroup">
            <path d="M355.395,313.288 C355.395,335.288 337.395,353.288 315.395,353.288 L40.513,353.288 C18.513,353.288 0.513,335.288 0.513,313.288 L0.513,40.276 C0.513,18.276 18.513,0.276 40.513,0.276 L315.395,0.276 C337.395,0.276 355.395,18.276 355.395,40.276 L355.395,313.288" id="Fill-1" fill="#2E337D" sketch:type="MSShapeGroup"></path>
            <path d="M139.017,305.853 C139.984,306.305 141.184,306.812 142.485,307.338 C138.423,307.648 134.238,307.821 129.978,307.821 C97.853,307.821 69.862,298.522 67.769,287.155 C65.677,275.794 62.247,245.711 60.154,220.315 C59.058,206.991 58.545,192.319 58.594,179.664 C65.336,203.376 80.387,222.624 99.704,232.629 C99.227,235.428 100.602,238.269 103.331,239.396 C111.869,242.913 120.834,244.696 129.978,244.696 C139.098,244.696 148.05,242.913 156.588,239.396 C159.312,238.269 160.687,235.44 160.216,232.654 C179.558,222.649 194.633,203.376 201.375,179.645 C201.431,192.306 200.911,206.985 199.815,220.315 C198.688,233.998 197.172,249.017 195.686,261.765 C190.212,263.331 183.792,264.446 179.471,264.446 C179.087,264.446 178.728,264.434 178.381,264.415 C178.103,264.403 177.812,264.396 177.508,264.396 C171.094,264.396 159.721,267.764 151.059,272.234 C142.961,276.42 133.427,284.214 131.712,290.405 C130.078,296.287 133.353,303.221 139.017,305.853 L139.017,305.853 Z M59.157,166.538 C63.374,194.851 79.421,218.365 101.084,229.633 C102.787,227.689 105.548,226.902 108.062,227.93 C122.091,233.713 137.779,233.731 151.858,227.93 C154.378,226.908 157.146,227.701 158.848,229.651 C180.523,218.383 196.583,194.863 200.806,166.544 C187.396,175.026 158.594,179.429 129.978,179.429 C101.363,179.429 72.561,175.026 59.157,166.538 L59.157,166.538 Z M205.139,155.623 L205.139,151.785 C205.139,150.491 204.644,149.228 203.79,148.002 C203.778,148.021 203.765,148.045 203.753,148.064 L203.561,148.305 C202.57,163.746 166.03,171.659 129.935,171.659 C93.339,171.659 56.297,163.529 56.278,148.002 C56.26,147.971 56.248,147.946 56.229,147.915 C55.331,149.166 54.83,150.46 54.83,151.785 L54.83,155.623 C54.83,166.86 88.473,175.955 129.978,175.955 C171.49,175.955 205.139,166.86 205.139,155.623 L205.139,155.623 Z M59.355,146.652 C56.334,142.646 54.514,137.774 54.514,132.446 C54.514,119.123 65.677,108.316 79.477,108.236 C83.371,96.181 94.039,87.452 106.749,87.452 C114.86,87.452 122.19,91.03 127.44,96.745 C132.312,91.098 139.407,87.452 147.4,87.452 C157.176,87.452 165.615,92.841 170.234,100.766 C173.979,98.141 178.294,96.547 182.963,96.547 C196.782,96.547 207.975,109.712 207.975,125.967 C207.975,133.734 205.363,140.746 201.177,146.015 C200.286,146.553 200.286,147.166 200.286,147.996 C200.286,159.251 168.785,168.364 129.935,168.364 C91.067,168.364 59.572,159.251 59.572,147.996 C59.77,147.166 59.77,147.166 59.355,146.652 L59.355,146.652 Z M61.095,132.446 C61.095,136.099 62.309,139.644 64.605,142.69 C66.19,144.646 66.42,146.516 66.222,148.181 C67.9,152.045 89.104,161.784 129.935,161.784 C171.428,161.784 192.652,151.717 193.717,147.891 C193.711,145.147 194.645,142.925 196.496,141.315 C199.661,137.04 201.394,131.623 201.394,125.967 C201.394,113.371 193.129,103.125 182.963,103.125 C179.892,103.125 176.877,104.144 174.01,106.155 L168.153,110.26 L164.55,104.078 C160.885,97.788 154.471,94.03 147.4,94.03 C141.73,94.03 136.269,96.587 132.418,101.045 L127.595,106.638 L122.592,101.196 C118.352,96.575 112.724,94.03 106.749,94.03 C97.314,94.03 88.875,100.553 85.736,110.257 L84.275,114.786 L79.514,114.814 C69.354,114.872 61.095,122.785 61.095,132.446 L61.095,132.446 Z M72.351,143.024 C72.085,144.51 73.075,145.959 74.58,146.213 C76.065,146.473 77.495,145.482 77.774,143.996 C78.028,142.492 77.038,141.061 75.533,140.808 C74.047,140.529 72.623,141.52 72.351,143.024 L72.351,143.024 Z M72.165,128.561 C73.663,128.831 75.075,127.831 75.353,126.333 C75.613,124.847 74.623,123.423 73.137,123.153 C71.633,122.878 70.202,123.878 69.936,125.373 C69.67,126.868 70.667,128.295 72.165,128.561 L72.165,128.561 Z M178.059,148.256 C177.799,149.741 178.79,151.166 180.3,151.444 C181.786,151.704 183.21,150.714 183.476,149.228 C183.743,147.723 182.752,146.293 181.266,146.039 C179.762,145.761 178.338,146.77 178.059,148.256 L178.059,148.256 Z M104.372,114.774 C104.099,116.26 105.102,117.696 106.6,117.962 C108.086,118.222 109.523,117.231 109.789,115.733 C110.055,114.238 109.052,112.811 107.566,112.545 C106.062,112.288 104.638,113.279 104.372,114.774 L104.372,114.774 Z M108.501,67.999 C110.006,68.266 111.43,67.266 111.702,65.77 C111.968,64.272 110.978,62.848 109.473,62.579 C107.987,62.322 106.551,63.312 106.279,64.817 C106.025,66.293 107.016,67.73 108.501,67.999 L108.501,67.999 Z M55.857,117.962 C57.356,118.222 58.78,117.231 59.052,115.733 C59.17,115.071 59.009,114.439 58.699,113.897 C58.309,113.22 57.665,112.693 56.83,112.545 C55.325,112.288 53.901,113.279 53.629,114.774 C53.381,116.157 54.26,117.458 55.579,117.851 C55.678,117.882 55.758,117.943 55.857,117.962 L55.857,117.962 Z M66.5,107.375 C68.005,107.632 69.429,106.641 69.689,105.147 C69.967,103.648 68.977,102.224 67.472,101.954 C65.974,101.689 64.55,102.689 64.278,104.193 C64.011,105.67 65.015,107.106 66.5,107.375 L66.5,107.375 Z M86.033,135.734 C88.274,136.13 90.392,134.644 90.788,132.425 C91.184,130.187 89.698,128.057 87.482,127.66 C85.241,127.264 83.099,128.76 82.702,130.979 C82.306,133.217 83.792,135.338 86.033,135.734 L86.033,135.734 Z M88.231,87.959 C90.472,88.365 92.59,86.87 92.986,84.641 C93.382,82.412 91.896,80.27 89.68,79.886 C87.439,79.477 85.303,80.976 84.907,83.214 C84.511,85.434 85.996,87.563 88.231,87.959 L88.231,87.959 Z M107.789,151.822 C107.393,154.063 108.879,156.181 111.114,156.595 C113.355,156.973 115.473,155.505 115.869,153.271 C116.265,151.029 114.791,148.912 112.563,148.516 C110.322,148.12 108.191,149.606 107.789,151.822 L107.789,151.822 Z M103.139,139.26 C105.368,139.656 107.511,138.17 107.907,135.954 C108.303,133.712 106.817,131.573 104.576,131.177 C102.347,130.781 100.217,132.267 99.821,134.505 C99.425,136.724 100.911,138.863 103.139,139.26 L103.139,139.26 Z M139.426,155.648 C141.667,156.044 143.797,154.558 144.193,152.335 C144.589,150.101 143.11,147.959 140.875,147.562 C138.634,147.166 136.504,148.652 136.107,150.893 C135.724,153.11 137.197,155.252 139.426,155.648 L139.426,155.648 Z M166.803,139.26 C169.026,139.656 171.162,138.17 171.558,135.932 C171.954,133.712 170.481,131.573 168.234,131.177 C166.011,130.781 163.875,132.267 163.479,134.505 C163.083,136.724 164.569,138.863 166.803,139.26 L166.803,139.26 Z M125.991,87.582 C128.214,87.987 130.35,86.492 130.746,84.273 C131.142,82.035 129.669,79.905 127.428,79.508 C125.199,79.103 123.063,80.598 122.666,82.836 C122.27,85.056 123.756,87.186 125.991,87.582 L125.991,87.582 Z M103.604,105.948 C105.833,106.344 107.963,104.859 108.359,102.639 C108.755,100.401 107.282,98.262 105.041,97.865 C102.812,97.469 100.676,98.965 100.279,101.193 C99.89,103.413 101.369,105.552 103.604,105.948 L103.604,105.948 Z M71.93,95.16 C74.159,95.556 76.288,94.061 76.685,91.841 C77.081,89.603 75.601,87.474 73.366,87.078 C71.137,86.681 68.995,88.176 68.612,90.405 C68.203,92.625 69.689,94.754 71.93,95.16 L71.93,95.16 Z M88.114,148.317 C87.878,149.642 88.77,150.893 90.095,151.147 C91.42,151.388 92.682,150.497 92.918,149.166 C93.154,147.841 92.274,146.571 90.949,146.336 C89.618,146.095 88.348,146.987 88.114,148.317 L88.114,148.317 Z M164.408,152.199 C165.739,152.434 167.002,151.562 167.243,150.237 C167.479,148.912 166.599,147.624 165.262,147.401 C163.931,147.166 162.668,148.039 162.426,149.382 C162.197,150.714 163.083,151.958 164.408,152.199 L164.408,152.199 Z M146.756,127.345 C146.422,128.821 147.351,130.286 148.824,130.623 C150.311,130.96 151.79,130.029 152.118,128.552 C152.453,127.066 151.511,125.602 150.044,125.265 C148.552,124.927 147.091,125.859 146.756,127.345 L146.756,127.345 Z M106.477,83.849 C107.963,84.183 109.43,83.254 109.77,81.777 C110.092,80.292 109.163,78.815 107.69,78.478 C106.204,78.153 104.737,79.081 104.396,80.558 C104.062,82.044 104.991,83.511 106.477,83.849 L106.477,83.849 Z M147.432,107.344 C148.905,107.682 150.385,106.75 150.707,105.264 C151.047,103.787 150.106,102.311 148.639,101.977 C147.141,101.648 145.686,102.571 145.351,104.066 C145.011,105.543 145.946,107.016 147.432,107.344 L147.432,107.344 Z M146.082,73.476 C147.568,73.813 149.035,72.881 149.369,71.395 C149.709,69.909 148.769,68.432 147.289,68.108 C145.803,67.77 144.342,68.702 144.002,70.188 C143.667,71.664 144.596,73.138 146.082,73.476 L146.082,73.476 Z M128.152,129.772 C130.374,130.267 132.554,128.88 133.068,126.67 C133.551,124.472 132.164,122.271 129.953,121.766 C127.737,121.271 125.545,122.658 125.05,124.868 C124.549,127.075 125.935,129.276 128.152,129.772 L128.152,129.772 Z M189.878,134.09 C192.088,134.585 194.286,133.199 194.781,130.979 C195.277,128.781 193.89,126.593 191.667,126.085 C189.464,125.59 187.272,126.967 186.776,129.187 C186.281,131.397 187.656,133.595 189.878,134.09 L189.878,134.09 Z M176.809,122.54 C178.121,122.828 179.427,122.005 179.725,120.686 C180.022,119.37 179.186,118.073 177.88,117.777 C176.561,117.479 175.267,118.3 174.951,119.609 C174.672,120.924 175.484,122.243 176.809,122.54 L176.809,122.54 Z M169.422,91.058 C170.747,91.356 172.054,90.523 172.345,89.207 C172.642,87.898 171.819,86.591 170.494,86.294 C169.181,86.006 167.887,86.82 167.577,88.136 C167.28,89.445 168.116,90.761 169.422,91.058 L169.422,91.058 Z M191.352,116.26 C192.683,116.557 193.977,115.724 194.268,114.408 C194.565,113.099 193.747,111.802 192.423,111.505 C191.116,111.207 189.81,112.018 189.513,113.338 C189.216,114.656 190.046,115.972 191.352,116.26 L191.352,116.26 Z M188.392,88.136 C188.101,89.445 188.925,90.761 190.243,91.058 C191.562,91.356 192.856,90.523 193.153,89.207 C193.451,87.898 192.634,86.591 191.314,86.294 C190.008,86.006 188.696,86.82 188.392,88.136 L188.392,88.136 Z M223.119,180.351 C223.366,180.951 223.682,181.502 223.961,182.078 C225.193,180.054 226.561,178.209 228.034,176.723 C233.409,171.299 243.76,167.052 251.611,167.058 L251.852,167.058 C252.49,167.065 253.171,167.145 253.833,167.2 C249.784,157.746 241.723,151.159 234.121,151.159 C232.492,151.159 230.926,151.469 229.471,152.069 C220.964,155.604 218.116,168.29 223.119,180.351 L223.119,180.351 Z M210.711,119.609 L223.509,150.385 C224.766,149.333 226.14,148.417 227.688,147.773 C229.186,147.148 230.783,146.832 232.412,146.671 L185.157,33.038 C182.3,33.737 179.241,35.393 176.623,37.611 L210.711,119.609 L210.711,119.609 Z M301.821,233.799 C300.31,223.212 295.166,208.44 290.386,200.974 C285.606,193.507 277.867,183.496 273.193,178.722 C268.525,173.955 258.904,169.98 251.821,169.9 L251.611,169.9 C244.553,169.9 234.895,173.837 230.053,178.722 C225.156,183.663 221.175,193.284 221.212,200.107 C221.243,206.924 217.423,217.801 212.717,224.265 C208.018,230.729 206.285,241.025 208.867,247.135 C211.448,253.246 207.919,260.396 201.029,263.022 C194.615,265.473 185.284,267.288 179.471,267.288 C179.037,267.288 178.623,267.275 178.233,267.257 C177.997,267.244 177.762,267.238 177.508,267.238 C171.633,267.238 160.594,270.513 152.366,274.76 C143.791,279.193 135.724,286.573 134.448,291.167 C133.173,295.761 135.773,301.209 140.219,303.277 C144.664,305.339 153.586,308.564 160.043,310.434 C164.612,311.759 171.298,312.527 177.168,312.527 C179.595,312.527 181.885,312.397 183.83,312.118 C190.454,311.17 202.719,309.449 211.083,308.292 C214.723,307.79 219.807,307.549 225.311,307.549 C232.449,307.549 240.281,307.957 246.59,308.75 C248.069,308.936 249.605,309.023 251.171,309.023 C261.423,309.023 272.976,305.19 278.53,299.612 C284.925,293.173 293.395,280.066 297.357,270.488 C301.32,260.904 303.326,244.392 301.821,233.799 L301.821,233.799 Z" id="Fill-2" fill="#FFFFFF" sketch:type="MSShapeGroup"></path>
        </g>
    </g>
</svg>