<?xml version="1.0" encoding="UTF-8" standalone="no"?>
<svg width="355px" height="354px" viewBox="0 0 355 354" version="1.1" xmlns="http://www.w3.org/2000/svg" xmlns:xlink="http://www.w3.org/1999/xlink" xmlns:sketch="http://www.bohemiancoding.com/sketch/ns">
    <!-- Generator: Sketch 3.3.3 (12081) - http://www.bohemiancoding.com/sketch -->
    <title>Imported Layers</title>
    <desc>Created with Sketch.</desc>
    <defs></defs>
    <g id="Page-1" stroke="none" stroke-width="1" fill="none" fill-rule="evenodd" sketch:type="MSPage">
        <g id="Imported-Layers" sketch:type="MSLayerGroup">
            <path d="M354.915,313.268 C354.915,335.268 336.915,353.268 314.915,353.268 L40.033,353.268 C18.033,353.268 0.033,335.268 0.033,313.268 L0.033,40.256 C0.033,18.256 18.033,0.256 40.033,0.256 L314.915,0.256 C336.915,0.256 354.915,18.256 354.915,40.256 L354.915,313.268" id="Fill-1" fill="#2E337D" sketch:type="MSShapeGroup"></path>
            <path d="M278.678,214.681 L278.678,133.505 L224.19,105.466 L105.743,68.474 L24.636,113.518 L24.636,215.878 L148.906,285.051 L204.549,285.051 L330.313,233.355 L278.678,214.681 L278.678,214.681 Z M32.096,209.726 L32.096,173.913 L54.429,185.909 L54.429,221.905 L32.096,209.726 L32.096,209.726 Z M95.001,171.315 L64.919,156.868 L64.919,136.037 L95.001,149.553 L95.001,171.315 L95.001,171.315 Z M64.919,170.964 L64.919,163.349 L95.001,178.118 L95.001,186.107 L64.919,170.964 L64.919,170.964 Z M95.001,192.911 L95.001,200.898 L64.919,185.061 L64.919,177.447 L95.001,192.911 L95.001,192.911 Z M54.429,151.83 L32.096,141.105 L32.096,121.733 L54.429,131.324 L54.429,151.83 L54.429,151.83 Z M54.429,158.198 L54.429,165.684 L32.096,154.442 L32.096,147.234 L54.429,158.198 L54.429,158.198 Z M54.429,172.053 L54.429,179.538 L32.096,167.781 L32.096,160.573 L54.429,172.053 L54.429,172.053 Z M64.919,227.628 L64.919,191.545 L95.001,207.703 L95.001,244.04 L64.919,227.628 L64.919,227.628 Z M145.891,271.797 L105.864,249.965 L105.864,213.538 L145.891,235.039 L145.891,227.69 L105.864,206.617 L105.864,198.495 L145.891,219.071 L145.891,211.723 L105.864,191.574 L105.864,183.451 L145.891,203.102 L145.891,195.755 L105.864,176.532 L105.864,154.065 L145.891,172.417 L145.891,271.797 L145.891,271.797 Z M27.766,114.867 L105.059,72.286 L219.785,109.064 L148.906,166.897 L27.766,114.867 L27.766,114.867 Z M242.257,248.175 L226.39,254.442 L226.39,217.013 L221.992,218.567 L221.992,256.179 L223.987,255.392 L203.038,263.667 L203.038,225.257 L242.257,211.41 L242.257,248.175 L242.257,248.175 Z M144.933,160.356 L37.826,114.353 L105.439,77.104 L207.996,109.98 L144.933,160.356 L144.933,160.356 Z" id="Fill-2" fill="#FFFFFF" sketch:type="MSShapeGroup"></path>
        </g>
    </g>
</svg>