<?xml version="1.0" encoding="UTF-8" standalone="no"?>
<svg width="356px" height="354px" viewBox="0 0 356 354" version="1.1" xmlns="http://www.w3.org/2000/svg" xmlns:xlink="http://www.w3.org/1999/xlink" xmlns:sketch="http://www.bohemiancoding.com/sketch/ns">
    <!-- Generator: Sketch 3.3.3 (12081) - http://www.bohemiancoding.com/sketch -->
    <title>Imported Layers</title>
            <path d="M355.735,313.309 C355.735,335.309 337.735,353.309 315.735,353.309 L40.853,353.309 C18.853,353.309 0.853,335.309 0.853,313.309 L0.853,40.297 C0.853,18.297 18.853,0.297 40.853,0.297 L315.735,0.297 C337.735,0.297 355.735,18.297 355.735,40.297 L355.735,313.309" fill="#2E337D"></path>
            <path d="M225.807,130.791 L65.053,130.791 C61.186,130.791 58.05,127.655 58.05,123.786 L58.05,312.346 L232.814,312.346 L232.814,123.786 C232.814,127.655 229.678,130.791 225.807,130.791 L225.807,130.791 Z M145.814,277.921 C112.418,277.921 85.251,250.754 85.251,217.36 C85.251,183.967 112.418,156.797 145.814,156.797 C179.208,156.797 206.375,183.967 206.375,217.36 C206.375,250.754 179.208,277.921 145.814,277.921 L145.814,277.921 Z M145.814,174.303 C122.036,174.303 102.759,193.58 102.759,217.36 C102.759,241.138 122.036,260.41 145.814,260.41 C169.59,260.41 188.866,241.138 188.866,217.36 C188.866,193.58 169.59,174.303 145.814,174.303 L145.814,174.303 Z M145.811,247.59 C129.142,247.59 115.579,234.031 115.579,217.36 C115.579,200.688 129.142,187.123 145.811,187.123 C162.483,187.123 176.046,200.688 176.046,217.36 C176.046,234.031 162.483,247.59 145.811,247.59 L145.811,247.59 Z M72.148,85.606 L72.148,123.788 L133.013,123.788 L133.013,85.61 L72.148,85.606 L72.148,85.606 Z M120.304,107.318 L84.857,107.318 L84.857,99.143 L120.304,99.147 L120.304,107.318 L120.304,107.318 Z M214.889,102.401 C214.889,94.819 208.745,88.675 201.163,88.675 C193.581,88.675 187.436,94.819 187.436,102.401 C187.436,109.983 193.581,116.128 201.163,116.128 C208.745,116.128 214.889,109.983 214.889,102.401 L214.889,102.401 Z M194.439,102.401 C194.439,98.694 197.455,95.677 201.163,95.677 C204.87,95.677 207.887,98.694 207.887,102.401 C207.887,106.109 204.87,109.125 201.163,109.125 C197.455,109.125 194.439,106.109 194.439,102.401 L194.439,102.401 Z M184.94,103.025 C184.94,95.445 178.795,89.299 171.213,89.299 C163.631,89.299 157.487,95.445 157.487,103.025 C157.487,110.607 163.631,116.752 171.213,116.752 C178.795,116.752 184.94,110.607 184.94,103.025 L184.94,103.025 Z M164.489,103.025 C164.489,99.318 167.506,96.302 171.213,96.302 C174.921,96.302 177.937,99.318 177.937,103.025 C177.937,106.733 174.921,109.749 171.213,109.749 C167.506,109.749 164.489,106.733 164.489,103.025 L164.489,103.025 Z M298.537,41.26 L298.537,248.536 L240.704,312.347 L240.704,78.604 L58.05,78.607 L139.555,41.262 L298.537,41.26 L298.537,41.26 Z" id="Fill-2" fill="#FFFFFF" ></path>
</svg>