<?xml version="1.0" encoding="UTF-8" standalone="no"?>
<svg width="356px" height="354px" viewBox="0 0 356 354" version="1.1" xmlns="http://www.w3.org/2000/svg" xmlns:xlink="http://www.w3.org/1999/xlink" xmlns:sketch="http://www.bohemiancoding.com/sketch/ns">
    <!-- Generator: Sketch 3.3.3 (12081) - http://www.bohemiancoding.com/sketch -->
    <title>Artboard</title>
    <desc>Created with Sketch.</desc>
    <defs></defs>
    <g id="Page-1" stroke="none" stroke-width="1" fill="none" fill-rule="evenodd" sketch:type="MSPage">
        <g id="Artboard" sketch:type="MSArtboardGroup" fill="#1A1918">
            <path d="M140.771354,278.267764 L142.631039,278.267764 L142.631039,282.917594 L140.771354,282.917594 L140.771354,278.267764 L140.771354,278.267764 Z M140.771354,292.217872 L142.631039,292.217872 L142.631039,287.568041 L140.771354,287.568041 L140.771354,292.217872 L140.771354,292.217872 Z M140.771354,273.617934 L142.631039,273.617934 L142.631039,268.968104 L140.771354,268.968104 L140.771354,273.617934 L140.771354,273.617934 Z M140.771354,255.017996 L142.631039,255.017996 L142.631039,250.368167 L140.771354,250.368167 L140.771354,255.017996 L140.771354,255.017996 Z M140.771354,301.517531 L142.631039,301.517531 L142.631039,296.867701 L140.771354,296.867701 L140.771354,301.517531 L140.771354,301.517531 Z M140.771354,264.318274 L142.631039,264.318274 L142.631039,259.668443 L140.771354,259.668443 L140.771354,264.318274 L140.771354,264.318274 Z M140.771354,124.819669 L142.631039,124.819669 L142.631039,120.169222 L140.771354,120.169222 L140.771354,124.819669 L140.771354,124.819669 Z M140.771354,189.919141 L142.631039,189.919141 L142.631039,185.269311 L140.771354,185.269311 L140.771354,189.919141 L140.771354,189.919141 Z M140.771354,310.817809 L142.631039,310.817809 L142.631039,306.167362 L140.771354,306.167362 L140.771354,310.817809 L140.771354,310.817809 Z M140.771354,338.717406 L142.631039,338.717406 L142.631039,334.06696 L140.771354,334.06696 L140.771354,338.717406 L140.771354,338.717406 Z M140.771354,329.417129 L142.631039,329.417129 L142.631039,324.767299 L140.771354,324.767299 L140.771354,329.417129 L140.771354,329.417129 Z M140.771354,320.117468 L142.631039,320.117468 L142.631039,315.467639 L140.771354,315.467639 L140.771354,320.117468 L140.771354,320.117468 Z M140.771354,50.4199196 L142.631039,50.4199196 L142.631039,45.7700894 L140.771354,45.7700894 L140.771354,50.4199196 L140.771354,50.4199196 Z M140.771354,22.5203219 L142.631039,22.5203219 L142.631039,17.8704917 L140.771354,17.8704917 L140.771354,22.5203219 L140.771354,22.5203219 Z M140.771354,41.1208758 L142.631039,41.1208758 L142.631039,36.470429 L140.771354,36.470429 L140.771354,41.1208758 L140.771354,41.1208758 Z M140.771354,13.2206615 L142.630423,13.2206615 L142.630423,11.9516852 L147.820401,11.9516852 L141.59884,0 L136.007452,11.9516852 L140.771354,11.9516852 L140.771354,13.2206615 L140.771354,13.2206615 Z M140.771354,180.618864 L142.631039,180.618864 L142.631039,175.969034 L140.771354,175.969034 L140.771354,180.618864 L140.771354,180.618864 Z M140.771354,31.8205988 L142.631039,31.8205988 L142.631039,27.1701521 L140.771354,27.1701521 L140.771354,31.8205988 L140.771354,31.8205988 Z M141.970654,236.71958 C95.8151853,236.71958 58.2626117,199.181805 58.2410308,153.031269 C58.2410308,153.018321 58.2404139,153.004755 58.2404139,152.99119 C58.2404139,152.383216 58.2508959,151.777091 58.2638447,151.171584 C59.2356166,105.834352 96.4102109,69.2560172 141.970654,69.2560172 C181.429774,69.2560172 214.578544,96.7005593 223.387386,133.50149 L236.923133,133.50149 C227.945958,89.5257252 189.186069,56.3929874 142.630423,56.0828343 L142.630423,55.0703663 L140.771354,55.0703663 L140.771354,56.0908502 C88.4078908,56.7278048 46.0439357,98.8876624 45.0820297,151.171584 L14.0975493,151.171584 C13.6067304,148.863626 11.55898,147.131577 9.10550243,147.131577 C6.28576058,147.131577 4,149.418571 4,152.239547 C4,155.058672 6.28576058,157.343816 9.10550243,157.343816 C11.6551706,157.343816 13.7621153,155.473648 14.1437948,153.031269 L45.0598318,153.031269 C45.0832627,206.536688 88.4633854,249.903245 141.972504,249.903245 C189.226765,249.903245 228.558249,216.074975 237.130313,171.319203 L223.656227,171.319203 C215.27161,208.70036 181.842901,236.71958 141.970654,236.71958 L141.970654,236.71958 L141.970654,236.71958 Z M141.970654,78.4779854 C173.572357,78.4779854 200.621654,98.2667399 211.432001,126.097894 L217.070868,126.097894 C206.010179,95.3002457 176.525286,73.2084653 141.971271,73.2084653 C98.5917649,73.2084653 63.1899145,108.017756 62.2187596,151.171584 C62.2051938,151.776475 62.1959448,152.383216 62.1959448,152.99119 C62.1959448,153.004755 62.1965617,153.018321 62.1965617,153.031269 C62.2181427,196.601306 97.3480691,232.107363 140.771354,232.752333 C141.170915,232.757882 141.570476,232.767132 141.971271,232.767132 C142.192015,232.767132 142.410294,232.756033 142.630423,232.754183 C177.329341,232.470544 206.801286,209.922475 217.464879,178.722182 L211.891373,178.722182 C201.391796,207.16316 174.012614,227.495762 141.970654,227.495762 C100.902806,227.495762 67.4882789,194.094801 67.4673149,153.031269 L67.4673149,152.99304 C67.4673149,152.384449 67.4753308,151.777091 67.4901289,151.171584 C68.4606677,110.921357 101.499065,78.4779854 141.970654,78.4779854 L141.970654,78.4779854 L141.970654,78.4779854 Z M142.630423,343.893201 L142.630423,343.367236 L140.771354,343.367236 L140.771354,343.861138 C138.345007,344.256383 136.491488,346.355311 136.491488,348.892648 C136.491488,351.714856 138.777248,354 141.59699,354 C144.417349,354 146.703109,351.714856 146.703109,348.892648 C146.703109,346.427455 144.95503,344.370455 142.630423,343.893201 L142.630423,343.893201 L142.630423,343.893201 Z M352.056529,152.239547 C352.056529,155.058672 349.771385,157.343816 346.95041,157.343816 C344.400125,157.343816 342.293798,155.473648 341.912734,153.031269 L302.252599,153.031269 C293.113874,162.091069 279.973987,175.013293 272.188096,182.662298 L293.28899,182.662298 C295.984793,182.700528 298.885311,183.611872 302.240267,185.232314 C305.556994,186.866939 309.180791,189.27232 312.595558,192.52307 C319.409061,198.982641 325.382745,209.016063 325.368563,222.363129 C325.409876,235.517197 320.206333,245.507456 312.618989,251.828291 C305.041511,258.171322 295.362021,260.993531 286.199864,261.008329 C269.389319,261.004629 247.069394,261.004629 247.069394,261.008329 C245.014861,261.008329 243.349407,259.341025 243.349407,257.288342 C243.349407,255.22826 245.014861,253.564655 247.069394,253.564655 L286.199864,253.564655 C293.843319,253.575754 301.886335,251.145091 307.832889,246.132079 C313.768961,241.097487 317.884809,233.621132 317.928589,222.363129 C317.963119,205.852255 306.999237,195.894675 298.954371,191.909547 C296.355375,190.598025 294.00487,190.067743 293.28899,190.107823 C289.872373,190.104123 282.322025,190.104123 275.628761,190.107823 C268.93118,190.104123 263.099315,190.104123 263.088216,190.107823 C261.571365,190.107823 260.217913,189.195862 259.644469,187.789998 C259.070408,186.391534 259.39721,184.788974 260.483671,183.728411 C260.505251,183.708679 270.918504,173.487809 281.913215,162.658348 C285.199112,159.422397 288.542969,156.124784 291.673481,153.031269 L161.705147,153.031269 C161.68295,164.117855 152.689126,173.09873 141.597607,173.09873 C130.505471,173.09873 121.512264,164.117855 121.489449,153.031269 L103.057229,153.031269 C103.081277,174.473763 120.527544,191.905848 141.970654,191.905848 C156.806208,191.905848 169.719799,183.559461 176.284809,171.319203 L210.090265,171.319203 C202.054032,201.158029 174.902377,223.227611 142.630423,223.526049 C142.410294,223.527899 142.192015,223.539614 141.971271,223.539614 C141.570476,223.539614 141.170915,223.531598 140.771354,223.524816 C102.434457,222.881079 71.4407276,191.514302 71.4197628,153.031269 L71.4197628,152.993039 C71.4197628,152.384449 71.4271619,151.777091 71.4425776,151.171584 C72.4124995,113.104761 103.679385,82.4341325 141.971271,82.4341325 C174.110655,82.4341325 201.278957,104.049276 209.759147,133.50149 L175.605309,133.50149 C168.963223,122.084402 156.7094,114.321325 142.630423,114.084548 L142.630423,115.520008 L140.771354,115.520008 L140.771354,114.104279 C120.472049,114.723353 104.036401,130.952437 103.102242,151.171584 L121.573925,151.171584 C122.469237,141.188723 130.655923,133.310958 140.771354,132.901531 L140.771354,129.469499 L142.630423,129.469499 L142.630423,132.907081 C152.650896,133.413931 160.731526,141.257167 161.620672,151.171584 L293.555364,151.171584 C300.025417,144.771825 305.264106,139.555949 306.599676,138.138987 C307.794659,136.873094 308.014788,135.906872 308.003689,135.557872 C307.976558,135.245253 307.969159,135.269301 307.822407,135.114532 C307.667638,134.980112 307.191618,134.700789 306.156336,134.69709 C300.609343,134.69709 246.798704,134.431949 246.791304,134.431949 L246.791304,134.435649 C244.737388,134.4227 243.080567,132.749846 243.087966,130.695313 C243.095365,128.640779 244.768218,126.984575 246.825835,126.995673 C246.884413,126.995673 300.671004,127.257115 306.156336,127.257115 C308.572201,127.253415 310.880776,127.948947 312.64612,129.449151 C314.422564,130.929623 315.468945,133.245597 315.443664,135.557872 C315.430715,138.338768 314.146941,140.977844 312.010398,143.248806 C310.96525,144.353765 308.032053,147.293128 304.127083,151.171584 L341.958363,151.171584 C342.449182,148.863626 344.496316,147.131577 346.95041,147.131577 C349.771385,147.131577 352.056529,149.418571 352.056529,152.239547 L352.056529,152.239547 L352.056529,152.239547 Z M137.928797,97.9343892 L137.996008,98.8623816 C138.86419,98.798871 139.737305,98.7581753 140.615969,98.7365943 L140.615969,102.904238 L148.64727,98.2673568 L140.615969,93.630475 L140.615969,97.8055182 C139.715107,97.8277161 138.818561,97.8696449 137.928797,97.9343892 L137.928797,97.9343892 L137.928797,97.9343892 Z M132.349125,98.6280712 L132.510675,99.5437324 C133.414621,99.3840307 134.325965,99.2471446 135.244709,99.1330724 L135.13002,98.2100122 C134.195861,98.3259344 133.268485,98.4652874 132.349125,98.6280712 L132.349125,98.6280712 L132.349125,98.6280712 Z M126.868726,99.888415 L127.123384,100.783111 C128.007598,100.531536 128.899828,100.301542 129.801306,100.094361 L129.592894,99.1879501 C128.676,99.3988295 127.767738,99.6325237 126.868726,99.888415 L126.868726,99.888415 L126.868726,99.888415 Z M121.546794,101.704938 L121.892094,102.568804 C122.746094,102.227204 123.610577,101.907185 124.484924,101.608747 L124.184637,100.72885 C123.294874,101.03222 122.415593,101.357788 121.546794,101.704938 L121.546794,101.704938 L121.546794,101.704938 Z M116.447458,104.052359 L116.879082,104.876145 C117.693003,104.45007 118.519256,104.043726 119.356607,103.658348 L118.967529,102.813596 C118.115995,103.205759 117.27556,103.618885 116.447458,104.052359 L116.447458,104.052359 L116.447458,104.052359 Z M111.610796,106.907864 L112.123812,107.683556 C112.891488,107.176705 113.672112,106.688353 114.466301,106.219114 L113.993364,105.418759 C113.185609,105.895397 112.391419,106.391765 111.610796,106.907864 L111.610796,106.907864 L111.610796,106.907864 Z M107.086137,110.240623 L107.674996,110.960819 C108.387793,110.37751 109.115389,109.812698 109.8584,109.265768 L109.306537,108.516591 C108.551811,109.07277 107.811266,109.648064 107.086137,110.240623 L107.086137,110.240623 L107.086137,110.240623 Z M102.91911,114.014872 L103.577029,114.671558 C104.228165,114.019188 104.89595,113.38285 105.57915,112.764393 L104.955144,112.075027 C104.260229,112.704583 103.581345,113.350787 102.91911,114.014872 L102.91911,114.014872 L102.91911,114.014872 Z M99.1522598,118.191148 L99.8730734,118.778158 C100.455766,118.062894 101.055725,117.362428 101.673564,116.677995 L100.982965,116.055223 C100.354643,116.751372 99.7442024,117.463553 99.1522598,118.191148 L99.1522598,118.191148 L99.1522598,118.191148 Z M95.8250512,122.729373 L96.6019755,123.240539 C97.1094427,122.469165 97.6360241,121.711355 98.1811049,120.967728 L97.4313114,120.417715 C96.8769816,121.173674 96.3411505,121.944433 95.8250512,122.729373 L95.8250512,122.729373 L95.8250512,122.729373 Z M92.9738622,127.583299 L93.7988821,128.013074 C94.2255732,127.192987 94.6726129,126.385233 95.1400013,125.590427 L94.3377962,125.119339 C93.8630087,125.92771 93.4079531,126.749647 92.9738622,127.583299 L92.9738622,127.583299 L92.9738622,127.583299 Z M90.6319905,132.706067 L91.4964731,133.0489 C91.8380727,132.188734 92.2000209,131.33905 92.5835501,130.501082 L91.7375663,130.114469 C91.3478703,130.967236 90.9791399,131.831102 90.6319905,132.706067 L90.6319905,132.706067 L90.6319905,132.706067 Z M88.8290328,138.039097 L89.7243453,138.291289 C89.9746874,137.401526 90.2478444,136.521011 90.5419661,135.649747 L89.6608347,135.352542 C89.3617808,136.237989 89.0843079,137.133919 88.8290328,138.039097 L88.8290328,138.039097 L88.8290328,138.039097 Z M87.584104,143.523196 L88.5003812,143.682281 C88.6588491,142.770319 88.8395148,141.866991 89.0429952,140.971062 L88.1359669,140.765115 C87.9294035,141.676459 87.7450387,142.59582 87.584104,143.523196 L87.584104,143.523196 L87.584104,143.523196 Z M86.9070699,149.105335 L87.8344461,149.170079 C87.8991897,148.245786 87.986748,147.328275 88.0977372,146.417547 L87.1740609,146.305941 C87.0618387,147.232085 86.9724304,148.165627 86.9070699,149.105335 L86.9070699,149.105335 L86.9070699,149.105335 Z M191.759784,174.576736 L192.612552,174.947934 C192.986215,174.089 193.338914,173.218352 193.669415,172.337838 L192.798767,172.011036 C192.473815,172.876752 192.127283,173.732602 191.759784,174.576736 L191.759784,174.576736 L191.759784,174.576736 Z M189.295208,179.53117 L190.105429,179.987459 C190.565418,179.170455 191.005058,178.34112 191.423734,177.499451 L190.590699,177.085708 C190.179422,177.912578 189.747181,178.728348 189.295208,179.53117 L189.295208,179.53117 L189.295208,179.53117 Z M186.339813,184.207514 L187.099473,184.743962 C187.640237,183.97752 188.161269,183.197513 188.663186,182.40394 L187.877013,181.906955 C187.383728,182.687579 186.870711,183.454638 186.339813,184.207514 L186.339813,184.207514 L186.339813,184.207514 Z M182.926279,188.56014 L183.627977,189.169964 C184.243351,188.462716 184.840842,187.739437 185.419836,187.000742 L184.687924,186.427298 C184.118796,187.153044 183.53117,187.863991 182.926279,188.56014 L182.926279,188.56014 L182.926279,188.56014 Z M179.091603,192.544652 L179.727941,193.222302 C180.411758,192.580415 181.078926,191.921263 181.729445,191.245462 L181.059194,190.600491 C180.419773,191.265193 179.763704,191.913247 179.091603,192.544652 L179.091603,192.544652 L179.091603,192.544652 Z M174.875247,196.121587 L175.440058,196.860281 C176.185536,196.28992 176.915598,195.701678 177.630245,195.095553 L177.028437,194.386456 C176.326122,194.982714 175.607775,195.561091 174.875247,196.121587 L174.875247,196.121587 L174.875247,196.121587 Z M170.320374,199.252715 L170.807493,200.045054 C171.607232,199.553002 172.392789,199.041835 173.164164,198.511553 L172.637582,197.745112 C171.878539,198.266761 171.105931,198.769295 170.320374,199.252715 L170.320374,199.252715 L170.320374,199.252715 Z M165.472613,201.904739 L165.877107,202.742091 C166.722475,202.334514 167.55551,201.905356 168.37683,201.456467 L167.930407,200.640696 C167.123269,201.082186 166.303799,201.503328 165.472613,201.904739 L165.472613,201.904739 L165.472613,201.904739 Z M160.382526,204.046831 L160.698845,204.921179 C161.581825,204.602393 162.454324,204.260793 163.315724,203.898229 L162.955008,203.041146 C162.107791,203.397544 161.250092,203.732978 160.382526,204.046831 L160.382526,204.046831 L160.382526,204.046831 Z M155.101907,205.656174 L155.326968,206.558269 C156.238313,206.331358 157.140409,206.081016 158.033255,205.809092 L157.762565,204.919329 C156.884517,205.186936 155.997837,205.432345 155.101907,205.656174 L155.101907,205.656174 L155.101907,205.656174 Z M149.676386,206.716737 L149.807723,207.637331 C150.739416,207.504144 151.664325,207.347526 152.58122,207.16871 L152.402404,206.256132 C151.501542,206.431865 150.592663,206.586017 149.676386,206.716737 L149.676386,206.716737 L149.676386,206.716737 Z M144.170089,207.217422 L144.207086,208.146648 C145.14926,208.109035 146.084653,208.047991 147.013879,207.963516 L146.929404,207.037373 C146.01621,207.119998 145.096233,207.180425 144.170089,207.217422 L144.170089,207.217422 L144.170089,207.217422 Z M138.584867,208.088687 C139.309379,208.133082 140.038825,208.158363 140.771354,208.174395 L140.771354,207.243936 C140.05794,207.228521 139.346993,207.20324 138.640978,207.160694 L138.584867,208.088687 L138.584867,208.088687 Z M132.996562,207.462214 C133.917772,207.613283 134.846998,207.741537 135.783007,207.84636 L135.886597,206.922683 C134.966619,206.819094 134.053425,206.693306 133.147631,206.544087 L132.996562,207.462214 L132.996562,207.462214 Z M127.501364,206.267231 C128.403459,206.51264 129.314187,206.735236 130.234164,206.935016 L130.431479,206.026755 C129.527533,205.830057 128.63222,205.611162 127.74554,205.370069 L127.501364,206.267231 L127.501364,206.267231 Z M122.152302,204.512985 C123.02665,204.850269 123.912097,205.165971 124.80741,205.459476 L125.097215,204.575879 C124.2167,204.287308 123.346669,203.977154 122.487119,203.644803 L122.152302,204.512985 L122.152302,204.512985 Z M117.007953,202.217359 C117.843455,202.642818 118.691289,203.047312 119.550222,203.430841 L119.929435,202.581773 C119.084684,202.20441 118.251648,201.806699 117.430328,201.38864 L117.007953,202.217359 L117.007953,202.217359 Z M112.128128,199.410566 C112.916152,199.91865 113.717124,200.407002 114.532278,200.875623 L114.995966,200.069719 C114.194994,199.609113 113.406971,199.128777 112.632513,198.628708 L112.128128,199.410566 L112.128128,199.410566 Z M107.560307,196.124053 C108.292836,196.709212 109.040163,197.27649 109.802289,197.824654 L110.345519,197.069928 C109.596342,196.531013 108.861347,195.972984 108.141151,195.39769 L107.560307,196.124053 L107.560307,196.124053 Z M103.350118,192.394199 C104.019752,193.050269 104.706035,193.690307 105.407734,194.311846 L106.024957,193.615697 C105.334357,193.00464 104.65979,192.375701 104.001254,191.730114 L103.350118,192.394199 L103.350118,192.394199 Z M87.2573024,160.331274 L88.1791295,160.207953 C88.0582745,159.298459 87.9590011,158.382181 87.8837748,157.459121 L86.9570155,157.534964 C87.0334741,158.474056 87.1339812,159.406365 87.2573024,160.331274 L87.2573024,160.331274 L87.2573024,160.331274 Z M88.2858027,165.859152 L89.1903641,165.642723 C88.9764017,164.749261 88.7840202,163.847782 88.6150703,162.938287 L87.700643,163.108471 C87.8726758,164.03338 88.0681403,164.950891 88.2858027,165.859152 L88.2858027,165.859152 L88.2858027,165.859152 Z M90.7534617,170.944923 C90.4482418,170.077358 90.165219,169.200544 89.9037779,168.313863 L89.0115484,168.576538 C89.2773055,169.478633 89.5658774,170.371479 89.876031,171.253227 L90.7534617,170.944923 L90.7534617,170.944923 Z M92.8468412,176.048576 C92.4552961,175.218007 92.0840988,174.376339 91.7344833,173.522955 L90.8743167,173.876271 C91.230099,174.743836 91.6074622,175.600303 92.0057895,176.445054 L92.8468412,176.048576 L92.8468412,176.048576 Z M95.452004,180.916069 C94.9772166,180.128662 94.522161,179.328306 94.0868371,178.515002 L93.2673671,178.954026 C93.7094738,179.780896 94.1725454,180.595433 94.655348,181.396405 L95.452004,180.916069 L95.452004,180.916069 Z M98.5393533,185.497455 C97.9868734,184.76061 97.4528923,184.0102 96.9374091,183.245608 L96.1660347,183.765408 C96.6901499,184.542948 97.23338,185.306307 97.7957257,186.055484 L98.5393533,185.497455 L98.5393533,185.497455 Z M102.076208,189.744642 L102.076208,189.744642 C101.451586,189.067608 100.843612,188.373925 100.254136,187.665444 L99.538872,188.26047 C100.139447,188.981282 100.757287,189.686064 101.392391,190.37543 L102.076208,189.744642 L102.076208,189.744642 Z M87.701876,153.031269 L86.772033,153.031269 C86.7726499,153.598548 86.7812819,154.163976 86.7985476,154.726937 L87.7277738,154.698574 C87.711125,154.144861 87.7024922,153.589298 87.701876,153.031269 L87.701876,153.031269 L87.701876,153.031269 Z" id="Imported-Layers" sketch:type="MSShapeGroup"></path>
        </g>
    </g>
</svg>