<?xml version="1.0" encoding="utf-8"?>
<!-- Generator: Adobe Illustrator 19.1.0, SVG Export Plug-In . SVG Version: 6.00 Build 0)  -->
<!DOCTYPE svg PUBLIC "-//W3C//DTD SVG 1.1//EN" "http://www.w3.org/Graphics/SVG/1.1/DTD/svg11.dtd">
<svg version="1.1" id="Layer_1" xmlns="http://www.w3.org/2000/svg" xmlns:xlink="http://www.w3.org/1999/xlink" x="0px" y="0px"
	 viewBox="0 0 488.1 214.9" style="enable-background:new 0 0 488.1 214.9;" xml:space="preserve">
<g>
	<circle fill="#FFC72C" cx="217.5" cy="21.2" r="21.1"/>
	<clipPath id="SVGID_2_">
		<path d="M211,1c-3.8,3.8-6.1,9-6.1,14.8c0,11.6,9.4,21.1,21.1,21.1c2.3,0,4.5-0.4,6.5-1c3.8-3.8,6.1-9,6.1-14.8 c0-11.7-9.5-21.1-21.1-21.1C215.2,0,213,0.4,211,1"/>
	</clipPath>
	<radialGradient id="SVGID_3_" cx="-2359.6143" cy="1010.9696" r="1.4694" gradientTransform="matrix(12.034 0 0 12.034 28617.2637 -12147.499)" gradientUnits="userSpaceOnUse">
		<stop  offset="0" style="stop-color:#FFFFFF"/>
		<stop  offset="0.1264" style="stop-color:#FFFFFF"/>
		<stop  offset="0.2315" style="stop-color:#FFF6DC"/>
		<stop  offset="0.4345" style="stop-color:#FFE59E"/>
		<stop  offset="0.6201" style="stop-color:#FFD86D"/>
		<stop  offset="0.7822" style="stop-color:#FFCF49"/>
		<stop  offset="0.9143" style="stop-color:#FFC934"/>
		<stop  offset="1" style="stop-color:#FFC72C"/>
	</radialGradient>
	<rect x="204.9" y="0" clip-path="url(#SVGID_2_)" fill="url(#SVGID_3_)" width="33.7" height="36.9"/>
</g>
<g>
	<clipPath id="SVGID_5_">
		<path d="M228,20.3c0,0.9,0.6,1.7,1.4,2.1l0,0h0.2c0.1,0,0.1,0,0.2,0.1l44,12l4.2-7.8l-47.3-8.5h-0.1h-0.1l0,0 c-0.1,0-0.2,0-0.2,0C228.9,18,228,19,228,20.3"/>
	</clipPath>
	<linearGradient id="SVGID_6_" gradientUnits="userSpaceOnUse" x1="-2665.5125" y1="559.2919" x2="-2664.0437" y2="559.2919" gradientTransform="matrix(-1.3975 5.9711 -5.9711 -1.3975 -131.4739 16719.2441)">
		<stop  offset="0" style="stop-color:#F5F5F5"/>
		<stop  offset="0.2637" style="stop-color:#B5B5B5"/>
		<stop  offset="0.3858" style="stop-color:#949394"/>
		<stop  offset="0.5878" style="stop-color:#646162"/>
		<stop  offset="0.7648" style="stop-color:#403D3E"/>
		<stop  offset="0.9082" style="stop-color:#2B2728"/>
		<stop  offset="1" style="stop-color:#231F20"/>
	</linearGradient>
	<polygon clip-path="url(#SVGID_5_)" fill="url(#SVGID_6_)" points="230.5,6.9 224.3,33.6 275.3,45.6 281.5,18.8"/>
</g>
<g>
	<circle fill="#862633" cx="296.9" cy="43.3" r="26.4"/>
	<clipPath id="SVGID_8_">
		<path d="M288.7,18.3c-4.7,4.8-7.6,11.3-7.6,18.5c0,14.6,11.8,26.4,26.4,26.4c2.9,0,5.6-0.5,8.2-1.3 c4.7-4.8,7.6-11.3,7.6-18.5c0-14.6-11.8-26.4-26.4-26.4C294,16.9,291.3,17.4,288.7,18.3"/>
	</clipPath>
	<radialGradient id="SVGID_9_" cx="-2432.7878" cy="1007.4341" r="1.4694" gradientTransform="matrix(17.9488 0 0 17.9488 43973 -18045.4551)" gradientUnits="userSpaceOnUse">
		<stop  offset="0" style="stop-color:#F2F2F2"/>
		<stop  offset="0.1264" style="stop-color:#F2F2F2"/>
		<stop  offset="0.1989" style="stop-color:#E6DBDC"/>
		<stop  offset="0.4123" style="stop-color:#C49BA1"/>
		<stop  offset="0.6068" style="stop-color:#A96971"/>
		<stop  offset="0.7756" style="stop-color:#96444F"/>
		<stop  offset="0.9125" style="stop-color:#8A2E3B"/>
		<stop  offset="1" style="stop-color:#862633"/>
	</radialGradient>
	<rect x="281.1" y="16.9" clip-path="url(#SVGID_8_)" fill="url(#SVGID_9_)" width="42.2" height="46.2"/>
</g>
<g>
	<clipPath id="SVGID_11_">
		<path d="M280.5,46.6L228,68.4l4.7,15.5l50.6-32.1l0,0c0.8-0.5,1.3-1.4,1.3-2.5c0-1.6-1.3-3-3-3 C281.2,46.3,280.8,46.5,280.5,46.6"/>
	</clipPath>
	<linearGradient id="SVGID_12_" gradientUnits="userSpaceOnUse" x1="-2450.3718" y1="1221.7382" x2="-2448.9028" y2="1221.7382" gradientTransform="matrix(4.9731 9.2607 9.2607 -4.9731 1123.1115 28823.8672)">
		<stop  offset="0" style="stop-color:#F5F5F5"/>
		<stop  offset="0.2363" style="stop-color:#B5B5B5"/>
		<stop  offset="0.3629" style="stop-color:#949394"/>
		<stop  offset="0.5724" style="stop-color:#646162"/>
		<stop  offset="0.756" style="stop-color:#403D3E"/>
		<stop  offset="0.9048" style="stop-color:#2B2728"/>
		<stop  offset="1" style="stop-color:#231F20"/>
	</linearGradient>
    <polygon clip-path="url(#SVGID_11_)" fill="url(#SVGID_12_)" points="272,22.8 300.3,75.6 240.7,107.6 212.3,54.8"/>
</g>
<g>
	<clipPath id="SVGID_14_">
		<path d="M193.2,52.6l13.5,1.2l3.5-27.4c0.2-1.1-1.9-2.4-2.8-0.6L193.2,52.6z"/>
	</clipPath>
	<linearGradient id="SVGID_15_" gradientUnits="userSpaceOnUse" x1="67.8217" y1="-764.1574" x2="111.4761" y2="-761.2282" gradientTransform="matrix(0.9605 0.2783 -0.2783 0.9605 -94.3153 747.6772)">
		<stop  offset="0.3745" style="stop-color:#000000"/>
		<stop  offset="0.4724" style="stop-color:#F5F5F5"/>
		<stop  offset="0.5533" style="stop-color:#B5B5B5"/>
		<stop  offset="0.5865" style="stop-color:#949394"/>
		<stop  offset="0.6413" style="stop-color:#646162"/>
		<stop  offset="0.6895" style="stop-color:#403D3E"/>
		<stop  offset="0.7285" style="stop-color:#2B2728"/>
		<stop  offset="0.7534" style="stop-color:#231F20"/>
	</linearGradient>
	<polygon clip-path="url(#SVGID_14_)" fill="url(#SVGID_15_)" points="218.1,65.6 178.6,54.1 190.1,14.6 229.5,26"/>
</g>
<g>
	<circle fill="#001E62" cx="199.9" cy="85.3" r="34.2"/>
	<clipPath id="SVGID_17_">
		<path d="M189.3,52.8c-6.1,6.2-9.9,14.7-9.9,24.1c0,18.8,15.3,34.1,34.2,34.1c3.7,0,7.3-0.6,10.6-1.7 c6.1-6.2,9.9-14.7,9.9-24.1c0-18.9-15.3-34.2-34.2-34.2C196.2,51.1,192.6,51.8,189.3,52.8"/>
	</clipPath>
	<radialGradient id="SVGID_18_" cx="-2469.2239" cy="1006.104" r="1.4691" gradientTransform="matrix(23.278 0 0 23.278 57692.1133 -23343.2871)" gradientUnits="userSpaceOnUse">
		<stop  offset="0" style="stop-color:#EDEDED"/>
		<stop  offset="0.1264" style="stop-color:#EDEDED"/>
		<stop  offset="0.28" style="stop-color:#B5BCCC"/>
		<stop  offset="0.4716" style="stop-color:#7584A7"/>
		<stop  offset="0.6465" style="stop-color:#435889"/>
		<stop  offset="0.7984" style="stop-color:#1E3874"/>
		<stop  offset="0.9213" style="stop-color:#082567"/>
		<stop  offset="1" style="stop-color:#001E62"/>
	</radialGradient>
	<rect x="179.4" y="51.1" clip-path="url(#SVGID_17_)" fill="url(#SVGID_18_)" width="54.8" height="60"/>
</g>
<path fill="#231F20" d="M270.6,86.1c3.2,0,5.8,2.6,5.8,5.9s-2.6,5.9-5.8,5.9c-3.2,0-5.8-2.6-5.8-5.9C264.7,88.8,267.3,86.1,270.6,86.1
	L270.6,86.1z M270.6,87c-2.6,0-4.7,2.2-4.7,5s2.1,5,4.7,5s4.7-2.2,4.7-5C275.3,89.3,273.2,87,270.6,87L270.6,87z M269.5,95.6h-1V89
	c0.6-0.1,1.1-0.2,1.9-0.2c1,0,1.7,0.2,2,0.5c0.4,0.3,0.6,0.7,0.6,1.4c0,0.9-0.6,1.4-1.3,1.6v0.1c0.6,0.1,1,0.6,1.1,1.6
	c0.2,1,0.3,1.4,0.4,1.6h-1.1c-0.2-0.2-0.3-0.8-0.4-1.7c-0.2-0.8-0.6-1.2-1.4-1.2h-0.7v2.9L269.5,95.6L269.5,95.6z M269.5,91.8h0.8
	c0.9,0,1.6-0.3,1.6-1.1c0-0.6-0.4-1.2-1.6-1.2c-0.3,0-0.6,0-0.8,0.1V91.8z"/>
<rect x="0.5" y="184.8" fill="#001E62" width="488.3" height="2.7"/>
<path fill="#001E62" d="M216.7,166.6l-3.3,5.8h-3.7l15.2-25.8h4.2l15.3,25.8h-3.6l-3.4-5.8C237.4,166.6,216.7,166.6,216.7,166.6z
	 M227,149l-8.9,15.1H236L227,149z M277.4,146.6h-3.1v18.2c0,2.3-0.5,3.8-1.6,4.3s-2.7,0.7-4.8,0.8l-6,0.1h-5.5
	c-2-0.1-3.6-0.3-4.6-0.8s-1.6-1.8-1.6-4.1v-18.5h-3.1v18.8c0,2.6,0.6,4.4,1.8,5.4c1.2,1.1,3,1.6,5.6,1.7c1.2,0.1,2.5,0.1,3.7,0.1
	s2.5,0,3.7,0h2.6c0.9,0,1.7,0,2.6,0h0.1h0.1c3.5-0.1,6.1-0.5,7.8-1.2c1.6-0.7,2.5-3,2.5-7v-17.8 M312.5,153.8L312.5,153.8
	c0-2.2-0.5-3.9-1.5-5s-2.6-1.8-4.9-2c-0.6-0.1-1.2-0.1-1.9-0.2c-0.7,0-1.3-0.1-1.9-0.1s-1.3,0-1.9-0.1c-0.7,0-1.3,0-1.9,0
	c-0.7,0-1.5,0-2.4,0s-1.8,0.1-2.7,0.1c-1.1,0.1-2.1,0.2-3.1,0.3c-1,0.2-1.8,0.4-2.6,0.6c-1.6,0.6-2.6,1.5-3.2,2.8
	c-0.5,1.2-0.8,2.7-0.8,4.2c0,2.3,0.7,3.9,2.1,4.7s3.2,1.3,5.5,1.4c0.9,0.1,1.8,0.1,2.7,0.1c0.9,0,1.8,0,2.8,0c0.2,0,0.5,0,0.7,0
	s0.5,0,0.7,0l5.9,0.1c1.8,0,3.2,0.3,4.2,0.7s1.5,1.6,1.5,3.6c0,1.5-0.3,2.6-1,3.2c-0.7,0.6-1.8,1-3.2,1.2c-0.8,0.1-1.6,0.2-2.4,0.3
	s-1.6,0.1-2.5,0.1c-0.4,0-0.8,0-1.2,0c-0.4,0-0.8,0-1.2,0c-0.6,0-1.3,0-2,0c-0.8,0-1.6,0-2.3-0.1c-0.9,0-1.7-0.1-2.5-0.2
	c-0.8-0.1-1.5-0.2-2.2-0.4c-1.1-0.3-1.8-0.9-2-1.6c-0.2-0.7-0.3-1.6-0.3-2.6v0.2V165v-0.5h-3.1c0,2.7,0.4,4.5,1.2,5.7
	c0.8,1.1,2.6,1.8,5.3,2.2c0.6,0.1,1.3,0.1,2,0.2c0.6,0,1.3,0.1,2,0.1c0.6,0,1.3,0,2,0.1c0.7,0,1.3,0,2,0h2c0.5,0,1.1,0,1.7,0
	s1.2,0,1.8-0.1c1.1-0.1,2.2-0.1,3.3-0.3c1.1-0.1,2-0.4,2.8-0.8c1.4-0.6,2.3-1.5,2.8-2.6c0.4-1.1,0.6-2.4,0.6-3.8
	c0-2.4-0.5-4.2-1.6-5.1c-1.1-1-2.8-1.6-5.1-1.8c-0.4-0.1-0.9-0.1-1.3-0.1c-0.5,0-0.9-0.1-1.3-0.1c-0.5,0-0.9,0-1.4,0h-1.3h-1.5h-1.5
	c-0.5,0-1,0-1.5,0h-1.5h-0.7H294c-0.3,0-0.5,0-0.7,0s-0.5,0-0.7-0.1c-1.5-0.1-2.7-0.3-3.6-0.8c-1-0.5-1.4-1.6-1.4-3.3v-0.2v-0.2
	c0.1-0.6,0.2-1.2,0.4-1.8c0.2-0.6,0.6-1,1.3-1.3c0.6-0.3,1.3-0.5,2.2-0.6c0.9-0.1,1.8-0.2,2.7-0.3c0.9-0.1,1.7-0.1,2.5-0.2
	c0.8,0,1.5,0,2.1-0.1h1.1c0.5,0,1.1,0,1.7,0s1.2,0,1.9,0.1c1,0.1,1.9,0.1,2.8,0.3c0.9,0.1,1.6,0.3,2.1,0.6c0.5,0.2,0.9,0.6,1.1,1.1
	s0.4,1,0.4,1.5c0,0.2,0,0.4,0.1,0.6c0,0.2,0,0.4,0,0.5L312.5,153.8 M331.6,149.3h13.1v-2.6h-29.2v2.6h13v23.2h3.1V149.3L331.6,149.3
	z M369,146.6c2.9,0,5.1,0.5,6.6,1.5s2.2,3,2.2,6.2c0,2.3-0.3,3.8-1,4.7c-0.7,0.9-2.2,1.5-4.5,1.8c1.5,0.2,2.7,0.6,3.6,1.1
	c0.9,0.6,1.4,1.7,1.4,3.4v7h-3.1v-5.7c0-2-0.4-3.2-1.3-3.8c-0.9-0.6-2.2-0.9-4.1-0.9h-17.6v10.4h-3.1v-25.7H369 M368.4,159.5
	c2.2,0,3.7-0.3,4.7-1c0.9-0.7,1.4-2.1,1.4-4.3s-0.5-3.5-1.6-4s-2.6-0.8-4.6-0.8h-17.2v10.1H368.4z M388.2,166.6l-3.3,5.8h-3.7
	l15.2-25.8h4.2l15.3,25.8h-3.6l-3.4-5.8H388.2z M398.6,149l-8.9,15.1h17.9L398.6,149z M421.9,169.8v-23.2h-3.1v25.8h23.5v-2.6
	C442.3,169.8,421.9,169.8,421.9,169.8z M446.7,172.5h3.1v-25.8h-3.1V172.5z M459.6,166.6l-3.3,5.8h-3.7l15.2-25.8h4.2l15.3,25.8
	h-3.6l-3.4-5.8H459.6z M470,149l-8.9,15.1H479L470,149z"/>
<path fill="#862633" d="M23.6,154.6h-0.5v-0.5c0-1.4-0.4-2.2-1.1-2.6c-0.8-0.4-2.3-0.7-4.6-0.7h-2c-0.4,0-0.7,0-1.2,0
	c-0.4,0-0.8,0-1.2,0c-0.6,0-1.2,0.1-1.8,0.2c-0.6,0.1-1.1,0.2-1.5,0.4S9,151.8,8.9,152c-0.2,0.3-0.3,0.6-0.4,0.9c0,0.1,0,0.3,0,0.4
	c0,0.1,0,0.2,0,0.3c0,1.2,0.3,1.9,0.9,2.2c0.6,0.4,1.9,0.7,3.9,0.8c0.2,0,0.4,0,0.6,0c0.1,0,0.3,0,0.5,0c0.5,0,1,0,1.5,0.1
	c0.5,0,1,0,1.4,0c3.8,0.1,7.2,0.4,10.1,1.1c3.1,0.6,4.8,3,4.7,6.6c0,2.3-0.5,4.2-1.7,5.7c-1.2,1.6-3.8,2.4-7.6,2.7
	c-0.6,0-1.2,0-1.8,0.1c-0.6,0-1.2,0-1.8,0.1c-0.6,0-1.2,0-1.8,0h-1.8c-4.5,0-8.1-0.3-11-1c-3-0.7-4.6-3.1-4.6-6.8v-0.3
	c0-0.1,0-0.2,0.1-0.4v-0.2v-0.7h8v0.5c0,1.2,0.2,2.1,0.7,2.9c0.3,0.6,1.4,1.1,3.6,1.1c0.9,0,1.9,0,2.8,0H18c2.2,0,3.9-0.2,4.8-0.6
	c0.8-0.4,1.3-1.1,1.3-2.6c0-1.6-0.5-2.3-1.6-2.5c-1.3-0.3-3-0.5-5-0.5h-1.2c-0.4,0-0.8,0-1.2,0c-0.2,0-0.4,0-0.6,0
	c-0.2,0-0.4,0-0.6-0.1c-4.1-0.2-7.4-0.6-9.7-1.4c-2.5-0.8-3.8-3.2-3.8-6.7c0-2.3,0.7-4.1,2.3-5.4c1.5-1.3,4-1.9,7.4-2.1
	c1-0.1,2-0.1,3.1-0.1c1,0,2.1,0,3.1,0c4,0,7.5,0.3,10.5,0.9c3.1,0.6,4.9,2.8,4.8,6.3v1.4h-8 M46.1,173v-10.2l-14.5-16.6h9.7
	l9.1,10.7l9.1-10.7h9.9l-14.9,16.6V173C54.5,173,46.1,173,46.1,173z M108.5,173l0.2-20.3L97.3,173h-7.2l-11.6-20.2l0.3,20.2h-8.1
	v-26.8h12.7L93.7,165l10.2-18.8h13v26.3v0.5C116.9,173,108.5,173,108.5,173z M122.6,173v-26.3v-0.5h20.3c3.5,0,6.2,0.5,8.2,1.4
	c2,1,3.1,2.9,3,5.6c0,1.6-0.3,2.9-1,4.1c-0.5,0.9-1.4,1.5-2.7,1.9c1.5,0.4,2.5,0.9,3.2,1.7c1,1.1,1.4,2.5,1.4,4.3
	c0,2.7-0.8,4.7-2.6,6c-1.8,1.3-4.7,1.8-8.9,1.9L122.6,173L122.6,173z M139.8,168h0.4c2.2,0,3.8-0.2,4.9-0.5c1-0.3,1.4-1.1,1.5-2.7
	c0-1.5-0.4-2.2-1.1-2.5c-0.8-0.4-2.3-0.6-4.4-0.6h-10.2v6.3H139.8 M139.8,157c0.1,0,0.3,0,0.4,0c2.1,0,3.6-0.2,4.4-0.5
	c0.7-0.3,1.1-1,1.2-2.5c0-1.1-0.3-1.7-0.8-2.1c-0.5-0.3-1.7-0.6-3.5-0.6h-10.6v5.7L139.8,157 M159.4,173v-26.8h8.4v26.3v0.5H159.4z
	 M176.4,171.1c-2.7-1.4-3.9-4.4-3.9-8.6v-0.7c0-0.2,0-0.5,0.1-0.7v-0.6v-0.6l0,0c0-4.3,0.7-7.7,2.3-10.2c1.7-2.6,6.3-3.7,13.7-3.7
	c4.5,0,8.5,0.4,12,1.2c3.6,0.8,5.7,3.3,6,7.1c0.1,0.6,0.1,1.2,0.1,1.7c0,0.6,0,1.2,0,1.8v1.7c0,4.8-0.8,8.3-2.4,10.5
	c-1.9,2.3-6.8,3.1-15.2,3.2C183.1,173.1,178.9,172.6,176.4,171.1 M181,159.8v1.2v1.1c0,0.4,0,0.8,0,1.1c0,0.4,0,0.7,0.1,1.1
	c0.2,1.8,0.9,2.8,2,3.1c1.2,0.4,3.2,0.6,5.7,0.6c3.4,0,5.8-0.3,7.1-0.8c1.2-0.5,2-1.7,2.1-4c0.1-1,0.1-2.1,0.1-3.1V157
	c0-2.3-0.4-3.9-1.2-4.6c-0.6-0.7-2.8-1.2-6.5-1.2c-4.9,0-7.9,0.6-8.4,1.3c-0.7,0.8-1.1,2.5-1.1,5.1v0.2v0.2l0,0
	c0,0.3-0.1,0.5-0.1,0.8v1L181,159.8L181,159.8z"/>
<path fill="#001E62" d="M8,201.5H0.3v-1.7h17.4v1.7H10V215H7.9L8,201.5L8,201.5z M23,205.3c0-3.8,1.3-5.7,5.4-5.7h8.8
	c4.1,0,5.4,1.8,5.4,5.7v4.2c0,3.8-1.3,5.7-5.4,5.7h-8.8c-4.1,0-5.4-1.8-5.4-5.7V205.3z M40.6,204.5c0-2.6-1.6-3.2-3.6-3.2h-8.3
	c-2,0-3.6,0.6-3.6,3.2v5.7c0,2.6,1.6,3.2,3.6,3.2H37c2,0,3.6-0.6,3.6-3.2V204.5L40.6,204.5z M55.6,201.5h-7.7v-1.7h17.4v1.7h-7.6
	V215h-2.1L55.6,201.5L55.6,201.5z M76.5,199.8h2.6l9,15.2h-2.3l-1.9-3.2H71.7l-1.9,3.2h-2.3L76.5,199.8z M77.8,201.5l-5.1,8.6h10.2
	L77.8,201.5z M93.8,199.8h2.1v13.5h11.8v1.7H93.8L93.8,199.8L93.8,199.8z M126.7,199.8h2.1v6.5h13.7v-6.5h2.1V215h-2.1v-7h-13.7v7
	h-2.1V199.8z M159,208.6l-8.7-8.8h2.8l7,7.1l7-7.1h2.8l-8.7,8.8v6.4h-2.1L159,208.6L159,208.6z M194.2,209.5c0,4.1-1.3,5.6-5.1,5.6
	h-8.5c-4.1,0-5.4-1.8-5.4-5.7v-4.2c0-3.8,1.3-5.7,5.4-5.7h7.8c2.7,0,5.6,0.7,5.6,4.2v0.5h-1.9c0-2.8-0.9-3-5.9-3h-5.3
	c-2,0-3.6,0.6-3.6,3.2v5.7c0,2.6,1.6,3.2,3.6,3.2h8c2.1,0,3.3-0.7,3.3-2.8v-1.4h-7.8v-1.7h9.8V209.5z M201.3,199.8h2.1V215h-2.1
	V199.8z M210.8,199.8h14.9v1.7h-12.9v4.9h12.4v1.7h-12.4v5.3h13v1.7h-15V199.8z M232.2,199.8h3.1l13.9,13.4v-13.4h2.1V215h-3.1
	l-13.9-13.4V215h-2.1V199.8z M258.5,199.8h14.9v1.7h-12.9v4.9h12.4v1.7h-12.4v5.3h13v1.7h-15V199.8z M293.1,210.1h1.9v1.1
	c0,1.5,0.8,2.2,3.4,2.2h6.4c3,0,3.9-0.6,3.9-2.8c0-1.9-0.8-2.4-3.3-2.4h-3.9c-6.3,0-8.3-0.4-8.3-4.4c0-3.5,2.1-4.2,6.3-4.2h4.4
	c5.1,0,6.4,1.3,6.4,4v0.5h-1.9c0-2.4-0.3-2.9-5.7-2.9h-2.2c-4,0-5.4,0.2-5.4,2.7c0,1.8,0.6,2.4,3.8,2.4h6.1c4,0,5.7,1.2,5.7,3.7v1
	c0,3.7-3.1,4-6.1,4h-5.9c-3,0-5.6-0.5-5.6-3.8L293.1,210.1L293.1,210.1z M317.1,205.3c0-3.8,1.3-5.7,5.4-5.7h8.8
	c4.1,0,5.4,1.8,5.4,5.7v4.2c0,3.8-1.3,5.7-5.4,5.7h-8.8c-4.1,0-5.4-1.8-5.4-5.7V205.3z M334.7,204.5c0-2.6-1.6-3.2-3.6-3.2h-8.3
	c-2,0-3.6,0.6-3.6,3.2v5.7c0,2.6,1.6,3.2,3.6,3.2h8.3c2,0,3.6-0.6,3.6-3.2V204.5z M343.7,199.8h2.1v13.5h11.8v1.7h-13.9V199.8z
	 M363.2,199.8h2.1v11.3c0,1.5,0.5,2.3,3.3,2.3h7.1c2.8,0,3.3-0.9,3.3-2.3v-11.3h2.1v11.4c0,3.1-1.6,4-5.4,4h-7c-3.9,0-5.4-0.9-5.4-4
	L363.2,199.8L363.2,199.8z M394.4,201.5h-7.7v-1.7h17.4v1.7h-7.7V215h-2.1L394.4,201.5L394.4,201.5z M410,199.8h2.1V215H410V199.8z
	 M419.1,205.3c0-3.8,1.3-5.7,5.4-5.7h8.8c4.1,0,5.4,1.8,5.4,5.7v4.2c0,3.8-1.3,5.7-5.4,5.7h-8.8c-4.1,0-5.4-1.8-5.4-5.7V205.3z
	 M436.6,204.5c0-2.6-1.6-3.2-3.6-3.2h-8.3c-2,0-3.6,0.6-3.6,3.2v5.7c0,2.6,1.6,3.2,3.6,3.2h8.3c2,0,3.6-0.6,3.6-3.2V204.5
	L436.6,204.5z M445.5,199.8h3.1l13.9,13.4v-13.4h2.1V215h-3.1l-13.9-13.4V215h-2.1V199.8z M471.5,210.1h1.9v1.1
	c0,1.5,0.8,2.2,3.4,2.2h6.4c3,0,3.9-0.6,3.9-2.8c0-1.9-0.8-2.4-3.3-2.4h-3.9c-6.3,0-8.3-0.4-8.3-4.4c0-3.5,2.1-4.2,6.3-4.2h4.4
	c5.1,0,6.4,1.3,6.4,4v0.5h-1.9c0-2.4-0.3-2.9-5.7-2.9h-2.2c-4,0-5.4,0.2-5.4,2.7c0,1.8,0.6,2.4,3.8,2.4h6.1c4,0,5.7,1.2,5.7,3.7v1
	c0,3.7-3.1,4-6.1,4h-5.7c-3,0-5.6-0.5-5.6-3.8v-1.1H471.5z"/>
</svg>
